<svg width="150" height="34" viewBox="0 0 150 34" fill="none" xmlns="http://www.w3.org/2000/svg">
<g clip-path="url(#clip0_25_1182)">
<path d="M15.3091 6.77393C17.173 6.77393 18.6841 5.26289 18.6841 3.39893C18.6841 1.53496 17.173 0.0239258 15.3091 0.0239258C13.4451 0.0239258 11.9341 1.53496 11.9341 3.39893C11.9341 5.26289 13.4451 6.77393 15.3091 6.77393Z" fill="#00AF9D"/>
<path d="M11.1 9.32995L11.703 9.28795C11.814 9.28195 11.883 9.22495 11.91 9.11695C11.925 9.06595 11.961 9.03595 12.021 9.02995C12.108 9.01795 12.18 9.04495 12.237 9.11395L12.486 9.40495C12.549 9.47695 12.624 9.52195 12.717 9.53995C12.855 9.56695 12.969 9.63295 13.062 9.74395C13.167 9.86995 13.146 9.89995 12.996 9.83395C12.612 9.66895 12.273 9.75595 11.982 10.095C11.877 10.218 11.685 10.206 11.595 10.071C11.478 9.89395 11.343 9.73795 11.19 9.60295C11.055 9.48595 10.983 9.51595 10.968 9.69295C10.953 9.83995 10.965 9.98395 11.004 10.125C11.097 10.464 11.475 10.638 11.793 10.488L12.483 10.161C12.906 9.95995 12.993 10.059 12.747 10.455C12.66 10.599 12.552 10.731 12.429 10.854C12.384 10.896 12.351 10.944 12.327 10.998C12.294 11.079 12.294 11.136 12.33 11.169C12.36 11.196 12.396 11.202 12.435 11.187C12.519 11.154 12.588 11.1 12.642 11.025C12.735 10.896 12.78 10.911 12.774 11.07C12.765 11.298 12.678 11.475 12.507 11.598C12.348 11.715 12.312 11.862 12.402 12.036C12.501 12.225 12.447 12.294 12.24 12.249C11.985 12.192 11.766 12.27 11.583 12.477C11.523 12.546 11.451 12.564 11.37 12.528C11.205 12.459 11.208 12.396 11.379 12.339C11.55 12.282 11.697 12.201 11.826 12.093C11.931 12.006 11.883 11.832 11.745 11.817C11.292 11.766 10.962 11.919 10.755 12.276C10.614 12.519 10.524 12.498 10.491 12.219C10.464 12.003 10.356 11.853 10.167 11.766C9.98399 11.682 9.92399 11.736 9.98699 11.928C10.059 12.135 10.176 12.336 10.335 12.531C10.452 12.672 10.425 12.708 10.254 12.639C9.85499 12.48 9.59999 12.222 9.48299 11.865C9.46199 11.796 9.41399 11.772 9.34499 11.793L9.22499 11.829C9.12299 11.859 9.02399 11.847 8.93099 11.793C7.92599 11.205 6.82799 10.632 5.65499 10.587C5.30099 10.575 5.06099 10.947 5.22299 11.262C6.27299 13.32 10.239 14.895 12.402 15.501C12.516 15.534 12.603 15.498 12.66 15.396C15.102 11.124 19.275 7.49395 24.072 6.32095C26.079 5.82895 28.677 5.87695 29.97 7.67095C31.524 9.82495 30.372 12.366 28.611 14.118C27.594 15.132 26.4 16.011 25.029 16.752C24.894 16.824 24.75 16.845 24.597 16.815C24.408 16.776 24.297 16.656 24.261 16.452C24.243 16.353 24.123 16.311 24.048 16.38C23.724 16.683 23.619 16.923 23.73 17.106C23.871 17.337 23.802 17.46 23.526 17.475C23.253 17.49 23.04 17.601 22.881 17.808C22.761 17.964 22.521 17.937 22.437 17.757L22.188 17.214C22.137 17.106 22.053 17.04 21.936 17.016L21.495 16.92C21.354 16.89 21.282 16.803 21.279 16.662L21.267 16.407C21.261 16.242 21.18 16.188 21.027 16.248C20.994 16.26 20.964 16.275 20.937 16.296C20.784 16.401 20.739 16.368 20.808 16.194C20.937 15.852 20.979 15.471 20.934 15.051C20.925 14.976 20.961 14.94 21.036 14.946L21.12 14.955C21.18 14.961 21.228 15.012 21.228 15.072C21.228 15.228 21.198 15.381 21.141 15.531C21.105 15.621 21.141 15.726 21.228 15.771L21.366 15.843C21.465 15.894 21.522 15.867 21.543 15.756L21.645 15.153C21.66 15.054 21.642 14.964 21.591 14.88C21.462 14.667 21.42 14.427 21.459 14.16C21.474 14.052 21.531 13.971 21.627 13.92C21.954 13.746 22.275 13.68 22.593 13.725C22.707 13.74 22.776 13.692 22.797 13.581C22.83 13.413 22.923 13.287 23.076 13.206C24.051 12.681 24.81 12.009 25.359 11.19C25.581 10.857 25.338 10.413 24.939 10.422C22.533 10.476 19.458 12.843 17.694 14.529C17.622 14.598 17.613 14.673 17.664 14.76C19.197 17.331 20.106 20.133 20.391 23.172C20.682 26.277 20.235 30.423 17.835 32.619C17.079 33.309 16.155 33.615 15.063 33.534C12.462 33.348 11.13 30.891 10.659 28.578C10.029 25.488 10.329 22.272 11.181 19.14C11.214 19.011 11.166 18.936 11.037 18.909C7.52699 18.177 3.89999 16.272 1.63799 13.62C0.596989 12.402 -0.123011 10.899 0.0959893 9.24895C0.353989 7.29895 2.16299 6.11095 4.04999 6.03295C6.46799 5.93095 8.86799 6.94495 10.944 8.22595C11.034 8.27995 11.061 8.35795 11.028 8.45695C10.989 8.58295 11.028 8.67595 11.148 8.73895C11.211 8.77195 11.223 8.85595 11.172 8.90395C11.091 8.98195 11.031 9.06895 10.989 9.16795C10.938 9.28495 10.977 9.33895 11.1 9.32995ZM10.53 8.39395C10.287 8.48095 10.29 8.55295 10.539 8.61595C10.626 8.63695 10.71 8.61895 10.791 8.56195C10.869 8.50495 10.866 8.45695 10.779 8.41195C10.698 8.36995 10.617 8.36395 10.53 8.39395ZM10.62 9.56395C10.629 9.48295 10.59 9.40795 10.518 9.36895C10.455 9.33295 10.389 9.32395 10.32 9.34495C10.284 9.35395 10.257 9.37495 10.242 9.40795C10.173 9.54595 10.194 9.67195 10.305 9.78895C10.371 9.85795 10.485 9.84895 10.542 9.77095C10.584 9.70795 10.611 9.63895 10.62 9.56395ZM10.05 10.986C10.191 10.971 10.296 10.848 10.293 10.707C10.29 10.569 10.245 10.443 10.158 10.326C10.071 10.209 9.89999 10.191 9.79199 10.29L9.25499 10.773C9.17399 10.848 9.18599 10.902 9.29399 10.929C9.54899 10.998 9.80099 11.016 10.05 10.986ZM10.803 11.505C10.737 11.379 10.686 11.238 10.65 11.085C10.617 10.938 10.554 10.926 10.464 11.055C10.443 11.082 10.419 11.103 10.389 11.118C10.335 11.142 10.311 11.208 10.338 11.259C10.425 11.424 10.563 11.526 10.752 11.571C10.791 11.58 10.821 11.538 10.803 11.505ZM11.775 11.526C11.892 11.571 11.973 11.535 12.015 11.415C12.054 11.295 12.036 11.184 11.961 11.085C11.904 11.01 11.829 10.977 11.736 10.983C11.484 11.001 11.28 11.121 11.121 11.346C11.01 11.499 11.046 11.55 11.229 11.499C11.412 11.448 11.592 11.457 11.775 11.526ZM23.064 15.015C23.241 15.102 23.412 15.114 23.583 15.048C23.697 15.006 23.751 14.88 23.706 14.769C23.625 14.574 23.58 14.37 23.568 14.157C23.559 13.983 23.49 13.956 23.367 14.079C23.166 14.277 23.031 14.511 22.956 14.781C22.932 14.874 22.977 14.973 23.064 15.015ZM22.155 14.142C21.915 14.082 21.759 14.124 21.69 14.271C21.609 14.445 21.777 14.631 21.957 14.568C22.056 14.532 22.146 14.475 22.224 14.397C22.353 14.271 22.329 14.187 22.155 14.142ZM22.245 14.943C22.344 15.102 22.461 15.168 22.599 15.135C22.728 15.108 22.755 15.039 22.677 14.928C22.557 14.76 22.425 14.718 22.281 14.805C22.224 14.838 22.212 14.886 22.245 14.943ZM21.798 15.876C21.771 15.888 21.741 15.9 21.711 15.912C21.642 15.942 21.621 15.993 21.645 16.062C21.684 16.179 21.759 16.257 21.873 16.296C21.999 16.341 22.14 16.275 22.188 16.149C22.284 15.906 22.275 15.657 22.158 15.402C22.074 15.216 22.011 15.222 21.969 15.423C21.939 15.573 21.891 15.717 21.822 15.855C21.816 15.864 21.807 15.873 21.798 15.876ZM23.973 15.93C24.096 15.924 24.189 15.882 24.255 15.801C24.33 15.714 24.318 15.63 24.225 15.555C24.18 15.519 24.135 15.483 24.09 15.45C23.943 15.339 23.868 15.378 23.862 15.561L23.853 15.813C23.85 15.879 23.907 15.933 23.973 15.93ZM22.818 16.893C22.755 16.812 22.758 16.737 22.824 16.662C22.983 16.482 23.184 16.401 23.421 16.416C23.505 16.419 23.577 16.392 23.634 16.335L23.712 16.257C23.79 16.179 23.778 16.122 23.676 16.083L23.205 15.9C23.052 15.843 22.932 15.882 22.839 16.017C22.458 16.572 22.674 16.947 22.509 17.508C22.488 17.574 22.509 17.643 22.563 17.688C22.602 17.718 22.644 17.727 22.686 17.715C22.758 17.694 22.806 17.646 22.833 17.571C22.869 17.466 22.893 17.358 22.902 17.25C22.911 17.109 22.986 17.046 23.127 17.058C23.235 17.067 23.322 17.028 23.385 16.938C23.436 16.863 23.418 16.827 23.325 16.836C23.196 16.848 23.085 16.896 22.986 16.98C22.956 17.007 22.908 17.004 22.881 16.971L22.818 16.893ZM24.747 16.437C24.66 16.596 24.699 16.632 24.858 16.551C25.002 16.476 25.08 16.359 25.095 16.206C25.104 16.095 24.954 16.05 24.9 16.149L24.747 16.437ZM21.672 16.62C21.645 16.692 21.663 16.749 21.726 16.794C21.807 16.845 21.891 16.836 21.978 16.764C22.05 16.704 22.056 16.599 21.993 16.53C21.858 16.389 21.753 16.419 21.672 16.62ZM15.075 19.602C14.43 22.032 14.166 24.702 14.694 27.186C14.757 27.489 14.898 27.744 15.114 27.957C15.345 28.185 15.729 28.125 15.876 27.837C17.016 25.632 16.503 21.876 15.921 19.593C15.888 19.473 15.813 19.413 15.69 19.416L15.297 19.425C15.18 19.428 15.105 19.488 15.075 19.602Z" fill="#0066B3"/>
<path d="M14.1719 11.112C14.0189 11.151 13.8929 11.118 13.7969 11.013C13.7099 10.92 13.7009 10.821 13.7699 10.713C13.7909 10.677 13.8179 10.644 13.8449 10.617C13.9439 10.512 14.0339 10.518 14.1149 10.635L14.2679 10.851C14.3369 10.947 14.2889 11.085 14.1719 11.112Z" fill="#0066B3"/>
<path d="M14.217 11.7449C14.1 11.7149 14.016 11.6489 13.965 11.5469C13.923 11.4659 14.01 11.3759 14.094 11.4179L14.286 11.5109C14.367 11.5499 14.388 11.6099 14.343 11.6909C14.316 11.7419 14.274 11.7599 14.217 11.7449Z" fill="#0066B3"/>
<path d="M13.5269 11.6459C13.5839 11.7629 13.5179 11.9039 13.3919 11.9369C13.2569 11.9729 13.1489 11.9459 13.0679 11.8589C12.9449 11.7239 13.0199 11.5079 13.1969 11.4779C13.3499 11.4509 13.4579 11.5049 13.5269 11.6459Z" fill="#0066B3"/>
<path d="M13.2899 12.5968C13.3589 12.6388 13.4309 12.6598 13.5119 12.6568C13.6949 12.6508 13.7339 12.7228 13.6259 12.8728L13.5569 12.9688C13.4549 13.1038 13.3769 13.0918 13.3259 12.9328C13.2749 12.7768 13.1969 12.6388 13.0919 12.5158C12.9749 12.3808 12.9899 12.3598 13.1429 12.4558C13.1639 12.4678 13.1819 12.4858 13.1969 12.5068C13.2209 12.5428 13.2509 12.5728 13.2899 12.5968Z" fill="#0066B3"/>
<path d="M61.875 15.6631C61.875 17.4601 60.144 18.9151 58.011 18.9151C55.878 18.9151 54.147 17.4601 54.147 15.6631C54.147 13.8661 55.878 12.4111 58.011 12.4111C60.144 12.4111 61.875 13.8661 61.875 15.6631ZM58.011 17.8201C59.031 17.8201 59.859 16.8541 59.859 15.6631C59.859 14.4721 59.031 13.5061 58.011 13.5061C56.991 13.5061 56.163 14.4721 56.163 15.6631C56.163 16.8541 56.991 17.8201 58.011 17.8201Z" fill="#231F20"/>
<path d="M133.872 15.6661C133.872 17.4991 132.114 18.9841 129.948 18.9841C127.782 18.9841 126.024 17.4991 126.024 15.6661C126.024 13.8331 127.782 12.3481 129.948 12.3481C132.114 12.3481 133.872 13.8331 133.872 15.6661ZM129.955 17.7511C131.013 17.7481 131.868 16.8121 131.865 15.6595C131.862 14.5081 130.998 13.5781 129.941 13.5811C128.883 13.5841 128.028 14.5201 128.031 15.6728C128.034 16.8241 128.898 17.7541 129.955 17.7511Z" fill="#231F20"/>
<path d="M11.124 12.9269L11.427 13.3109C11.541 13.4579 11.511 13.4999 11.334 13.4369C11.154 13.3739 11.004 13.2779 10.881 13.1459C10.734 12.9899 10.743 12.8309 10.908 12.6659C10.998 12.5729 11.055 12.5909 11.076 12.7199C11.082 12.7529 11.085 12.7889 11.085 12.8219C11.088 12.8609 11.1 12.8939 11.124 12.9269Z" fill="#0066B3"/>
<path d="M12.3988 12.9402C12.5287 12.8637 12.5965 12.738 12.5503 12.6595C12.504 12.581 12.3612 12.5794 12.2313 12.6559C12.1014 12.7324 12.0336 12.8581 12.0798 12.9366C12.1261 13.0151 12.2689 13.0167 12.3988 12.9402Z" fill="#0066B3"/>
<path d="M143.172 14.1869H145.875C145.968 14.1869 146.013 14.2319 146.013 14.3249V15.3119C146.013 15.4109 145.962 15.4619 145.863 15.4619L143.184 15.4649C143.073 15.4649 143.025 15.5189 143.034 15.6299C143.202 17.4989 144.585 18.7349 146.325 19.2299C146.409 19.2539 146.439 19.3559 146.385 19.4219L145.785 20.1629C145.716 20.2439 145.632 20.2739 145.527 20.2529C144.135 19.9559 142.986 19.2659 142.08 18.1829C142.005 18.0959 141.933 18.0959 141.861 18.1829C140.94 19.2899 139.794 19.9769 138.423 20.2469C138.324 20.2679 138.24 20.2379 138.177 20.1599L137.571 19.4069C137.52 19.3469 137.553 19.2539 137.628 19.2329C139.416 18.7259 140.733 17.4629 140.919 15.6329C140.931 15.5189 140.88 15.4619 140.763 15.4619H138.087C138.003 15.4619 137.937 15.3959 137.937 15.3119V14.3249C137.937 14.2319 137.982 14.1869 138.075 14.1869H140.775C140.874 14.1869 140.955 14.1149 140.967 14.0159C141.048 13.3889 140.835 13.0469 140.328 12.9839C140.256 12.9749 140.205 12.9089 140.214 12.8369L140.226 12.7469C140.241 12.6419 140.301 12.5879 140.406 12.5879H142.815C142.932 12.5879 142.992 12.6479 142.992 12.7649L142.986 13.9979C142.986 14.1239 143.049 14.1869 143.172 14.1869Z" fill="#231F20"/>
<path d="M47.364 16.788C47.367 15.747 47.364 14.715 47.355 13.698C47.352 13.299 46.974 13.08 46.608 13.134C46.506 13.149 46.41 13.08 46.395 12.978L46.377 12.861C46.362 12.771 46.434 12.69 46.527 12.687H49.185C49.32 12.687 49.386 12.753 49.386 12.888L49.389 27.522C49.389 27.57 49.365 27.594 49.317 27.594L47.472 27.603C47.4 27.603 47.364 27.567 47.364 27.495V18.3C47.364 18.225 47.325 18.186 47.25 18.186L44.796 18.189C44.682 18.189 44.625 18.132 44.625 18.021V17.097C44.625 17.037 44.673 16.989 44.733 16.989H47.163C47.298 16.989 47.364 16.923 47.364 16.788Z" fill="#231F20"/>
<path d="M90.615 14.4961C90.558 14.1091 90.717 13.6411 90.432 13.3231C90.285 13.1581 90.093 13.0951 89.853 13.1311C89.763 13.1461 89.682 13.0771 89.679 12.9871L89.676 12.8761C89.673 12.7711 89.757 12.6841 89.859 12.6841L92.445 12.6871C92.565 12.6871 92.625 12.7471 92.625 12.8701V20.4751C92.625 20.5141 92.592 20.5471 92.553 20.5471L90.678 20.5501C90.627 20.5501 90.603 20.5261 90.603 20.4781L90.6 18.8191C90.6 18.6661 90.522 18.5881 90.369 18.5881L88.488 18.5851C88.32 18.5851 88.236 18.6691 88.239 18.8371L88.242 19.9351C88.242 20.0341 88.164 20.1121 88.065 20.1121H82.668C81.849 20.1121 81.183 19.4521 81.174 18.6331C81.159 17.2261 81.156 15.7951 81.165 14.3371C81.168 13.9861 80.976 13.6711 80.598 13.6411C80.475 13.6321 80.415 13.5661 80.415 13.4431V13.3591C80.415 13.2811 80.478 13.2181 80.559 13.2181L83.037 13.2091C83.121 13.2091 83.187 13.2781 83.187 13.3621V15.2251C83.187 15.3661 83.259 15.4381 83.4 15.4381H85.962C86.148 15.4381 86.238 15.3451 86.229 15.1591C86.202 14.5741 86.409 13.6771 85.536 13.6261C85.476 13.6231 85.431 13.5691 85.437 13.5091L85.452 13.3951C85.467 13.2721 85.533 13.2121 85.656 13.2121H88.038C88.17 13.2121 88.236 13.2781 88.236 13.4131V14.5621C88.236 14.6971 88.302 14.7631 88.437 14.7631H90.384C90.564 14.7631 90.642 14.6731 90.615 14.4961ZM90.6 16.1761C90.6 16.0981 90.537 16.0351 90.459 16.0351H88.377C88.299 16.0351 88.236 16.0981 88.236 16.1761V17.1721C88.236 17.2501 88.299 17.3131 88.377 17.3131H90.459C90.537 17.3131 90.6 17.2501 90.6 17.1721V16.1761ZM86.211 16.8211C86.211 16.7611 86.163 16.7131 86.103 16.7131H83.295C83.235 16.7131 83.187 16.7611 83.187 16.8211V18.7291C83.187 18.7891 83.235 18.8371 83.295 18.8371H86.103C86.163 18.8371 86.211 18.7891 86.211 18.7291V16.8211Z" fill="#231F20"/>
<path d="M104.79 13.212C104.631 13.134 104.454 13.098 104.259 13.104C104.184 13.107 104.121 13.041 104.127 12.963L104.133 12.87C104.142 12.768 104.229 12.687 104.334 12.687H107.031C107.088 12.687 107.136 12.735 107.136 12.792V27.498C107.136 27.567 107.103 27.6 107.037 27.6H105.213C105.144 27.6 105.111 27.564 105.111 27.495V13.725C105.111 13.506 104.985 13.305 104.79 13.212Z" fill="#231F20"/>
<path d="M147.768 17.5861L145.554 17.5891C145.443 17.5891 145.386 17.5321 145.386 17.4211V16.4791C145.386 16.3861 145.461 16.3111 145.554 16.3111H147.792C147.921 16.3111 147.984 16.2481 147.984 16.1191C147.981 15.2401 147.975 14.4601 147.96 13.7851C147.951 13.3081 147.696 13.0921 147.195 13.1311C147.066 13.1401 147.003 13.0831 147.009 12.9541L147.015 12.8431C147.018 12.7531 147.09 12.6841 147.18 12.6841L149.79 12.6871C149.892 12.6901 149.943 12.7411 149.943 12.8431V20.7811C149.943 20.8171 149.925 20.8351 149.889 20.8351L148.05 20.8381C148.011 20.8381 147.978 20.8051 147.978 20.7631L147.975 17.7931C147.975 17.6551 147.906 17.5861 147.768 17.5861Z" fill="#231F20"/>
<path d="M69.8279 15.4111H77.4419C77.5139 15.4111 77.5499 15.4471 77.5499 15.5191V16.5061C77.5499 16.5511 77.5139 16.5871 77.4689 16.5871H69.8399C69.7589 16.5871 69.7169 16.6291 69.7169 16.7101L69.7109 17.7121C69.7079 17.7811 69.7649 17.8381 69.8369 17.8381H77.6969C77.7449 17.8381 77.7839 17.8771 77.7839 17.9221L77.7899 18.9121C77.7899 18.9751 77.7569 19.0081 77.6939 19.0081C74.9549 19.0111 72.1559 19.0111 69.2969 19.0081C68.2559 19.0081 67.6619 18.2341 67.6739 17.2351C67.6889 16.1431 67.6889 15.0781 67.6799 14.0401C67.6739 13.6291 67.3739 13.4041 66.9839 13.3441C66.9479 13.3381 66.9209 13.3051 66.9209 13.2691L66.9239 13.1521C66.9269 13.0351 66.9899 12.9751 67.1069 12.9751H77.7059C77.7569 12.9751 77.7839 13.0021 77.7839 13.0561V14.0881C77.7839 14.1361 77.7599 14.1601 77.7119 14.1601L69.8129 14.1631C69.7439 14.1631 69.7079 14.1991 69.7079 14.2681L69.7139 15.3001C69.7139 15.3601 69.7649 15.4111 69.8279 15.4111Z" fill="#231F20"/>
<path d="M41.304 20.115C40.419 21.453 39.129 22.365 37.431 22.848C37.377 22.863 37.332 22.848 37.296 22.803L36.669 22.038C36.627 21.987 36.636 21.948 36.699 21.924C40.107 20.544 40.506 17.496 40.332 14.25C40.311 13.842 40.086 13.635 39.66 13.629C39.585 13.626 39.528 13.56 39.537 13.485L39.549 13.377C39.564 13.266 39.627 13.209 39.738 13.209L42.3 13.215C42.429 13.215 42.489 13.278 42.483 13.407C42.333 16.965 42.3 20.283 46.104 21.945C46.158 21.966 46.167 22.002 46.128 22.047L45.489 22.824C45.462 22.857 45.426 22.866 45.384 22.854C43.677 22.359 42.381 21.447 41.496 20.115C41.433 20.019 41.367 20.019 41.304 20.115Z" fill="#231F20"/>
<path d="M99.0451 20.1271C98.1541 21.4381 96.8701 22.3471 95.1871 22.8541C95.1241 22.8751 95.0731 22.8571 95.0311 22.8061L94.4041 22.0501C94.3741 22.0141 94.3861 21.9631 94.4281 21.9421C97.8511 20.4631 98.2141 17.5891 98.0731 14.2171C98.0581 13.9141 97.8271 13.6711 97.5361 13.6501C97.4491 13.6441 97.3741 13.6141 97.3111 13.5601C97.1731 13.4461 97.2541 13.2211 97.4341 13.2211L100.029 13.2061C100.152 13.2061 100.209 13.2661 100.203 13.3861C100.068 16.9081 100.011 20.2321 103.755 21.9061C103.869 21.9571 103.884 22.0291 103.803 22.1251L103.29 22.7251C103.2 22.8301 103.089 22.8631 102.957 22.8211C101.328 22.3021 100.086 21.4021 99.2311 20.1271C99.1681 20.0341 99.1081 20.0341 99.0451 20.1271Z" fill="#231F20"/>
<path d="M111.678 24.5731C111.681 23.1841 111.585 21.7081 111.675 20.3371C111.705 19.8721 111.504 19.6201 111.069 19.5781C110.976 19.5691 110.931 19.5151 110.931 19.4221L110.934 19.2751C110.934 19.1821 110.982 19.1371 111.075 19.1371H113.556C113.637 19.1371 113.7 19.2001 113.7 19.2811V24.5971C113.7 24.6781 113.766 24.7411 113.847 24.7411L114.906 24.7351C115.008 24.7351 115.059 24.6841 115.059 24.5791C115.065 23.0761 115.065 21.6091 115.056 20.1811C115.053 19.7881 114.861 19.5901 114.477 19.5841C114.369 19.5811 114.315 19.5271 114.312 19.4191L114.309 19.2781C114.306 19.1851 114.354 19.1371 114.447 19.1371H116.937C117.036 19.1371 117.087 19.1881 117.087 19.2871V24.6001C117.087 24.6751 117.15 24.7381 117.225 24.7381L118.515 24.7351C118.614 24.7351 118.662 24.6841 118.662 24.5851V15.1231C118.662 15.0001 118.599 14.9371 118.473 14.9371H110.7C110.652 14.9371 110.613 14.8981 110.613 14.8501V13.7371C110.613 13.6951 110.646 13.6621 110.688 13.6621H120.537C120.636 13.6621 120.687 13.7131 120.687 13.8121V24.5611C120.687 24.6781 120.744 24.7381 120.861 24.7381H122.298C122.391 24.7381 122.436 24.7831 122.436 24.8731V25.8121C122.436 25.9471 122.37 26.0131 122.238 26.0131H109.494C109.398 26.0131 109.35 25.9651 109.35 25.8691V24.8941C109.35 24.7891 109.401 24.7381 109.506 24.7381H111.513C111.603 24.7381 111.678 24.6631 111.678 24.5731Z" fill="#231F20"/>
<path d="M12.33 13.734C12.375 13.74 12.411 13.773 12.423 13.818C12.468 14.01 12.402 14.115 12.225 14.133C12.048 14.148 11.913 14.073 11.817 13.905C11.718 13.734 11.766 13.659 11.964 13.686L12.33 13.734Z" fill="#0066B3"/>
<path d="M20.2651 14.5679C20.4721 14.4569 20.6851 14.3849 20.9071 14.3459C21.0001 14.3309 21.0451 14.3699 21.0391 14.4659L21.0301 14.5619C21.0271 14.6279 20.9911 14.6669 20.9281 14.6819C20.7241 14.7269 20.5201 14.7509 20.3191 14.7599C20.0281 14.7719 20.0101 14.7089 20.2651 14.5679Z" fill="#0066B3"/>
<path d="M19.5579 15.2862C19.7096 15.1576 19.7717 14.9817 19.6967 14.8932C19.6217 14.8047 19.4379 14.8373 19.2863 14.9659C19.1346 15.0945 19.0725 15.2704 19.1475 15.3589C19.2226 15.4473 19.4063 15.4148 19.5579 15.2862Z" fill="#0066B3"/>
<path d="M20.199 16.0349C20.082 15.8489 20.088 15.7049 20.223 15.5999C20.283 15.5519 20.37 15.5699 20.409 15.6359C20.508 15.8039 20.505 15.9419 20.406 16.0529C20.346 16.1159 20.244 16.1069 20.199 16.0349Z" fill="#0066B3"/>
<path d="M20.028 16.8358C19.98 16.8568 19.941 16.8898 19.908 16.9348C19.848 17.0158 19.773 17.0308 19.683 16.9828C19.614 16.9468 19.572 16.8898 19.554 16.8148C19.518 16.6468 19.581 16.5928 19.743 16.6498L20.022 16.7518C20.094 16.7758 20.097 16.8028 20.028 16.8358Z" fill="#0066B3"/>
<path d="M21.0209 17.0131C21.1109 17.2081 21.0659 17.3341 20.8889 17.3911C20.7029 17.4481 20.6039 17.3821 20.5889 17.1871C20.5769 17.0101 20.6519 16.9111 20.8139 16.8931C20.9009 16.8871 20.9849 16.9351 21.0209 17.0131Z" fill="#0066B3"/>
<path d="M20.4599 18.7379C20.4629 18.7529 20.4539 18.7679 20.4389 18.7709L20.3579 18.7979C20.2709 18.8249 20.2349 18.7949 20.2499 18.7049L20.3519 18.1469C20.3699 18.0389 20.4209 17.9519 20.5079 17.8859C20.5649 17.8409 20.6129 17.8319 20.6489 17.8589C20.6969 17.8919 20.6999 17.9279 20.6609 17.9699C20.4659 18.1709 20.3969 18.4289 20.4599 18.7379Z" fill="#0066B3"/>
<path d="M21.0269 17.9552L21.4499 18.0062C21.5099 18.0152 21.5489 18.0722 21.5369 18.1292C21.4979 18.3032 21.3959 18.4232 21.2339 18.4922C21.1409 18.5312 21.0359 18.4742 21.0149 18.3752L20.9459 18.0452C20.9309 17.9762 20.9579 17.9462 21.0269 17.9552Z" fill="#0066B3"/>
<path d="M59.115 21.9001H62.475C62.559 21.9001 62.625 21.9661 62.625 22.0501V25.2061C62.625 25.3111 62.574 25.3621 62.469 25.3621H55.716C55.635 25.3621 55.572 25.4281 55.569 25.5091L55.557 26.1571C55.554 26.2621 55.605 26.3131 55.707 26.3131H62.688C62.739 26.3131 62.763 26.3371 62.763 26.3881V27.5071C62.763 27.5611 62.736 27.5881 62.679 27.5881C60.348 27.5911 57.885 27.5881 55.296 27.5851C54.312 27.5851 53.547 26.9821 53.535 26.0041C53.529 25.5001 53.715 24.6301 52.983 24.4921C52.845 24.4651 52.791 24.3001 52.887 24.1981C52.956 24.1231 53.04 24.0871 53.142 24.0871C55.626 24.0871 58.083 24.0871 60.513 24.0871C60.561 24.0871 60.6 24.0481 60.6 24.0031L60.597 23.2471C60.597 23.2081 60.564 23.1751 60.522 23.1751H53.169C53.124 23.1751 53.088 23.1391 53.088 23.0941V21.9811C53.088 21.9361 53.124 21.9001 53.169 21.9001H56.922C56.967 21.9001 56.991 21.8761 56.991 21.8281L56.988 21.0001C56.985 20.9221 56.925 20.8621 56.85 20.8621H51.531C51.486 20.8621 51.45 20.8261 51.45 20.7811L51.447 19.6441C51.447 19.5991 51.486 19.5631 51.531 19.5631L64.425 19.5601C64.473 19.5601 64.512 19.5991 64.512 19.6501L64.509 20.7751C64.509 20.8231 64.47 20.8621 64.425 20.8621H59.109C59.034 20.8621 58.995 20.9011 58.992 20.9791L58.983 21.7651C58.98 21.8401 59.04 21.9001 59.115 21.9001Z" fill="#231F20"/>
<path d="M126.912 22.5572L126.909 20.9582C126.909 20.8982 126.861 20.8502 126.801 20.8502H123.498C123.438 20.8502 123.39 20.8022 123.39 20.7422V19.6832C123.39 19.6232 123.438 19.5752 123.498 19.5752H136.38C136.44 19.5752 136.488 19.6232 136.488 19.6832L136.485 20.7422C136.485 20.8022 136.437 20.8502 136.377 20.8502H133.074C133.014 20.8502 132.966 20.8982 132.966 20.9582L132.96 22.5542C132.96 22.6142 133.008 22.6622 133.068 22.6622L134.778 22.6652C134.838 22.6652 134.886 22.7132 134.886 22.7732L134.889 27.4772C134.889 27.5372 134.841 27.5852 134.781 27.5852L132.972 27.5912C132.912 27.5912 132.864 27.5432 132.864 27.4832L132.867 24.0452C132.867 23.9852 132.819 23.9372 132.759 23.9372H125.055C124.995 23.9372 124.947 23.8892 124.947 23.8292L124.953 22.7702C124.953 22.7102 125.001 22.6622 125.061 22.6622L126.804 22.6652C126.864 22.6652 126.912 22.6172 126.912 22.5572ZM130.936 20.9475C130.935 20.8922 130.893 20.8472 130.837 20.8486L129.031 20.8518C128.976 20.8532 128.931 20.8952 128.932 20.9509L128.935 22.5649C128.937 22.6202 128.979 22.6652 129.034 22.6638L130.84 22.6606C130.896 22.6592 130.941 22.6172 130.939 22.5615L130.936 20.9475Z" fill="#231F20"/>
<path d="M79.1159 20.1362H66.2459C66.1929 20.1362 66.1499 20.1792 66.1499 20.2322V21.2882C66.1499 21.3412 66.1929 21.3842 66.2459 21.3842H79.1159C79.1689 21.3842 79.2119 21.3412 79.2119 21.2882V20.2322C79.2119 20.1792 79.1689 20.1362 79.1159 20.1362Z" fill="#231F20"/>
<path d="M149.745 24.4828C149.745 26.3698 147.921 27.8968 145.671 27.8968C143.421 27.8968 141.597 26.3698 141.597 24.4828C141.597 22.5958 143.421 21.0688 145.671 21.0688C147.921 21.0688 149.745 22.5958 149.745 24.4828ZM145.675 26.7208C146.796 26.7178 147.702 25.7158 147.699 24.4793C147.696 23.2438 146.787 22.2418 145.667 22.2448C144.546 22.2478 143.64 23.2498 143.643 24.4864C143.646 25.7218 144.555 26.7238 145.675 26.7208Z" fill="#231F20"/>
<path d="M85.7451 24.687C85.6971 24.687 85.6731 24.711 85.6731 24.759L85.6821 25.752C85.6821 25.8 85.7061 25.824 85.7571 25.824H92.5011C92.5701 25.824 92.6031 25.857 92.6031 25.926L92.6092 26.994C92.6092 27.054 92.5791 27.084 92.5161 27.084C90.2391 27.087 87.8481 27.087 85.3371 27.09C83.7741 27.093 83.5881 25.773 83.6811 24.567C83.7111 24.183 83.5521 23.946 83.2041 23.856C83.1141 23.832 83.0512 23.778 83.0182 23.691C82.9852 23.604 82.9971 23.526 83.0541 23.46C83.0901 23.421 83.1351 23.4 83.1891 23.4L90.3951 23.403C90.4401 23.403 90.4611 23.379 90.4611 23.334L90.4701 22.359C90.4731 22.302 90.4461 22.275 90.3891 22.275H83.3331C83.2641 22.275 83.2311 22.242 83.2311 22.173V21.099C83.2311 21.045 83.2761 21 83.3301 21H92.3362C92.4412 21 92.4921 21.051 92.4921 21.156L92.4951 24.534C92.4951 24.636 92.4441 24.687 92.3421 24.687H85.7451Z" fill="#231F20"/>
<path d="M75.3541 23.7872H67.8811C67.8301 23.7872 67.7881 23.7452 67.7881 23.6942V22.6052C67.7881 22.5542 67.8301 22.5122 67.8811 22.5122H77.3821C77.4331 22.5122 77.4751 22.5542 77.4751 22.6052V27.3572C77.4751 27.4082 77.4331 27.4502 77.3821 27.4502L75.5431 27.4472C75.4921 27.4472 75.4501 27.4052 75.4501 27.3542L75.4471 23.8802C75.4471 23.8292 75.4051 23.7872 75.3541 23.7872Z" fill="#231F20"/>
</g>
<defs>
<clipPath id="clip0_25_1182">
<rect width="150" height="33.6" fill="white"/>
</clipPath>
</defs>
</svg>
