<svg width="171" height="36" viewBox="0 0 171 36" fill="none" xmlns="http://www.w3.org/2000/svg">
<rect x="0.745117" width="169.49" height="36" rx="10" fill="white"/>
<g clip-path="url(#clip0_67_15)">
<path d="M30.7705 3H31.5621C34.3776 3.80357 35.1693 6.98214 32.58 8.5119C28.955 10.6429 25.9193 4.30952 30.7705 3Z" fill="#F4781F"/>
<path d="M144.924 11.4941C145.074 12.4822 145.685 13.1687 146.757 13.5536C147.043 13.6568 147.184 13.8611 147.18 14.1667L147.174 14.7322C147.17 14.9623 147.053 15.0556 146.822 15.0119C145.834 14.8215 144.973 14.3909 144.239 13.7203C144.088 13.5814 143.941 13.5853 143.799 13.7322C143.064 14.4782 142.193 14.9683 141.185 15.2024C141.043 15.2342 140.967 15.1766 140.959 15.0298L140.906 14.131C140.901 14.0526 140.923 13.9747 140.97 13.9106C141.017 13.8466 141.084 13.8003 141.162 13.7798C142.245 13.4782 142.91 12.7282 143.156 11.5298C143.207 11.2917 143.11 11.1746 142.864 11.1786L141.662 11.1845C141.36 11.1845 141.213 11.0338 141.221 10.7322L141.233 10.131C141.237 9.9405 141.336 9.84725 141.531 9.85121L142.709 9.86312C143.023 9.86709 143.176 9.71232 143.168 9.39883L143.162 9.03574C143.158 8.78971 143.277 8.66669 143.519 8.66669L144.382 8.65479C144.604 8.65479 144.727 8.7659 144.751 8.98812L144.81 9.51788C144.834 9.75598 144.967 9.87304 145.209 9.86907L146.584 9.84526C146.791 9.84129 146.89 9.94248 146.882 10.1488L146.846 11C146.838 11.1468 146.761 11.2183 146.614 11.2143L145.221 11.1607C144.991 11.1528 144.892 11.2639 144.924 11.4941Z" fill="#333333"/>
<path d="M136.049 10.9925C136.047 11.2762 135.966 11.5567 135.808 11.8181C135.651 12.0794 135.421 12.3164 135.132 12.5155C134.843 12.7147 134.501 12.872 134.124 12.9787C133.747 13.0853 133.344 13.139 132.936 13.1369C132.529 13.1348 132.126 13.0768 131.75 12.9662C131.375 12.8557 131.034 12.6947 130.747 12.4926C130.46 12.2904 130.233 12.051 130.078 11.7881C129.924 11.5251 129.845 11.2437 129.846 10.96C129.848 10.6762 129.93 10.3957 130.087 10.1343C130.244 9.873 130.474 9.636 130.763 9.43687C131.052 9.23774 131.394 9.08037 131.771 8.97375C132.148 8.86714 132.552 8.81336 132.959 8.81549C133.366 8.81762 133.769 8.87563 134.145 8.98618C134.52 9.09674 134.862 9.25769 135.148 9.45984C135.435 9.66199 135.663 9.90138 135.817 10.1643C135.971 10.4273 136.05 10.7087 136.049 10.9925ZM134.465 10.9508C134.463 10.7235 134.299 10.5069 134.009 10.3487C133.718 10.1905 133.325 10.1036 132.916 10.1072C132.507 10.1108 132.116 10.2045 131.828 10.3678C131.541 10.531 131.38 10.7504 131.382 10.9778C131.384 11.2051 131.548 11.4217 131.839 11.5799C132.13 11.7381 132.522 11.825 132.931 11.8214C133.34 11.8178 133.731 11.7241 134.019 11.5608C134.307 11.3976 134.467 11.1782 134.465 10.9508Z" fill="#333333"/>
<path d="M116.965 11.1252C116.965 11.733 116.487 12.3158 115.635 12.7456C114.783 13.1754 113.628 13.4168 112.424 13.4168C111.219 13.4168 110.064 13.1754 109.212 12.7456C108.361 12.3158 107.882 11.733 107.882 11.1252C107.882 10.5174 108.361 9.93448 109.212 9.50471C110.064 9.07494 111.219 8.8335 112.424 8.8335C113.628 8.8335 114.783 9.07494 115.635 9.50471C116.487 9.93448 116.965 10.5174 116.965 11.1252ZM115.299 11.1252C115.299 11.0103 115.224 10.8965 115.08 10.7903C114.935 10.6842 114.724 10.5877 114.457 10.5064C114.19 10.4252 113.873 10.3607 113.524 10.3168C113.175 10.2728 112.801 10.2502 112.424 10.2502C112.046 10.2502 111.672 10.2728 111.324 10.3168C110.975 10.3607 110.658 10.4252 110.391 10.5064C110.124 10.5877 109.912 10.6842 109.768 10.7903C109.623 10.8965 109.549 11.0103 109.549 11.1252C109.549 11.3572 109.852 11.5798 110.391 11.7439C110.93 11.908 111.661 12.0002 112.424 12.0002C113.186 12.0002 113.918 11.908 114.457 11.7439C114.996 11.5798 115.299 11.3572 115.299 11.1252Z" fill="#333333"/>
<path d="M127.793 8.9585H126.519C126.42 8.9585 126.34 9.03845 126.34 9.13707V19.6371C126.34 19.7357 126.42 19.8156 126.519 19.8156H127.793C127.891 19.8156 127.971 19.7357 127.971 19.6371V9.13707C127.971 9.03845 127.891 8.9585 127.793 8.9585Z" fill="#333333"/>
<path d="M137.001 14.9224L137.072 9.23786C137.076 9.04739 137.174 8.95215 137.364 8.95215H138.394C138.588 8.95215 138.685 9.05135 138.685 9.24977V16.72C138.685 16.9224 138.588 17.0553 138.394 17.1188C137.771 17.3172 137.316 17.1962 137.031 16.7557C136.928 16.601 136.781 16.5236 136.59 16.5236L135.239 16.5295C134.922 16.5335 134.779 16.3787 134.81 16.0652L134.858 15.5771C134.89 15.2875 135.051 15.1565 135.34 15.1843L136.59 15.2974C136.864 15.3212 137.001 15.1962 137.001 14.9224Z" fill="#333333"/>
<path d="M148.12 13.125L146.662 13.0715C146.628 13.0707 146.595 13.0633 146.564 13.0497C146.533 13.0361 146.506 13.0166 146.482 12.9923C146.459 12.968 146.441 12.9393 146.429 12.908C146.417 12.8766 146.411 12.8432 146.412 12.8095L146.435 11.9167C146.437 11.8509 146.464 11.7882 146.51 11.7416C146.557 11.695 146.62 11.6682 146.685 11.6667L148.12 11.6488C148.154 11.6488 148.188 11.642 148.219 11.6288C148.251 11.6156 148.279 11.5962 148.303 11.5718C148.327 11.5474 148.346 11.5185 148.358 11.4867C148.371 11.455 148.377 11.421 148.376 11.3869L148.352 9.20241C148.351 9.16779 148.358 9.13337 148.37 9.10122C148.383 9.06908 148.403 9.03988 148.427 9.0154C148.452 8.99091 148.481 8.97165 148.513 8.95878C148.545 8.9459 148.579 8.93969 148.614 8.9405L149.745 8.95241C149.813 8.95241 149.878 8.97937 149.926 9.02737C149.974 9.07537 150.001 9.14048 150.001 9.20836L149.995 15.0834C149.995 15.1512 149.968 15.2163 149.92 15.2643C149.872 15.3123 149.807 15.3393 149.739 15.3393L148.638 15.3453C148.57 15.3453 148.505 15.3183 148.457 15.2703C148.409 15.2223 148.382 15.1572 148.382 15.0893L148.364 13.375C148.363 13.3102 148.337 13.2483 148.291 13.2019C148.246 13.1555 148.185 13.128 148.12 13.125Z" fill="#333333"/>
<path d="M103.59 10.5831H96.9238C96.8995 10.5831 96.8756 10.5784 96.8532 10.5691C96.8308 10.5598 96.8104 10.5462 96.7933 10.5291C96.7762 10.5119 96.7626 10.4916 96.7533 10.4692C96.744 10.4468 96.7393 10.4228 96.7393 10.3986L96.7571 9.29146C96.7571 9.24252 96.7766 9.19558 96.8112 9.16098C96.8458 9.12637 96.8927 9.10693 96.9416 9.10693L105.198 9.11289C105.222 9.11287 105.247 9.11784 105.27 9.12748C105.292 9.13712 105.313 9.15125 105.33 9.16902C105.347 9.18679 105.361 9.20784 105.37 9.23092C105.379 9.254 105.383 9.27863 105.382 9.30336L105.263 16.1546C105.262 16.1995 105.244 16.2425 105.214 16.2754C105.183 16.3082 105.141 16.3288 105.096 16.3331L103.793 16.4224C103.767 16.4241 103.741 16.4204 103.717 16.4115C103.693 16.4026 103.671 16.3887 103.652 16.3707C103.634 16.3528 103.619 16.3312 103.61 16.3073C103.6 16.2834 103.596 16.2577 103.596 16.2319L103.775 10.7736C103.776 10.7489 103.772 10.7242 103.763 10.7012C103.754 10.6781 103.74 10.657 103.723 10.6393C103.706 10.6215 103.685 10.6074 103.662 10.5977C103.64 10.5881 103.615 10.5831 103.59 10.5831Z" fill="#333333"/>
<path d="M121.852 17.0474C121.185 18.0395 120.245 18.7002 119.031 19.0296C118.999 19.0375 118.979 19.0276 118.971 18.9998C118.888 18.6506 118.868 18.2676 118.912 17.851C118.919 17.7818 118.944 17.7158 118.985 17.6594C119.026 17.603 119.08 17.5582 119.144 17.5296C121.43 16.4819 121.441 13.0534 121.275 10.8688C121.263 10.6784 121.162 10.5831 120.971 10.5831H119.269C119.122 10.5871 119.049 10.5137 119.049 10.3629L119.037 9.41051C119.037 9.20812 119.136 9.10693 119.334 9.10693H124.703C124.902 9.10693 124.999 9.20416 124.995 9.3986L124.989 10.2974C124.985 10.4919 124.888 10.5891 124.697 10.5891L123.221 10.5831C123.019 10.5831 122.916 10.6823 122.912 10.8807C122.87 13.101 122.549 16.0296 124.691 17.3391C124.836 17.4274 124.954 17.5526 125.035 17.7022C125.116 17.8517 125.155 18.0201 125.15 18.1903L125.138 18.6605C125.13 19.0137 124.965 19.1149 124.644 18.9641C123.616 18.468 122.807 17.8272 122.215 17.0415C122.088 16.8748 121.967 16.8768 121.852 17.0474Z" fill="#333333"/>
<path d="M19.2551 9.07504C23.7254 8.68814 29.6897 9.64647 29.4277 15.5334C29.4198 15.7318 29.3404 15.7655 29.1897 15.6346C26.4912 13.3766 23.1797 12.4739 19.2551 12.9262V12.4977C19.4535 11.5532 19.4535 10.6246 19.2551 9.71195V9.07504Z" fill="#00A15C"/>
<path d="M32.4158 32.4059H29.0408C26.1678 32.1797 23.7571 31.2769 21.8087 29.6975C20.3444 28.513 19.3444 26.8106 19.3563 24.9713C19.3722 23.1142 19.3385 21.8443 19.2551 21.1618V20.3106C23.3325 19.5963 29.8266 21.1916 29.3266 26.5189C29.2353 27.4872 29.6758 27.9713 30.648 27.9713H30.9754C31.3011 27.9713 31.6136 27.8417 31.8445 27.6108C32.0754 27.3799 32.2059 27.0665 32.2075 26.7392C32.2075 22.7074 32.2016 18.6043 32.1897 14.4297C32.1777 9.62014 38.3861 8.78085 41.9516 9.04276C42.1738 9.05863 42.2829 9.17768 42.2789 9.3999C42.1877 13.8959 42.1837 18.8186 42.267 24.1678C42.3027 26.4892 41.3206 28.757 39.4813 30.0249C37.6043 31.3106 35.2492 32.1043 32.4158 32.4059Z" fill="#114B94"/>
<path d="M102.733 17.8807L105.745 17.8926C105.8 17.8926 105.853 17.9146 105.892 17.9537C105.931 17.9927 105.953 18.0457 105.953 18.101L105.947 19.1545C105.947 19.2098 105.925 19.2628 105.886 19.3019C105.847 19.3409 105.794 19.3629 105.739 19.3629L96.4891 19.3569C96.4338 19.3569 96.3808 19.335 96.3418 19.2959C96.3027 19.2568 96.2808 19.2038 96.2808 19.1486L96.2986 18.095C96.3001 18.0418 96.3219 17.9912 96.3596 17.9536C96.3972 17.9159 96.4478 17.8941 96.501 17.8926L98.0069 17.8748C98.0622 17.8748 98.1152 17.8528 98.1543 17.8138C98.1933 17.7747 98.2153 17.7217 98.2153 17.6664L98.2093 13.3272C98.2093 13.2998 98.2147 13.2727 98.2252 13.2474C98.2357 13.2222 98.251 13.1992 98.2704 13.1798C98.2897 13.1605 98.3127 13.1452 98.3379 13.1347C98.3632 13.1242 98.3903 13.1188 98.4177 13.1188L99.6379 13.1307C99.6653 13.1307 99.6924 13.1361 99.7176 13.1466C99.7429 13.1571 99.7659 13.1724 99.7852 13.1918C99.8046 13.2111 99.8199 13.2341 99.8304 13.2593C99.8409 13.2846 99.8462 13.3117 99.8462 13.3391L99.8224 17.6664C99.8224 17.6938 99.8278 17.7209 99.8383 17.7462C99.8488 17.7715 99.8641 17.7944 99.8834 17.8138C99.9028 17.8331 99.9258 17.8485 99.951 17.8589C99.9763 17.8694 100.003 17.8748 100.031 17.8748L100.691 17.8688C100.747 17.8688 100.8 17.8469 100.839 17.8078C100.878 17.7687 100.9 17.7158 100.9 17.6605L100.894 13.3391C100.894 13.2848 100.915 13.2327 100.953 13.1938C100.991 13.1549 101.042 13.1323 101.096 13.1307L102.322 13.1129C102.35 13.1121 102.378 13.1169 102.404 13.127C102.43 13.1371 102.454 13.1523 102.474 13.1718C102.494 13.1912 102.509 13.2144 102.52 13.2401C102.531 13.2658 102.537 13.2933 102.537 13.3212L102.525 17.6724C102.525 17.7277 102.547 17.7806 102.586 17.8197C102.625 17.8588 102.678 17.8807 102.733 17.8807Z" fill="#333333"/>
<path d="M133.334 15.1188L133.323 15.9462C133.319 16.3232 133.132 16.474 132.763 16.3986C132.632 16.3748 132.507 16.3887 132.388 16.4402C132.122 16.5553 131.936 16.476 131.828 16.2021C131.69 15.849 131.652 15.4779 131.715 15.0891C131.722 15.0467 131.72 15.0033 131.708 14.9619C131.697 14.9206 131.677 14.8822 131.649 14.8494C131.621 14.8166 131.587 14.7901 131.548 14.7719C131.509 14.7537 131.467 14.7441 131.424 14.7438H129.751C129.713 14.7438 129.675 14.7361 129.64 14.7211C129.605 14.7061 129.574 14.6841 129.547 14.6563C129.52 14.6286 129.499 14.5958 129.485 14.5597C129.471 14.5236 129.465 14.485 129.465 14.4462L129.471 13.726C129.471 13.5434 129.565 13.4521 129.751 13.4521L136.198 13.4581C136.539 13.4581 136.662 13.6208 136.567 13.9462L136.483 14.2319C136.441 14.3792 136.352 14.5087 136.229 14.601C136.107 14.6933 135.958 14.7434 135.805 14.7438H133.709C133.611 14.7438 133.517 14.7832 133.446 14.8533C133.376 14.9235 133.336 15.0188 133.334 15.1188Z" fill="#333333"/>
<path d="M114.811 17.7203L108.406 17.7322C108.376 17.7322 108.346 17.7262 108.318 17.7145C108.29 17.7027 108.265 17.6855 108.244 17.6639C108.223 17.6423 108.206 17.6166 108.195 17.5885C108.184 17.5603 108.179 17.5303 108.18 17.5001L108.186 16.6072C108.186 16.577 108.193 16.5472 108.206 16.5197C108.218 16.4921 108.236 16.4674 108.258 16.4468C108.28 16.4263 108.306 16.4104 108.335 16.4001C108.363 16.3899 108.393 16.3854 108.424 16.387L109.424 16.4227C109.454 16.4243 109.484 16.4198 109.512 16.4096C109.541 16.3993 109.567 16.3834 109.589 16.3629C109.611 16.3424 109.629 16.3176 109.642 16.29C109.654 16.2625 109.661 16.2327 109.662 16.2025L109.68 15.4108C109.68 15.3801 109.675 15.3495 109.664 15.321C109.652 15.2925 109.635 15.2666 109.613 15.2448C109.592 15.2231 109.566 15.206 109.537 15.1947C109.509 15.1833 109.478 15.1778 109.447 15.1787L107.674 15.2084C107.643 15.2092 107.612 15.2038 107.584 15.1924C107.555 15.181 107.529 15.164 107.508 15.1423C107.486 15.1205 107.469 15.0946 107.457 15.0661C107.446 15.0375 107.441 15.007 107.441 14.9763L107.465 14.0894C107.467 14.0304 107.491 13.9744 107.534 13.9333C107.576 13.8921 107.633 13.8691 107.691 13.8691H117.037C117.097 13.8691 117.154 13.893 117.197 13.9354C117.239 13.9778 117.263 14.0353 117.263 14.0953L117.257 14.9882C117.257 15.0184 117.251 15.0483 117.239 15.0761C117.227 15.104 117.21 15.1292 117.189 15.1503C117.167 15.1714 117.141 15.1879 117.113 15.1989C117.085 15.2099 117.055 15.2152 117.025 15.2144L115.43 15.1846C115.399 15.1838 115.369 15.1891 115.341 15.2001C115.313 15.2111 115.287 15.2276 115.266 15.2487C115.244 15.2698 115.227 15.295 115.215 15.3229C115.203 15.3507 115.197 15.3806 115.197 15.4108V16.1965C115.197 16.2273 115.204 16.2577 115.216 16.2859C115.228 16.3142 115.246 16.3397 115.268 16.3608C115.29 16.382 115.316 16.3984 115.345 16.409C115.374 16.4197 115.405 16.4243 115.436 16.4227L116.43 16.381C116.46 16.3794 116.491 16.3841 116.52 16.3947C116.549 16.4054 116.575 16.4218 116.597 16.4429C116.62 16.4641 116.637 16.4896 116.649 16.5178C116.661 16.5461 116.668 16.5765 116.668 16.6072V19.7382C116.668 19.7684 116.662 19.7983 116.65 19.8261C116.638 19.854 116.621 19.8792 116.599 19.9003C116.578 19.9214 116.552 19.9379 116.524 19.9489C116.496 19.9599 116.466 19.9652 116.436 19.9644L115.257 19.9525C115.227 19.9525 115.197 19.9464 115.169 19.9347C115.141 19.923 115.116 19.9058 115.095 19.8841C115.074 19.8625 115.057 19.8369 115.046 19.8087C115.035 19.7806 115.03 19.7505 115.031 19.7203L115.037 17.9465C115.037 17.8865 115.013 17.829 114.97 17.7866C114.928 17.7442 114.871 17.7203 114.811 17.7203ZM113.549 15.413C113.549 15.3817 113.542 15.3509 113.53 15.3221C113.518 15.2934 113.5 15.2674 113.477 15.2456C113.455 15.2238 113.428 15.2066 113.399 15.1951C113.37 15.1835 113.339 15.1778 113.308 15.1782L111.534 15.203C111.471 15.2039 111.411 15.2298 111.367 15.2751C111.323 15.3203 111.299 15.3812 111.3 15.4444L111.31 16.1824C111.31 16.2137 111.317 16.2446 111.329 16.2733C111.342 16.302 111.359 16.328 111.382 16.3498C111.404 16.3716 111.431 16.3888 111.46 16.4003C111.489 16.4119 111.52 16.4176 111.551 16.4172L113.325 16.3924C113.388 16.3915 113.448 16.3656 113.492 16.3203C113.536 16.2751 113.561 16.2142 113.56 16.151L113.549 15.413Z" fill="#333333"/>
<path d="M19.2551 17.823V14.2099C22.2908 13.7258 24.8266 14.079 26.8623 15.2695C28.9516 16.4897 29.3623 18.3349 29.4575 20.5611C29.4694 20.827 29.3722 20.8766 29.1658 20.7099C28.8762 20.4758 28.6023 20.2238 28.3444 19.954C26.273 17.7933 22.2373 17.8349 19.2551 17.823Z" fill="#00A15C"/>
<path d="M150.388 17.78C150.388 18.413 149.925 19.0201 149.1 19.4678C148.275 19.9154 147.156 20.1669 145.989 20.1669C144.823 20.1669 143.704 19.9154 142.879 19.4678C142.054 19.0201 141.59 18.413 141.59 17.78C141.59 17.1469 142.054 16.5398 142.879 16.0922C143.704 15.6445 144.823 15.3931 145.989 15.3931C147.156 15.3931 148.275 15.6445 149.1 16.0922C149.925 16.5398 150.388 17.1469 150.388 17.78ZM148.751 17.7573C148.751 17.5047 148.46 17.263 147.943 17.0853C147.426 16.9076 146.724 16.8085 145.993 16.8097C145.632 16.8104 145.273 16.8356 144.939 16.8841C144.605 16.9325 144.301 17.0032 144.045 17.0921C143.789 17.181 143.587 17.2863 143.448 17.4021C143.31 17.5179 143.239 17.6419 143.239 17.7669C143.24 18.0195 143.53 18.2613 144.048 18.439C144.565 18.6167 145.266 18.7158 145.997 18.7145C146.359 18.7139 146.717 18.6886 147.051 18.6402C147.386 18.5917 147.689 18.521 147.945 18.4321C148.201 18.3433 148.404 18.2379 148.542 18.1221C148.68 18.0063 148.751 17.8824 148.751 17.7573Z" fill="#333333"/>
<path d="M132.31 18.4764H138.816C138.865 18.4764 138.912 18.4959 138.947 18.5305C138.982 18.5651 139.001 18.612 139.001 18.661L138.995 19.7681C138.995 19.817 138.976 19.864 138.941 19.8986C138.906 19.9332 138.859 19.9526 138.81 19.9526H130.703C130.654 19.9526 130.607 19.9332 130.573 19.8986C130.538 19.864 130.519 19.817 130.519 19.7681L130.501 16.8812C130.501 16.8323 130.52 16.7853 130.555 16.7507C130.59 16.7161 130.637 16.6967 130.685 16.6967L131.953 16.6788C131.979 16.678 132.004 16.6823 132.027 16.6916C132.051 16.7009 132.072 16.7149 132.09 16.7328C132.108 16.7506 132.122 16.7719 132.131 16.7954C132.14 16.8189 132.145 16.844 132.144 16.8693L132.126 18.2919C132.126 18.3161 132.131 18.3401 132.14 18.3625C132.149 18.3849 132.163 18.4052 132.18 18.4224C132.197 18.4395 132.217 18.4531 132.24 18.4624C132.262 18.4717 132.286 18.4764 132.31 18.4764Z" fill="#333333"/>
<path d="M73.3643 26.5002C73.3444 26.3812 73.273 26.3316 73.15 26.3514L72.9833 26.3812C72.9595 26.3851 72.9496 26.399 72.9535 26.4228C73.1004 27.1252 72.8325 27.6312 72.15 27.9407C69.1023 29.3216 67.0071 25.0657 69.5726 23.4288C70.8186 22.6312 71.9258 22.899 72.894 24.2324C72.9932 24.3673 73.021 24.5121 72.9773 24.6669C72.8345 25.147 72.6361 25.1708 72.3821 24.7383C72.0785 24.2085 71.6083 23.655 70.9654 23.6907C67.9773 23.8752 69.2095 28.7859 71.9059 27.28C72.1123 27.1609 72.2353 26.9843 72.275 26.7502C72.3266 26.4248 72.1877 26.276 71.8583 26.3038C71.5488 26.3276 71.2393 26.2939 70.9297 26.2026C70.6797 26.1272 70.6341 25.9863 70.7928 25.78C70.9079 25.6252 71.0666 25.5478 71.269 25.5478C71.8722 25.5478 72.4615 25.5597 73.0369 25.5835C73.275 25.5915 73.4714 25.5042 73.6262 25.3216C73.9833 24.905 74.3643 24.3574 74.9654 24.3395C76.4337 24.2839 77.1281 24.9605 77.0488 26.3693C76.9059 28.8812 73.7571 28.7324 73.3643 26.5002ZM76.5309 26.28C76.5309 25.9548 76.4017 25.6429 76.1718 25.4129C75.9418 25.183 75.6299 25.0538 75.3047 25.0538C74.9795 25.0538 74.6676 25.183 74.4377 25.4129C74.2077 25.6429 74.0785 25.9548 74.0785 26.28C74.0785 26.6052 74.2077 26.9171 74.4377 27.147C74.6676 27.377 74.9795 27.5062 75.3047 27.5062C75.6299 27.5062 75.9418 27.377 76.1718 27.147C76.4017 26.9171 76.5309 26.6052 76.5309 26.28Z" fill="#9C9B9C"/>
<path d="M100.198 25.4046C100.739 26.4939 100.168 27.851 98.9654 28.1427C97.2035 28.5713 95.7928 26.5653 97.019 25.0951C97.7968 24.1586 98.6361 24.0237 99.5369 24.6903C99.631 24.7591 99.7406 24.8038 99.8561 24.8205C99.9715 24.8372 100.089 24.8253 100.199 24.786C100.309 24.7466 100.407 24.681 100.486 24.5948C100.565 24.5086 100.621 24.4045 100.65 24.2915C100.888 23.355 101.428 22.9463 102.269 23.0653C102.3 23.07 102.33 23.0813 102.356 23.0984C102.383 23.1155 102.405 23.1381 102.422 23.1646C102.439 23.1911 102.45 23.2209 102.454 23.2521C102.459 23.2832 102.456 23.3149 102.448 23.3451L102.394 23.5296C102.342 23.7161 102.217 23.8034 102.019 23.7915C101.864 23.7796 101.725 23.8153 101.602 23.8987C101.388 24.0415 101.4 24.1645 101.638 24.2677C102.444 24.609 102.977 24.4483 103.239 23.7856C103.342 23.5197 103.519 23.3153 103.769 23.1725C104.154 22.9542 104.497 22.9562 104.799 23.1784C105.037 23.353 105.021 23.5018 104.751 23.6249C104.569 23.7082 104.372 23.734 104.162 23.7022C104.12 23.6948 104.078 23.6957 104.037 23.7049C103.996 23.7141 103.958 23.7314 103.924 23.7558C103.741 23.8947 103.707 24.0534 103.823 24.232C103.861 24.2895 103.918 24.3316 103.983 24.351C104.503 24.4899 105.045 24.4701 105.608 24.2915C105.678 24.2689 105.753 24.2632 105.825 24.275C105.898 24.2867 105.967 24.3156 106.026 24.3592C106.086 24.4028 106.134 24.4599 106.166 24.5258C106.199 24.5916 106.216 24.6643 106.215 24.7379L106.168 27.851C106.168 27.8818 106.162 27.9122 106.15 27.9404C106.137 27.9687 106.12 27.9942 106.097 28.0153C106.075 28.0365 106.049 28.0529 106.02 28.0636C105.991 28.0742 105.96 28.0788 105.93 28.0772L105.775 28.0713C105.541 28.0594 105.426 27.9364 105.43 27.7022L105.459 25.482C105.461 25.413 105.447 25.3445 105.42 25.2809C105.393 25.2174 105.353 25.1602 105.303 25.1131C105.252 25.066 105.192 25.03 105.127 25.0074C105.062 24.9848 104.993 24.9762 104.924 24.982L104.162 25.0475C103.9 25.0673 103.771 25.2102 103.775 25.476L103.805 27.7499C103.809 28.0554 103.666 28.1705 103.376 28.0951L103.221 28.0594C103.106 28.0276 103.049 27.9522 103.049 27.8332L103.067 25.4284C103.071 25.1387 102.928 25.0098 102.638 25.0415L101.811 25.1368C101.628 25.1566 101.539 25.2598 101.543 25.4463L101.584 27.6665C101.588 27.8927 101.477 28.0038 101.251 27.9999H101.043C100.888 27.9999 100.815 27.9225 100.823 27.7677C100.862 27.0256 100.872 26.2895 100.852 25.5594C100.848 25.3927 100.785 25.2518 100.662 25.1368C100.614 25.0891 100.557 25.0574 100.489 25.0415C100.132 24.9582 100.035 25.0792 100.198 25.4046ZM99.7452 26.2796C99.7452 25.9544 99.616 25.6425 99.386 25.4126C99.1561 25.1826 98.8442 25.0534 98.519 25.0534C98.1938 25.0534 97.8819 25.1826 97.652 25.4126C97.422 25.6425 97.2928 25.9544 97.2928 26.2796C97.2928 26.6048 97.422 26.9167 97.652 27.1467C97.8819 27.3766 98.1938 27.5058 98.519 27.5058C98.8442 27.5058 99.1561 27.3766 99.386 27.1467C99.616 26.9167 99.7452 26.6048 99.7452 26.2796Z" fill="#9C9B9C"/>
<path d="M78.5368 24.5653C78.7471 24.3749 78.9912 24.2915 79.269 24.3153C80.9535 24.4403 80.7451 26.7558 80.519 27.8987C80.4832 28.0852 80.3741 28.1507 80.1916 28.0951L80.0309 28.0475C79.9777 28.032 79.9309 27.9993 79.8977 27.9542C79.8644 27.9091 79.8464 27.8541 79.8463 27.7975V25.5058C79.8463 25.2519 79.7194 25.109 79.4654 25.0772C79.1479 25.0376 78.8305 25.0872 78.513 25.2261C78.3066 25.3173 78.2035 25.4741 78.2035 25.6963L78.1916 27.8213C78.1916 27.8913 78.1642 27.9586 78.1152 28.0086C78.0663 28.0587 77.9997 28.0876 77.9297 28.0892L77.7332 28.0951C77.6966 28.0968 77.66 28.0907 77.6257 28.0773C77.5915 28.0639 77.5602 28.0435 77.534 28.0172C77.5078 27.991 77.4871 27.9596 77.4732 27.9248C77.4594 27.8901 77.4527 27.8528 77.4535 27.8153C77.5011 26.4582 77.5011 25.111 77.4535 23.7737C77.4495 23.6189 77.4793 23.4681 77.5428 23.3213C77.5983 23.1983 77.6955 23.1328 77.8344 23.1249C77.9034 23.1215 77.9714 23.1422 78.0268 23.1835C78.0822 23.2247 78.1215 23.284 78.138 23.3511C78.2174 23.6765 78.2372 24.0237 78.1975 24.3927C78.1618 24.738 78.2749 24.7955 78.5368 24.5653Z" fill="#9C9B9C"/>
<path d="M105.537 23.2857C105.604 23.2103 105.686 23.1528 105.781 23.1131C105.967 23.0298 106.071 23.0893 106.09 23.2917L106.12 23.5595C106.144 23.7897 106.041 23.8929 105.811 23.8691C105.656 23.8532 105.497 23.8076 105.334 23.7322C105.312 23.7224 105.291 23.708 105.274 23.6901C105.257 23.6722 105.244 23.651 105.235 23.6281C105.227 23.6051 105.223 23.5808 105.225 23.5567C105.227 23.5326 105.234 23.5092 105.245 23.4881C105.269 23.4405 105.309 23.4088 105.364 23.3929C105.432 23.373 105.489 23.3373 105.537 23.2857Z" fill="#9C9B9C"/>
<path d="M119.525 24.5061L119.947 24.4882C120.098 24.4803 120.229 24.522 120.34 24.6132C120.404 24.6648 120.428 24.7263 120.412 24.7978C120.384 24.9327 120.307 25.0259 120.18 25.0775C120.029 25.1371 119.874 25.1648 119.715 25.1609C119.509 25.1609 119.406 25.264 119.406 25.4704L119.43 27.7085C119.434 27.9069 119.334 28.0061 119.132 28.0061L118.9 28.0001C118.845 28.0001 118.792 27.9776 118.752 27.9374C118.713 27.8972 118.691 27.8427 118.691 27.7859L118.709 25.4347C118.713 25.2045 118.604 25.0676 118.382 25.024C118.291 25.0041 118.201 25.0279 118.114 25.0954C118.076 25.125 118.049 25.1664 118.036 25.2135C118.023 25.2606 118.025 25.311 118.043 25.3573C118.894 27.5121 116.62 29.1906 114.93 27.5656C113.34 26.0418 115.513 23.274 117.596 24.8037C117.759 24.9228 117.922 24.9228 118.084 24.8037C118.445 24.5418 118.682 24.2164 118.793 23.8275C118.852 23.6093 118.975 23.4347 119.162 23.3037C119.495 23.0656 119.824 23.0378 120.15 23.2204C120.566 23.4466 120.543 23.6113 120.078 23.7144C119.781 23.7819 119.539 23.9307 119.352 24.1609C119.327 24.1933 119.311 24.2325 119.307 24.2737C119.302 24.3148 119.31 24.3562 119.328 24.3927C119.346 24.4292 119.375 24.4594 119.409 24.4795C119.444 24.4996 119.484 24.5089 119.525 24.5061ZM117.602 26.2799C117.602 25.9547 117.473 25.6428 117.243 25.4129C117.013 25.1829 116.701 25.0537 116.376 25.0537C116.051 25.0537 115.739 25.1829 115.509 25.4129C115.279 25.6428 115.15 25.9547 115.15 26.2799C115.15 26.6051 115.279 26.917 115.509 27.147C115.739 27.3769 116.051 27.5061 116.376 27.5061C116.701 27.5061 117.013 27.3769 117.243 27.147C117.473 26.917 117.602 26.6051 117.602 26.2799Z" fill="#9C9B9C"/>
<path d="M141.984 23.9091C142.232 23.8595 142.398 23.6442 142.355 23.4283C142.312 23.2123 142.076 23.0774 141.828 23.127C141.579 23.1766 141.413 23.3919 141.456 23.6079C141.499 23.8239 141.736 23.9587 141.984 23.9091Z" fill="#9C9B9C"/>
<path d="M62.1499 24.5593C62.4991 24.7101 62.5983 24.6109 62.4475 24.2617C62.2531 23.8172 62.3404 23.4839 62.7095 23.2617C62.7543 23.2344 62.8055 23.2194 62.858 23.2183C62.9104 23.2172 62.9623 23.23 63.0082 23.2554C63.0541 23.2808 63.0925 23.3179 63.1195 23.3629C63.1465 23.4079 63.1611 23.4592 63.1618 23.5117L63.1678 27.7736C63.1678 27.9799 63.0666 28.0633 62.8642 28.0236C62.7928 28.0117 62.7392 27.972 62.7035 27.9045C62.5686 27.6466 62.394 27.6149 62.1797 27.8093C60.5725 29.2855 58.6737 26.4938 59.9892 24.9283C60.517 24.2974 61.2372 24.1744 62.1499 24.5593ZM62.4422 25.9123C62.4426 25.674 62.3483 25.4452 62.1801 25.2764C62.0118 25.1075 61.7834 25.0124 61.545 25.012L61.2236 25.0114C61.1055 25.0112 60.9886 25.0342 60.8795 25.0792C60.7703 25.1242 60.6711 25.1902 60.5875 25.2735C60.5039 25.3568 60.4375 25.4558 60.3922 25.5648C60.3468 25.6738 60.3233 25.7906 60.3231 25.9086L60.3219 26.6229C60.3215 26.8613 60.4158 27.0901 60.5841 27.2589C60.7523 27.4278 60.9808 27.5229 61.2192 27.5233L61.5406 27.5239C61.6586 27.5241 61.7755 27.5011 61.8847 27.4561C61.9938 27.4111 62.093 27.3451 62.1766 27.2617C62.2602 27.1784 62.3266 27.0795 62.372 26.9705C62.4173 26.8615 62.4408 26.7447 62.441 26.6266L62.4422 25.9123Z" fill="#9C9B9C"/>
<path d="M124.953 25.3335C125.477 24.3058 126.273 24.0677 127.34 24.6193C127.59 24.7502 127.703 24.6748 127.68 24.3931L127.602 23.4943C127.582 23.2998 127.672 23.2105 127.87 23.2264L128.102 23.2502C128.167 23.2547 128.228 23.2837 128.272 23.3312C128.316 23.3787 128.341 23.4413 128.34 23.5062L128.388 27.6014C128.388 27.6344 128.376 27.6663 128.356 27.6922C128.335 27.718 128.307 27.7364 128.275 27.7443L126.519 28.1728C126.34 28.2125 126.168 28.1966 126.001 28.1252C125.382 27.8554 124.955 27.3871 124.721 26.7205C124.646 26.5141 124.501 26.4129 124.287 26.4169L122.156 26.4526C122.107 26.4533 122.059 26.4668 122.017 26.4919C121.974 26.517 121.939 26.5528 121.915 26.5958C121.89 26.6389 121.877 26.6877 121.877 26.7377C121.876 26.7877 121.888 26.8371 121.912 26.8812C122.194 27.3891 122.616 27.5935 123.18 27.4943C123.331 27.4673 123.47 27.3946 123.578 27.2859C123.797 27.0597 124.047 26.907 124.328 26.8276C124.618 26.7482 124.692 26.8415 124.549 27.1074C123.114 29.6847 120.084 27.2205 121.453 25.0955C122.215 23.905 123.876 24.2085 124.477 25.3335C124.64 25.6351 124.799 25.6351 124.953 25.3335ZM123.805 25.4228C123.237 24.8871 122.705 24.8276 122.209 25.2443C121.701 25.6689 121.779 25.8851 122.442 25.8931L123.614 25.905C123.67 25.9044 123.724 25.8873 123.77 25.8558C123.816 25.8243 123.851 25.7798 123.872 25.728C123.892 25.6763 123.897 25.6196 123.885 25.5652C123.873 25.5108 123.845 25.4613 123.805 25.4228ZM127.65 25.9783C127.651 25.8478 127.625 25.7185 127.575 25.5978C127.526 25.4771 127.453 25.3674 127.36 25.2749C127.268 25.1824 127.159 25.109 127.038 25.0589C126.918 25.0087 126.789 24.9828 126.658 24.9825L126.479 24.9822C126.349 24.982 126.22 25.0074 126.099 25.0572C125.978 25.1069 125.869 25.18 125.776 25.2721C125.684 25.3643 125.61 25.4737 125.56 25.5942C125.51 25.7147 125.484 25.844 125.484 25.9745L125.483 26.5102C125.483 26.6408 125.508 26.7701 125.558 26.8908C125.608 27.0114 125.681 27.1212 125.773 27.2136C125.865 27.3061 125.974 27.3795 126.095 27.4297C126.215 27.4798 126.345 27.5058 126.475 27.506L126.654 27.5063C126.784 27.5066 126.913 27.4811 127.034 27.4313C127.155 27.3816 127.265 27.3086 127.357 27.2164C127.45 27.1243 127.523 27.0148 127.573 26.8943C127.623 26.7738 127.649 26.6446 127.649 26.514L127.65 25.9783Z" fill="#9C9B9C"/>
<path d="M140.495 25.0655C140.442 25.0613 140.389 25.0683 140.339 25.0859C140.289 25.1036 140.243 25.1315 140.204 25.168C140.165 25.2044 140.135 25.2485 140.114 25.2975C140.094 25.3465 140.083 25.3992 140.084 25.4524L140.09 26.9702C140.091 27.0221 140.102 27.0732 140.123 27.1207C140.144 27.1681 140.174 27.2109 140.212 27.2464C140.25 27.282 140.294 27.3096 140.343 27.3276C140.392 27.3456 140.443 27.3536 140.495 27.3512L141.061 27.3274C141.342 27.3155 141.446 27.4464 141.37 27.7202C141.315 27.9306 141.172 28.0536 140.942 28.0893C139.733 28.2738 139.168 27.4107 139.4 26.3036C139.531 25.6925 139.38 25.2341 138.948 24.9286C138.914 24.9048 138.886 24.873 138.868 24.8361C138.85 24.7992 138.84 24.7583 138.842 24.717C138.843 24.6758 138.854 24.6354 138.875 24.5997C138.895 24.5639 138.924 24.5337 138.959 24.5119C139.289 24.3056 139.446 24.0099 139.43 23.625C139.422 23.4663 139.493 23.3631 139.644 23.3155C139.708 23.2956 139.771 23.2917 139.834 23.3036C139.985 23.3274 140.065 23.4167 140.073 23.5714L140.096 24C140.101 24.1016 140.145 24.1972 140.22 24.2663C140.295 24.3354 140.394 24.3723 140.495 24.369L141.9 24.3452C142.217 24.3413 142.37 24.496 142.358 24.8095C142.323 25.6151 142.309 26.3869 142.317 27.125C142.333 28.4544 142.124 28.4901 141.692 27.2321C141.529 26.756 141.525 26.2183 141.68 25.619C141.694 25.5648 141.696 25.5081 141.686 25.4529C141.676 25.3977 141.654 25.3454 141.622 25.2995C141.589 25.2537 141.547 25.2154 141.499 25.1873C141.45 25.1592 141.396 25.142 141.34 25.1369L140.495 25.0655Z" fill="#9C9B9C"/>
<path d="M50.6142 26.4406C50.9793 25.8612 51.5587 25.6291 52.3523 25.7442C52.515 25.768 52.6023 25.6966 52.6142 25.5299L52.6262 25.3394C52.6286 25.3131 52.6257 25.2866 52.6177 25.2615C52.6097 25.2363 52.5966 25.2131 52.5794 25.1931C52.5622 25.1731 52.5411 25.1567 52.5174 25.1451C52.4938 25.1334 52.468 25.1266 52.4416 25.1251L51.0131 25.0478C50.9641 25.0448 50.9179 25.0236 50.8838 24.9884C50.8496 24.9531 50.8299 24.9063 50.8285 24.8573L50.8166 24.6013C50.8127 24.5259 50.8464 24.4803 50.9178 24.4644C53.3702 23.9287 53.769 25.5894 53.3881 27.5299C53.3523 27.7085 53.4258 27.7858 53.6083 27.762L53.8642 27.7323C53.9634 27.7204 54.0131 27.6628 54.0131 27.5597L53.9595 24.7204C53.9555 24.4704 54.0627 24.4069 54.2809 24.5299C54.3523 24.5735 54.4059 24.637 54.4416 24.7204C54.4892 24.8394 54.5607 24.8573 54.6559 24.7739C55.3067 24.1946 55.9218 24.1866 56.5011 24.7501C56.6599 24.9009 56.8226 24.9089 56.9892 24.7739C57.8345 24.0954 58.5547 24.2025 59.15 25.0954C59.2381 25.2292 59.2741 25.3882 59.2511 25.5418C59.1718 26.1053 59.2055 26.6688 59.3523 27.2323C59.4079 27.4624 59.3623 27.6708 59.2154 27.8573C59.144 27.9485 59.0488 28.0041 58.9297 28.0239C58.6956 28.0636 58.5785 27.9644 58.5785 27.7263L58.5845 25.762C58.5845 25.2938 58.3504 25.0616 57.8821 25.0656H57.6559C57.2313 25.0656 57.019 25.2779 57.019 25.7025L57.025 27.8275C57.025 28.0339 56.9238 28.1192 56.7214 28.0835L56.519 28.0478C56.3047 28.012 56.1976 27.887 56.1976 27.6728L56.2154 25.7382C56.2154 25.3612 56.0329 25.141 55.6678 25.0775C55.5726 25.0577 55.4773 25.0557 55.3821 25.0716C54.9297 25.1549 54.7015 25.4267 54.6976 25.887L54.6916 27.7025C54.6916 27.9565 54.5666 28.0656 54.3166 28.0299C53.4158 27.9029 52.5309 27.9426 51.6619 28.1489C51.4515 28.2005 51.2611 28.1608 51.0904 28.0299C50.8841 27.8791 50.7075 27.6966 50.5607 27.4823C50.3702 27.2045 50.2551 27.2323 50.2154 27.5656C50.1956 27.7481 50.1202 27.8989 49.9892 28.018C49.9458 28.059 49.8912 28.0863 49.8323 28.0964C49.7734 28.1065 49.7128 28.0991 49.6582 28.0749C49.6035 28.0508 49.5572 28.011 49.525 27.9606C49.4929 27.9103 49.4763 27.8515 49.4773 27.7918L49.5012 25.6132C49.5051 25.1331 49.273 24.9466 48.8047 25.0537L48.4714 25.1311C48.0309 25.2303 47.8146 25.5061 47.8226 25.9585L47.8523 27.7918C47.8523 27.9942 47.7531 28.0954 47.5547 28.0954H47.394C47.3638 28.0962 47.3337 28.0909 47.3056 28.0799C47.2775 28.0689 47.2518 28.0523 47.2302 28.0313C47.2086 28.0102 47.1914 27.985 47.1796 27.9571C47.1679 27.9293 47.1619 27.8994 47.1619 27.8692L47.1678 24.7561C47.1678 24.5577 47.265 24.4505 47.4595 24.4347C47.5349 24.4267 47.5885 24.4485 47.6202 24.5001C47.7472 24.7184 47.9178 24.7561 48.1321 24.6132C49.144 23.9287 50.1321 24.5358 50.1976 25.6608C50.2095 25.891 50.2254 26.1192 50.2452 26.3454C50.273 26.7541 50.396 26.7858 50.6142 26.4406ZM52.65 27.1608C52.8285 26.7799 52.769 26.5497 52.4714 26.4704C51.8246 26.2958 51.3821 26.4228 51.144 26.8513C51.017 27.0735 51.0607 27.2541 51.275 27.393C51.5726 27.5835 51.894 27.6271 52.2392 27.5239C52.3294 27.4956 52.4125 27.4487 52.4833 27.3861C52.554 27.3236 52.6108 27.2468 52.65 27.1608Z" fill="#9C9B9C"/>
<path d="M67.388 26.262C67.388 26.7719 67.1854 27.2609 66.8248 27.6215C66.4643 27.982 65.9753 28.1846 65.4653 28.1846C65.2129 28.1846 64.9629 28.1349 64.7296 28.0382C64.4963 27.9416 64.2844 27.8 64.1058 27.6215C63.9273 27.4429 63.7857 27.231 63.6891 26.9977C63.5925 26.7645 63.5427 26.5145 63.5427 26.262C63.5427 26.0095 63.5925 25.7595 63.6891 25.5262C63.7857 25.293 63.9273 25.081 64.1058 24.9025C64.2844 24.7239 64.4963 24.5823 64.7296 24.4857C64.9629 24.3891 65.2129 24.3394 65.4653 24.3394C65.9753 24.3394 66.4643 24.5419 66.8248 24.9025C67.1854 25.263 67.388 25.7521 67.388 26.262ZM66.6915 26.2739C66.6915 25.9487 66.5623 25.6368 66.3324 25.4068C66.1024 25.1769 65.7906 25.0477 65.4653 25.0477C65.1401 25.0477 64.8283 25.1769 64.5983 25.4068C64.3683 25.6368 64.2392 25.9487 64.2392 26.2739C64.2392 26.5991 64.3683 26.911 64.5983 27.1409C64.8283 27.3709 65.1401 27.5001 65.4653 27.5001C65.7906 27.5001 66.1024 27.3709 66.3324 27.1409C66.5623 26.911 66.6915 26.5991 66.6915 26.2739Z" fill="#9C9B9C"/>
<path d="M86.7869 27.2321L86.8464 24.7975C86.8504 24.6031 86.9436 24.4702 87.1262 24.3987L87.2809 24.3333C87.5468 24.2301 87.6777 24.3194 87.6738 24.6011L87.6619 27.7083C87.6579 28.0813 87.4932 28.1765 87.1678 27.994C86.8901 27.8392 86.6182 27.8571 86.3524 28.0475C86.146 28.1944 85.9178 28.236 85.6678 28.1725C84.8623 27.9741 84.4912 27.4225 84.5547 26.5178C84.5865 26.0852 84.4119 25.9721 84.0309 26.1785C83.4952 26.4642 82.89 26.5416 82.2154 26.4106C82.1537 26.3985 82.0898 26.4018 82.0297 26.4203C81.9695 26.4388 81.9148 26.472 81.8706 26.5168C81.8264 26.5616 81.794 26.6167 81.7762 26.6771C81.7585 26.7375 81.756 26.8014 81.769 26.863C81.8127 27.0733 81.9297 27.2301 82.1202 27.3333C82.8067 27.7182 83.3345 27.5773 83.7035 26.9106C83.7631 26.8035 83.8464 26.7817 83.9535 26.8452C84.1877 26.9841 84.1143 27.3035 83.7333 27.8035C83.663 27.8974 83.5689 27.9731 83.4595 28.0237C81.0369 29.2321 79.8583 24.6785 82.4 24.3511C83.2055 24.2479 83.7889 24.5495 84.15 25.2559C84.3722 25.6924 84.4813 25.6666 84.4774 25.1785C84.4774 25.0396 84.5111 24.9166 84.5785 24.8094C85.0944 24.0158 85.3365 24.0932 85.3047 25.0416C85.2809 25.7479 85.3186 26.4483 85.4178 27.1428C85.4456 27.3531 85.5647 27.4642 85.775 27.4761L86.4833 27.5118C86.6817 27.5237 86.7829 27.4305 86.7869 27.2321ZM82.4535 24.9225C82.1877 24.9821 81.9992 25.1309 81.8881 25.369C81.7293 25.7142 81.8405 25.8888 82.2214 25.8928L83.2155 25.8987C83.4694 25.9027 83.5627 25.7817 83.4952 25.5356C83.4198 25.2777 83.2611 25.0912 83.019 24.9761C82.8365 24.8928 82.648 24.8749 82.4535 24.9225Z" fill="#9C9B9C"/>
<path d="M89.1319 24.6966C90.0902 23.8871 91.1557 24.4644 91.2629 25.6013C91.3422 26.4188 91.3442 27.1748 91.2688 27.8692C91.2617 27.9291 91.2337 27.9844 91.1899 28.0249C91.1461 28.0654 91.0896 28.0883 91.0307 28.0894H90.8224C90.6478 28.0894 90.5605 28.0021 90.5605 27.8275L90.5664 25.6073C90.5664 25.1311 90.3343 24.9466 89.87 25.0537L89.62 25.1133C89.1319 25.2244 88.8898 25.5299 88.8938 26.0299L88.9117 27.8216C88.9118 27.8824 88.8913 27.9415 88.8534 27.9891C88.8156 28.0367 88.7626 28.07 88.7033 28.0835C88.497 28.1311 88.3482 28.0835 88.2569 27.9406C88.2331 27.9049 88.2212 27.8633 88.2212 27.8156L88.2569 24.7799C88.2609 24.4704 88.4077 24.3633 88.6974 24.4585C88.7688 24.4783 88.8164 24.5279 88.8402 24.6073C88.8491 24.636 88.8649 24.6621 88.8862 24.6833C88.9075 24.7046 88.9337 24.7203 88.9625 24.7291C88.9912 24.7379 89.0217 24.7395 89.0512 24.7338C89.0807 24.7282 89.1084 24.7154 89.1319 24.6966Z" fill="#9C9B9C"/>
<path d="M94.2987 27.7857L93.7987 28C93.6201 28.0754 93.4336 28.0953 93.2391 28.0596C90.3463 27.5298 91.7511 23.0834 94.382 24.6667C94.636 24.8175 94.8265 24.76 94.9534 24.4941C94.9772 24.4465 95.0348 24.4306 95.1261 24.4465C95.257 24.4703 95.3205 24.5476 95.3165 24.6786L95.2808 28.0238C95.2769 28.2778 95.1935 28.502 95.0308 28.6965C94.4157 29.4385 93.5685 29.6528 92.4892 29.3393C92.3741 29.3036 92.3344 29.2282 92.3701 29.1131L92.4237 28.9405C92.4455 28.8657 92.4964 28.8026 92.5654 28.7648C92.6344 28.7269 92.716 28.7174 92.7927 28.7381C93.6062 28.9524 94.1995 28.7361 94.5725 28.0893C94.7868 27.7163 94.6955 27.6151 94.2987 27.7857ZM93.512 27.4047C93.6558 27.4035 93.798 27.3697 93.9303 27.3055C94.0626 27.2412 94.1825 27.1476 94.2832 27.0301C94.3839 26.9126 94.4634 26.7735 94.5171 26.6206C94.5708 26.4677 94.5977 26.3042 94.5962 26.1393C94.5933 25.8062 94.4751 25.4878 94.2677 25.254C94.0603 25.0203 93.7806 24.8904 93.4901 24.8929C93.3463 24.8942 93.2041 24.9279 93.0718 24.9922C92.9395 25.0565 92.8196 25.15 92.7189 25.2676C92.6182 25.3851 92.5388 25.5242 92.485 25.6771C92.4313 25.8299 92.4044 25.9935 92.4059 26.1584C92.4088 26.4915 92.527 26.8099 92.7344 27.0436C92.9418 27.2774 93.2216 27.4073 93.512 27.4047Z" fill="#9C9B9C"/>
<path d="M110.239 25.3752C110.87 23.5836 113.281 24.1729 113.459 26.0598C113.464 26.1007 113.46 26.1422 113.448 26.1817C113.436 26.2212 113.415 26.2577 113.388 26.2891C113.361 26.3204 113.327 26.3458 113.289 26.3638C113.251 26.3817 113.21 26.3917 113.168 26.3931L111.174 26.4645C110.932 26.4725 110.808 26.5955 110.805 26.8336C110.805 26.9248 110.83 27.0121 110.882 27.0955C110.969 27.2423 111.094 27.3455 111.257 27.405C111.88 27.6312 112.433 27.4467 112.918 26.8514C113.025 26.7205 113.152 26.6987 113.299 26.786C113.35 26.8177 113.382 26.8673 113.394 26.9348C113.406 26.9903 113.398 27.0419 113.37 27.0895C112.668 28.4467 110.852 28.7502 110.299 27.1252C110.223 26.8951 110.09 26.8594 109.9 27.0181C109.832 27.0776 109.82 27.1471 109.864 27.2264C109.892 27.278 109.888 27.3276 109.852 27.3752C107.662 30.0181 104.989 25.7383 107.531 24.5657C108.614 24.0657 109.414 24.3415 109.93 25.3931C110.045 25.6272 110.148 25.6213 110.239 25.3752ZM112.608 25.5419C112.275 24.7383 111.287 24.7026 110.882 25.4586C110.727 25.7364 110.808 25.8772 111.126 25.8812L112.364 25.8991C112.626 25.903 112.707 25.784 112.608 25.5419ZM108.037 25.0776C107.676 25.1173 107.459 25.3117 107.388 25.661C107.174 26.6729 107.404 27.2959 108.078 27.53C108.404 27.6411 108.687 27.5776 108.93 27.3395L109.906 26.3931C110.064 26.2383 110.045 26.1153 109.846 26.0241C109.533 25.8733 109.277 25.659 109.078 25.3812C108.892 25.1193 108.64 25.0062 108.322 25.0419L108.037 25.0776Z" fill="#9C9B9C"/>
<path d="M130.953 27.976C130.334 28.3411 129.765 28.2538 129.245 27.7141C129.084 27.5456 128.995 27.3218 128.995 27.0891V24.601C128.995 24.5018 129.045 24.4383 129.144 24.4105L129.287 24.3748C129.328 24.3638 129.371 24.3623 129.413 24.3703C129.455 24.3783 129.495 24.3956 129.529 24.4209C129.562 24.4462 129.59 24.4788 129.609 24.5162C129.628 24.5536 129.638 24.5948 129.638 24.6367L129.68 27.0772C129.684 27.4105 129.85 27.5613 130.18 27.5295L130.489 27.4998C130.993 27.4522 131.237 27.1764 131.221 26.6724L131.174 24.845C131.17 24.7311 131.209 24.6198 131.284 24.5329C131.359 24.4459 131.464 24.3896 131.578 24.3748L131.745 24.351C131.788 24.3455 131.832 24.3497 131.874 24.3634C131.915 24.3772 131.953 24.4 131.984 24.4303C132.016 24.4605 132.04 24.4975 132.055 24.5384C132.071 24.5792 132.076 24.623 132.072 24.6665C131.989 25.6942 131.995 26.6903 132.09 27.6545C132.114 27.9244 131.989 28.0633 131.715 28.0712C131.696 28.0712 131.678 28.0653 131.662 28.0534C131.447 27.851 131.211 27.8252 130.953 27.976Z" fill="#9C9B9C"/>
<path d="M137.733 25.7442C137.991 25.7641 138.053 25.6629 137.918 25.4407L137.751 25.1728C137.738 25.1532 137.721 25.1373 137.701 25.1268C137.681 25.1163 137.659 25.1116 137.638 25.1133C137.166 25.1688 136.733 25.1192 136.34 24.9645C135.963 24.8137 135.953 24.643 136.311 24.4526C136.87 24.1589 137.467 24.2323 138.102 24.6728C139.013 25.3097 138.769 26.7561 138.793 27.7204C138.797 27.9942 138.674 28.0756 138.424 27.9645L138.257 27.893C138.172 27.8561 138.081 27.8396 137.989 27.8448C137.898 27.8499 137.811 27.8767 137.733 27.9228C137.059 28.3196 136.451 28.2303 135.912 27.6549C135.769 27.5002 135.604 27.4704 135.418 27.5657C135.307 27.6212 135.215 27.6966 135.144 27.7918C135.029 27.9506 134.878 28.0577 134.691 28.1133C133.922 28.3395 133.297 28.1787 132.816 27.6311C131.227 25.8276 133.311 23.274 135.358 24.8097C135.489 24.9099 135.583 25.0479 135.626 25.2026C135.753 25.6391 135.684 25.8593 135.418 25.8633C135.275 25.8672 135.166 25.8077 135.09 25.6847C134.697 25.0299 134.162 24.8633 133.483 25.1847C133.293 25.276 133.178 25.4268 133.138 25.6371C133.055 26.1133 133.078 26.5617 133.209 26.9823C133.247 27.1056 133.313 27.2186 133.401 27.3124C133.49 27.4063 133.599 27.4784 133.72 27.5233C133.841 27.5682 133.97 27.5847 134.098 27.5714C134.227 27.5581 134.35 27.5154 134.459 27.4466C135.644 26.7085 136.138 25.6252 137.733 25.7442ZM138.031 26.6966C138.094 26.4625 138.007 26.3593 137.769 26.3871L136.781 26.4883C136.527 26.516 136.372 26.653 136.316 26.899C136.297 26.9823 136.301 27.0657 136.328 27.149C136.384 27.3315 136.501 27.4466 136.68 27.4942C137.386 27.6887 137.836 27.4228 138.031 26.6966Z" fill="#9C9B9C"/>
<path d="M146.543 26.262C146.543 26.7719 146.34 27.2609 145.98 27.6215C145.619 27.982 145.13 28.1846 144.62 28.1846C144.11 28.1846 143.621 27.982 143.261 27.6215C142.9 27.2609 142.698 26.7719 142.698 26.262C142.698 25.7521 142.9 25.263 143.261 24.9025C143.621 24.5419 144.11 24.3394 144.62 24.3394C145.13 24.3394 145.619 24.5419 145.98 24.9025C146.34 25.263 146.543 25.7521 146.543 26.262ZM145.852 26.2739C145.852 25.9487 145.723 25.6368 145.493 25.4068C145.263 25.1769 144.951 25.0477 144.626 25.0477C144.301 25.0477 143.989 25.1769 143.759 25.4068C143.529 25.6368 143.4 25.9487 143.4 26.2739C143.4 26.5991 143.529 26.911 143.759 27.1409C143.989 27.3709 144.301 27.5001 144.626 27.5001C144.951 27.5001 145.263 27.3709 145.493 27.1409C145.723 26.911 145.852 26.5991 145.852 26.2739Z" fill="#9C9B9C"/>
<path d="M147.561 24.7083C148.255 24.24 148.886 24.2083 149.453 24.613C149.586 24.7089 149.694 24.8344 149.769 24.9793C149.843 25.1242 149.882 25.2842 149.882 25.4464V27.8571C149.882 27.8973 149.873 27.937 149.854 27.9729C149.836 28.0088 149.81 28.0399 149.777 28.0637C149.745 28.0875 149.707 28.1032 149.667 28.1097C149.628 28.1162 149.587 28.1133 149.549 28.1011L149.382 28.0476C149.339 28.0338 149.302 28.0068 149.275 27.9705C149.248 27.9341 149.234 27.8903 149.233 27.8452L149.227 25.744C149.227 25.2519 148.981 25.0218 148.489 25.0535L148.275 25.0654C148.072 25.0802 147.882 25.1702 147.742 25.3178C147.602 25.4653 147.523 25.6598 147.519 25.863L147.501 27.9404C147.501 28.0277 147.457 28.0714 147.37 28.0714H147.168C146.93 28.0674 146.811 27.9464 146.811 27.7083L146.816 24.7321C146.82 24.4226 146.94 24.369 147.174 24.5714L147.311 24.6904C147.39 24.7579 147.473 24.7638 147.561 24.7083Z" fill="#9C9B9C"/>
<path d="M53.9641 13.618L53.0931 14.944C51.7931 14.528 50.8961 13.683 50.3761 12.63C49.8431 13.787 48.9071 14.71 47.5291 15.165L46.6321 13.826C48.5821 13.189 49.4271 11.694 49.4661 10.212H47.0871V8.847H53.5611V10.212H51.2211C51.2601 11.59 52.0791 13.007 53.9641 13.618ZM48.2441 17.258V15.893H56.2391V20.131H54.5231V17.258H48.2441ZM57.8251 11.031V12.448H56.2391V15.36H54.5231V8.145H56.2391V11.031H57.8251ZM64.1811 9.848C62.5821 9.848 61.6201 10.238 61.6201 10.966C61.6201 11.707 62.5821 12.071 64.1811 12.071C65.7931 12.071 66.7551 11.707 66.7551 10.966C66.7551 10.238 65.7931 9.848 64.1811 9.848ZM64.1811 13.436C61.5811 13.436 59.8521 12.487 59.8521 10.966C59.8521 9.445 61.5811 8.496 64.1811 8.496C66.7941 8.496 68.5231 9.445 68.5231 10.966C68.5231 12.487 66.7941 13.436 64.1811 13.436ZM61.8021 16.426V18.545H68.3801V19.91H60.0861V16.426H61.8021ZM58.7731 14.255H69.5891V15.62H58.7731V14.255ZM77.7781 9.198V10.55H70.7321V9.198H73.3841V8.08H75.1131V9.198H77.7781ZM72.9551 13.124C72.9551 13.735 73.4751 14.034 74.2551 14.034C75.0221 14.034 75.5551 13.735 75.5551 13.124C75.5551 12.526 75.0221 12.227 74.2551 12.227C73.4751 12.227 72.9551 12.526 72.9551 13.124ZM77.1931 13.124C77.1931 14.437 75.9841 15.334 74.2551 15.334C72.5391 15.334 71.3171 14.437 71.3171 13.124C71.3171 11.824 72.5391 10.927 74.2551 10.927C75.9841 10.927 77.1931 11.824 77.1931 13.124ZM72.1751 17.518V16.14H80.1571V20.131H78.4411V17.518H72.1751ZM81.7431 11.226V12.643H80.1571V15.646H78.4411V8.158H80.1571V11.226H81.7431ZM92.1421 15.867L90.4261 15.698C90.8161 13.527 90.8291 11.915 90.8291 10.537H83.7441V9.172H92.5451V10.329C92.5451 11.798 92.5451 13.449 92.1421 15.867ZM89.6071 17.297H93.5331V18.675H82.6911V17.297H84.9661V13.514H86.6561V17.297H87.9301V13.514H89.6071V17.297Z" fill="black"/>
</g>
<defs>
<clipPath id="clip0_67_15">
<rect width="150" height="29.7619" fill="white" transform="translate(0.745117 3)"/>
</clipPath>
</defs>
</svg>
