<svg width="161" height="43" viewBox="0 0 161 43" fill="none" xmlns="http://www.w3.org/2000/svg">
<path d="M12.564 31.036C11.892 31.036 11.424 30.688 11.16 29.992C10.896 29.296 10.68 28.36 10.512 27.184L10.404 26.284C10.044 24.364 9.756 22.456 9.54 20.56C9.324 18.64 9.108 16.324 8.892 13.612L8.676 10.948C7.236 10.972 5.184 10.912 2.52 10.768L1.8 10.732C1.464 10.708 1.224 10.552 1.08 10.264C0.96 9.952 0.9 9.532 0.9 9.004H3.384C7.56 9.004 11.328 9.16 14.688 9.472C18.048 9.784 19.728 10.42 19.728 11.38C19.728 11.644 19.68 11.824 19.584 11.92C19.512 12.016 19.344 12.064 19.08 12.064C18.12 11.992 16.632 11.788 14.616 11.452C14.16 11.38 13.608 11.296 12.96 11.2C12.312 11.104 11.58 11.008 10.764 10.912C10.764 14.392 11.28 19.744 12.312 26.968C12.36 27.328 12.528 27.844 12.816 28.516C12.936 28.804 13.044 29.116 13.14 29.452C13.26 29.764 13.32 30.052 13.32 30.316C13.32 30.652 13.272 30.856 13.176 30.928C13.08 31 12.96 31.036 12.816 31.036C12.696 31.036 12.612 31.036 12.564 31.036ZM30.5727 31C29.0367 31 27.6207 30.7 26.3247 30.1C25.0287 29.5 23.9967 28.648 23.2287 27.544C22.4607 26.44 22.0767 25.168 22.0767 23.728C22.0767 22.12 22.3767 20.62 22.9767 19.228C23.5767 17.812 24.4527 16.684 25.6047 15.844C26.7807 14.98 28.1487 14.548 29.7087 14.548C31.3407 14.548 32.5767 15.076 33.4167 16.132C34.2567 17.164 34.6527 18.472 34.6047 20.056C34.6047 21.472 34.0407 22.552 32.9127 23.296C31.8087 24.04 30.3927 24.412 28.6647 24.412C28.4007 24.412 28.0047 24.388 27.4767 24.34C26.6127 24.244 26.0007 24.112 25.6407 23.944C25.2807 23.776 25.1007 23.44 25.1007 22.936C25.1007 22.768 25.1487 22.648 25.2447 22.576C25.3407 22.48 25.5327 22.432 25.8207 22.432C26.1327 22.432 26.6847 22.504 27.4767 22.648C28.2447 22.792 28.9287 22.864 29.5287 22.864C31.7367 22.864 32.8407 21.904 32.8407 19.984C32.8407 18.832 32.6247 17.92 32.1927 17.248C31.7847 16.576 31.0527 16.24 29.9967 16.24C28.8447 16.24 27.8127 16.552 26.9007 17.176C25.9887 17.776 25.2807 18.568 24.7767 19.552C24.2967 20.536 24.0567 21.58 24.0567 22.684C24.0567 24.58 24.5847 26.14 25.6407 27.364C26.6967 28.564 28.3287 29.164 30.5367 29.164C30.8007 29.164 31.2447 29.14 31.8687 29.092C32.1327 29.068 32.4567 28.996 32.8407 28.876C33.2247 28.756 33.5007 28.672 33.6687 28.624C34.7007 28.264 35.4567 28.084 35.9367 28.084C36.2967 28.084 36.5727 28.18 36.7647 28.372C36.1647 29.284 35.2647 29.956 34.0647 30.388C32.8887 30.796 31.7247 31 30.5727 31ZM47.4654 31C44.9694 31 42.7974 30.568 40.9494 29.704C39.1254 28.816 38.2134 27.268 38.2134 25.06C38.2134 24.268 38.4534 23.5 38.9334 22.756C39.4134 22.012 40.1214 21.412 41.0574 20.956C41.9934 20.476 43.1334 20.236 44.4774 20.236C45.5094 20.236 46.3854 20.284 47.1054 20.38C47.8254 20.476 48.6534 20.74 49.5894 21.172C50.5254 21.604 51.4974 22.288 52.5054 23.224C52.1214 21.568 51.5454 20.116 50.7774 18.868C50.0094 17.62 49.1454 16.66 48.1854 15.988C47.2494 15.292 46.3254 14.944 45.4134 14.944C44.9814 14.944 44.5734 15.028 44.1894 15.196C43.8294 15.34 43.3854 15.556 42.8574 15.844C42.2574 16.228 41.8134 16.42 41.5254 16.42C41.4054 16.42 41.2974 16.384 41.2014 16.312C41.1294 16.216 41.0934 16.108 41.0934 15.988C41.0934 15.028 41.5134 14.284 42.3534 13.756C43.2174 13.228 44.2614 12.988 45.4854 13.036C47.1654 13.132 48.7014 13.852 50.0934 15.196C51.4854 16.516 52.5774 18.16 53.3694 20.128C54.1854 22.096 54.5934 24.028 54.5934 25.924C54.5934 26.236 54.5694 26.68 54.5214 27.256L53.3694 27.184C52.4574 25.336 51.2814 24.028 49.8414 23.26C48.4254 22.468 46.9974 22.072 45.5574 22.072C43.7094 22.072 42.3894 22.348 41.5974 22.9C40.8054 23.452 40.4094 24.256 40.4094 25.312C40.4094 26.416 40.9614 27.304 42.0654 27.976C43.1694 28.648 44.5854 28.984 46.3134 28.984C47.2734 28.984 48.0414 28.936 48.6174 28.84C49.1934 28.72 49.7934 28.564 50.4174 28.372C50.9214 28.204 51.3654 28.084 51.7494 28.012C52.1334 27.94 52.6254 27.904 53.2254 27.904C53.8974 27.904 54.3174 27.952 54.4854 28.048C54.6774 28.144 54.7734 28.36 54.7734 28.696C54.7734 28.936 54.2814 29.236 53.2974 29.596C52.3134 29.956 51.2094 30.28 49.9854 30.568C48.7614 30.856 47.9214 31 47.4654 31ZM66.5108 31.036C63.7028 31.036 61.5188 30.4 59.9588 29.128C58.4228 27.832 57.6548 25.84 57.6548 23.152C57.6548 21.784 57.9908 20.488 58.6628 19.264C59.3588 18.016 60.2828 17.02 61.4348 16.276C62.6108 15.508 63.8708 15.124 65.2148 15.124C66.5828 15.124 67.7468 15.424 68.7068 16.024C69.6668 16.6 70.1468 17.44 70.1468 18.544C70.1468 19.312 70.0028 19.864 69.7148 20.2C69.4508 20.512 69.1508 20.668 68.8148 20.668C68.8148 19.516 68.5028 18.58 67.8788 17.86C67.2548 17.14 66.3668 16.78 65.2148 16.78C64.0628 16.78 63.0668 17.092 62.2268 17.716C61.3868 18.316 60.7388 19.12 60.2828 20.128C59.8508 21.112 59.6348 22.144 59.6348 23.224C59.6348 25.504 60.4028 27.052 61.9388 27.868C63.4988 28.684 65.5508 29.092 68.0948 29.092C68.9588 29.092 70.0868 29.044 71.4788 28.948C71.5268 28.948 71.6348 28.996 71.8028 29.092C71.9708 29.188 72.1028 29.248 72.1988 29.272V29.488C72.1988 30.184 71.5868 30.616 70.3628 30.784C69.1388 30.952 67.8548 31.036 66.5108 31.036ZM77.6109 30.928C77.4909 30.952 77.3589 30.496 77.2149 29.56C77.0949 28.624 76.9269 27.016 76.7109 24.736C76.3749 20.992 75.9909 17.56 75.5589 14.44C75.1509 11.32 74.6349 8.62 74.0109 6.34C73.9629 6.148 74.0349 5.98 74.2269 5.836C74.4189 5.692 74.6829 5.62 75.0189 5.62C75.1869 5.62 75.3189 5.632 75.4149 5.656C76.0149 7.288 76.4349 8.728 76.6749 9.976C76.9389 11.224 77.1789 12.76 77.3949 14.584L77.5749 15.988C79.0149 15.124 80.3349 14.692 81.5349 14.692C83.7189 14.692 85.2669 15.688 86.1789 17.68C87.1149 19.648 87.5829 22.456 87.5829 26.104C87.5829 27.496 87.4989 28.672 87.3309 29.632C87.1629 30.568 86.9589 31.036 86.7189 31.036C86.4069 31.036 86.0589 30.808 85.6749 30.352V29.164L85.7109 25.24C85.7109 24.496 85.6869 23.572 85.6389 22.468C85.5669 20.596 85.1829 19.18 84.4869 18.22C83.8149 17.26 82.6509 16.78 80.9949 16.78C79.8909 16.78 78.8589 17.188 77.8989 18.004C77.8989 18.916 77.9349 19.852 78.0069 20.812C78.1029 21.772 78.2109 22.708 78.3309 23.62C78.4989 24.892 78.6189 26.02 78.6909 27.004C78.7869 27.964 78.8349 29.032 78.8349 30.208C78.6909 30.496 78.5229 30.688 78.3309 30.784C78.1629 30.88 77.9229 30.928 77.6109 30.928ZM99.2329 31C97.6969 31 96.2809 30.7 94.9849 30.1C93.6889 29.5 92.6569 28.648 91.8889 27.544C91.1209 26.44 90.7369 25.168 90.7369 23.728C90.7369 22.12 91.0369 20.62 91.6369 19.228C92.2369 17.812 93.1129 16.684 94.2649 15.844C95.4409 14.98 96.8089 14.548 98.3689 14.548C100.001 14.548 101.237 15.076 102.077 16.132C102.917 17.164 103.313 18.472 103.265 20.056C103.265 21.472 102.701 22.552 101.573 23.296C100.469 24.04 99.0529 24.412 97.3249 24.412C97.0609 24.412 96.6649 24.388 96.1369 24.34C95.2729 24.244 94.6609 24.112 94.3009 23.944C93.9409 23.776 93.7609 23.44 93.7609 22.936C93.7609 22.768 93.8089 22.648 93.9049 22.576C94.0009 22.48 94.1929 22.432 94.4809 22.432C94.7929 22.432 95.3449 22.504 96.1369 22.648C96.9049 22.792 97.5889 22.864 98.1889 22.864C100.397 22.864 101.501 21.904 101.501 19.984C101.501 18.832 101.285 17.92 100.853 17.248C100.445 16.576 99.7129 16.24 98.6569 16.24C97.5049 16.24 96.4729 16.552 95.5609 17.176C94.6489 17.776 93.9409 18.568 93.4369 19.552C92.9569 20.536 92.7169 21.58 92.7169 22.684C92.7169 24.58 93.2449 26.14 94.3009 27.364C95.3569 28.564 96.9889 29.164 99.1969 29.164C99.4609 29.164 99.9049 29.14 100.529 29.092C100.793 29.068 101.117 28.996 101.501 28.876C101.885 28.756 102.161 28.672 102.329 28.624C103.361 28.264 104.117 28.084 104.597 28.084C104.957 28.084 105.233 28.18 105.425 28.372C104.825 29.284 103.925 29.956 102.725 30.388C101.549 30.796 100.385 31 99.2329 31ZM110.042 31C109.058 29.08 108.278 26.824 107.702 24.232C107.15 21.64 106.874 19.396 106.874 17.5C106.874 16.756 107.042 16.276 107.378 16.06C107.57 15.94 107.714 15.88 107.81 15.88C107.978 15.88 108.098 16.012 108.17 16.276C108.266 16.54 108.362 17.02 108.458 17.716L108.638 19.012C108.902 17.716 109.406 16.696 110.15 15.952C110.918 15.184 111.854 14.8 112.958 14.8C114.182 14.8 115.094 15.04 115.694 15.52C116.294 15.976 116.594 16.744 116.594 17.824C115.394 17.248 114.302 16.96 113.318 16.96C112.382 16.96 111.578 17.212 110.906 17.716C110.234 18.22 109.766 18.964 109.502 19.948C109.286 20.62 109.178 21.256 109.178 21.856C109.178 22.504 109.262 23.116 109.43 23.692C109.622 24.244 109.91 24.928 110.294 25.744C110.654 26.584 110.93 27.304 111.122 27.904C111.338 28.504 111.458 29.152 111.482 29.848C111.482 30.256 111.338 30.556 111.05 30.748C110.762 30.916 110.426 31 110.042 31ZM117.118 22.684C117.118 21.988 117.766 21.46 119.062 21.1C120.382 20.74 122.254 20.464 124.678 20.272C124.942 20.248 125.314 20.236 125.794 20.236C126.754 20.236 127.486 20.332 127.99 20.524C128.494 20.716 128.746 20.944 128.746 21.208C128.746 21.688 128.518 21.928 128.062 21.928C127.702 21.928 127.318 21.868 126.91 21.748C126.334 21.604 125.758 21.532 125.182 21.532C124.27 21.532 122.926 21.724 121.15 22.108C120.262 22.3 119.518 22.444 118.918 22.54C118.318 22.636 117.718 22.684 117.118 22.684ZM137.53 32.476C137.29 32.476 137.086 32.428 136.918 32.332C136.75 32.236 136.498 32.044 136.162 31.756L136.486 29.848C136.918 27.184 137.254 24.964 137.494 23.188C137.734 21.388 137.902 19.54 137.998 17.644C137.182 18.364 136.078 19.54 134.686 21.172C133.87 22.132 133.234 22.84 132.778 23.296C132.346 23.728 132.01 23.944 131.77 23.944C131.578 23.92 131.398 23.812 131.23 23.62C131.086 23.404 131.014 23.152 131.014 22.864C131.014 22.528 131.134 22.228 131.374 21.964L137.71 15.196C137.926 14.956 138.094 14.632 138.214 14.224C138.334 13.816 138.454 13.252 138.574 12.532C138.718 11.62 138.886 10.936 139.078 10.48C139.27 10 139.582 9.76 140.014 9.76C140.206 9.76 140.35 9.784 140.446 9.832C140.542 9.856 140.626 9.94 140.698 10.084L140.734 11.272C140.734 11.704 140.518 13.804 140.086 17.572C139.678 21.316 139.234 24.736 138.754 27.832C138.274 30.928 137.866 32.476 137.53 32.476ZM157.379 31C156.923 31 156.431 30.952 155.903 30.856C155.399 30.736 154.895 30.616 154.391 30.496C153.143 30.136 152.135 29.956 151.367 29.956C150.647 29.956 149.843 30.016 148.955 30.136C147.635 30.256 146.807 30.316 146.471 30.316C145.031 30.316 143.927 30.052 143.159 29.524C142.415 28.996 141.995 28.24 141.899 27.256C141.851 26.656 142.019 26.236 142.403 25.996C142.787 25.732 143.399 25.6 144.239 25.6C144.719 25.6 145.163 25.672 145.571 25.816C146.003 25.936 146.555 26.128 147.227 26.392C147.899 26.68 148.499 26.896 149.027 27.04C149.555 27.184 150.119 27.256 150.719 27.256C151.367 27.256 152.027 26.848 152.699 26.032C153.395 25.216 153.959 24.148 154.391 22.828C154.847 21.508 155.075 20.128 155.075 18.688C155.075 16.912 154.823 15.544 154.319 14.584C153.839 13.6 152.927 13.108 151.583 13.108C149.039 13.108 147.203 14.584 146.075 17.536C145.643 17.368 145.331 17.152 145.139 16.888C144.971 16.6 144.887 16.216 144.887 15.736C144.887 15.04 145.151 14.368 145.679 13.72C146.231 13.048 146.999 12.508 147.983 12.1C148.991 11.668 150.155 11.452 151.475 11.452C153.371 11.452 154.787 12.1 155.723 13.396C156.683 14.692 157.163 16.396 157.163 18.508C157.163 20.62 156.719 22.528 155.831 24.232C154.967 25.912 153.911 27.244 152.663 28.228C153.263 28.468 153.839 28.624 154.391 28.696C154.967 28.768 155.591 28.804 156.263 28.804C157.079 28.828 157.643 28.912 157.955 29.056C158.291 29.176 158.459 29.488 158.459 29.992C158.459 30.208 158.351 30.436 158.135 30.676C157.919 30.892 157.667 31 157.379 31Z" fill="white"/>
<path d="M27 12H27.248" stroke="white" stroke-width="3" stroke-linecap="round"/>
<path d="M33 12H33.248" stroke="white" stroke-width="3" stroke-linecap="round"/>
</svg>
