<svg width="181" height="36" viewBox="0 0 181 36" fill="none" xmlns="http://www.w3.org/2000/svg">
<rect x="0.48999" width="180" height="36" rx="10" fill="white"/>
<path d="M28.2042 5.42292C27.6931 6.26049 27.8351 6.91351 28.623 7.37489C28.8501 7.50975 29.0276 7.46006 29.1553 7.23293C29.3115 6.9561 29.347 6.6083 29.2618 6.18241" stroke="#E38CAE" stroke-width="3"/>
<path d="M35.1888 20.4921C34.3158 20.8612 33.7266 21.351 33.4214 21.9685C33.3149 22.1815 33.3078 22.4015 33.393 22.6216C33.613 23.2036 33.6911 23.8353 33.6272 24.5096" stroke="#E38CAE" stroke-width="3"/>
<path d="M21.4257 32.4666C21.7451 32.1046 21.518 31.8065 20.7514 31.5722C20.4533 31.4799 20.2119 31.487 20.0345 31.6077C19.8286 31.7426 19.6867 31.9768 19.6228 32.2962" stroke="#E38CAE" stroke-width="3"/>
<path d="M18.7141 32.2039C18.7922 31.7 19.0761 31.2457 19.5517 30.8411C19.7291 30.685 19.8285 30.4862 19.8498 30.252C19.8782 29.8616 19.9918 29.5067 20.1905 29.1802C20.368 28.8962 20.5383 28.8962 20.7087 29.1873L21.7592 30.9476C22.1709 31.6432 23.0865 31.8419 23.7466 31.3806C24.5629 30.8127 25.3579 30.9476 26.1813 30.5217C28.4101 29.3505 30.4614 27.5831 32.3424 25.2194C32.818 24.6161 32.9173 23.9702 32.6334 23.2675C32.5128 22.9765 32.2998 22.8132 31.9875 22.7635C31.7249 22.728 31.5119 22.6145 31.3487 22.4299C31.1002 22.146 31.0435 21.8337 31.1712 21.493C31.2422 21.3084 31.3771 21.209 31.5758 21.1877C32.8393 21.0671 34.4008 19.9882 34.4221 18.5118C34.4363 17.6103 34.3512 16.7869 34.1666 16.0345C33.3574 12.741 32.2785 9.85212 29.4961 7.68011C29.3328 7.55944 29.1838 7.56654 29.0347 7.7014C28.6727 8.03501 28.2752 8.32603 27.8493 8.56027C26.309 9.40494 25.9399 9.04294 26.7278 7.48136C27.2247 6.50183 26.9834 5.79202 26.0038 5.35194C21.7592 3.42836 17.7417 3.76907 13.9584 6.37406C13.7951 6.48053 13.6461 6.46634 13.5112 6.33147C13.3551 6.17532 13.2628 5.8843 13.2273 5.45841" stroke="#E38CAE" stroke-width="3"/>
<path d="M18.6644 32.3743C18.203 31.6432 17.6139 31.1605 16.9112 30.9263C15.7258 30.5359 15.1224 30.3372 15.1012 30.3301C12.5671 28.9317 10.5087 26.9301 8.91164 24.3251C8.61352 23.8353 8.83356 23.1965 9.36591 22.9906C9.92666 22.7777 10.2958 22.4157 10.4803 21.8975C10.5797 21.6278 10.3596 21.351 10.0686 21.3865C9.20975 21.5001 8.44316 21.3155 7.75465 20.8328C7.563 20.698 7.44233 20.5134 7.39265 20.2863C7.14422 19.1222 7.08033 18.0362 7.2152 17.0283C7.63398 13.9051 8.91164 11.0872 11.0411 8.56737C11.4244 8.10599 12.0845 8.00662 12.5955 8.32603L13.6744 9.00745C14.1216 9.29137 14.3701 9.17071 14.4339 8.64545C14.512 8.03501 14.3346 7.60913 13.9016 7.36779C13.1989 6.9703 12.12 7.52395 11.112 7.04838" stroke="#EC98BB" stroke-width="3"/>
<path d="M19.4808 9.00035C19.346 8.95067 19.2537 8.8371 19.2324 8.70224C19.055 7.67302 18.7355 6.81415 18.2813 6.13273C18.2671 6.11144 18.2458 6.09015 18.2245 6.08305C18.1606 6.04756 18.0896 6.04046 18.0257 6.05465C17.7773 6.11144 17.7134 6.2534 17.827 6.47344C18.26 7.32521 18.3948 8.19117 18.2458 9.07134C18.1748 9.49012 18.3522 9.70306 18.771 9.71726L22.3698 9.82373C23.0583 9.84503 23.3777 9.51851 23.328 8.83C23.2712 8.02082 23.4345 7.21874 23.8107 6.43085C23.8745 6.29599 23.8533 6.18242 23.7326 6.09015C23.5835 5.98367 23.4345 6.05465 23.2712 6.31728C23.2215 6.40246 23.2002 6.49474 23.2002 6.59411C23.2144 6.93482 23.0654 7.16905 22.746 7.28972C22.5401 7.3678 22.3981 7.54525 22.3627 7.75819L22.2349 8.55318C22.1852 8.8442 22.0219 9.03584 21.738 9.12102C21.5535 9.17071 21.3689 9.1849 21.1915 9.14941C20.9005 9.08553 20.7514 8.90808 20.7585 8.60996L20.7656 6.04046C20.7727 5.91979 20.7088 5.87011 20.5881 5.8772L20.29 5.8985C20.1197 5.91269 20.0345 6.00497 20.0416 6.18242L20.1055 8.8371C20.1126 9.09263 19.9919 9.17781 19.7435 9.09263L19.4808 9.00035Z" stroke="#EC98BB" stroke-width="3"/>
<path d="M13.6178 10.7749L12.3969 9.75275C12.2408 9.61789 11.9923 9.71016 11.9639 9.916L11.8929 10.3348C11.8858 10.3845 11.9071 10.4271 11.9497 10.4555C12.986 11.1014 13.561 11.8822 13.6746 12.7836C13.6817 12.8759 13.7597 12.9469 13.852 12.9469C14.2921 12.954 14.5618 12.741 14.6683 12.3081C14.8032 11.7331 15.1723 11.435 15.7614 11.4066C15.8821 11.3995 15.9459 11.3356 15.9601 11.215C16.0098 10.6329 16.3576 10.3703 16.9894 10.4342C17.3443 10.4626 17.5998 10.1077 17.4507 9.78824L16.1376 6.87093C16.0879 6.77156 15.9885 6.70768 15.875 6.71477L15.3355 6.75736C15.1935 6.76446 15.1155 6.92772 15.1935 7.04838C15.8111 7.99953 16.1021 8.88678 16.0595 9.71016C15.9956 10.9381 14.5618 11.5628 13.6178 10.7749Z" stroke="#EC98BB" stroke-width="3"/>
<path d="M24.1231 9.39074C23.9385 9.61078 23.8391 9.85212 23.8178 10.1147C23.8036 10.3561 23.9172 10.4909 24.1585 10.5264L24.5205 10.5761C24.7193 10.5974 24.8825 10.4271 24.8542 10.2354C24.6625 9.08553 25.5072 8.63125 25.5711 7.51685C25.5782 7.36779 25.5072 7.28971 25.3581 7.26842C25.2871 7.26132 25.2233 7.26842 25.1594 7.28971C24.9819 7.3536 24.8754 7.48136 24.8258 7.66591C24.6625 8.32603 24.5915 8.85839 24.1231 9.39074Z" stroke="#E38CAE" stroke-width="3"/>
<path d="M29.8157 12.2442C29.5034 12.3151 29.2407 12.4713 29.0207 12.7197C28.7652 13.0037 28.3748 13.1243 27.9986 13.025L27.736 12.9469C27.5372 12.8901 27.4449 12.6559 27.5585 12.4855C27.9915 11.8112 28.6161 11.1724 29.4466 10.5832C29.9577 10.2212 29.908 9.97988 29.2904 9.86631C28.9284 9.80243 28.6303 9.93729 28.4103 10.2709C27.6863 11.3782 26.8558 11.6053 25.9259 10.9523C25.6917 10.7891 25.5427 10.8458 25.4788 11.1227C25.4575 11.2433 25.4859 11.3001 25.5639 11.3072C25.9543 11.3427 26.2241 11.5344 26.3731 11.8822C26.5364 12.2726 26.8132 12.5636 27.2107 12.7552C27.4023 12.8475 27.4946 13.0037 27.4804 13.2237C27.452 13.7064 27.6579 14.111 28.1051 14.4304C28.3393 14.6007 28.5309 14.5652 28.68 14.3168L29.0846 13.6638C29.184 13.5005 29.3472 13.3728 29.5318 13.316C30.2345 13.0817 30.7739 12.6204 31.1359 11.9177C31.1998 11.797 31.1927 11.6834 31.1075 11.5769C30.9443 11.3711 30.7739 11.364 30.5965 11.5698L30.2487 11.9815C30.1351 12.1093 29.986 12.2016 29.8157 12.2442Z" stroke="#EC98BB" stroke-width="3"/>
<path d="M27.5015 20.5844C27.5937 20.5205 27.686 20.4921 27.7641 20.4992C27.9273 20.5205 28.0196 20.6128 28.0267 20.776C28.0693 21.351 27.9415 21.8833 27.6505 22.3731C27.5724 22.4938 27.5937 22.6074 27.7073 22.7067C27.7783 22.7706 27.8564 22.7919 27.9486 22.7848C28.0977 22.7706 28.2326 22.8061 28.3532 22.8913L30.8163 24.5522C30.9369 24.6303 31.0292 24.609 31.0931 24.4883L31.4125 23.9418C31.4267 23.9205 31.4267 23.8992 31.4054 23.8779C30.6601 23.2036 29.9006 22.728 29.1269 22.437C28.9069 22.3518 28.8004 22.1957 28.7933 21.9614C28.7862 21.2161 28.5307 20.6341 28.0196 20.2153" stroke="#EC98BB" stroke-width="3"/>
<path d="M28.0198 20.2153L27.9772 15.9565C27.9772 15.6938 27.8849 15.4667 27.7075 15.275C27.4023 14.9414 27.1751 14.551 27.0403 14.1181C26.9338 13.7844 26.7067 13.5076 26.4014 13.3444C25.7697 13.0108 25.2516 12.5139 24.8541 11.8609C24.3856 11.1014 23.5551 10.64 22.6608 10.64L17.9122 10.6329C17.6566 10.6329 17.4508 10.7323 17.2875 10.931C17.0675 11.1937 16.7907 11.3853 16.4712 11.506C16.2086 11.5982 16.0525 11.7757 16.017 12.0525L15.9602 12.4642C15.9176 12.7765 15.7401 12.9682 15.4349 13.0321C14.4696 13.2308 13.8733 13.8341 13.6462 14.8421C13.2132 16.7585 11.9569 17.8233 13.4262 19.8888C13.5468 20.052 13.6036 20.2437 13.5965 20.4495C13.5539 21.7059 14.1857 22.4938 15.4846 22.8132C15.733 22.8771 15.8679 23.0332 15.9034 23.2817C16.0525 24.4387 17.0675 25.1485 18.2032 25.2123C20.7301 25.3685 23.8887 25.7731 25.3083 23.4307C25.4716 23.1681 25.6845 22.9765 25.9543 22.8487C26.8273 22.437 27.3455 21.6846 27.5016 20.5844" stroke="#E38CAE" stroke-width="3"/>
<path d="M28.0196 20.2153C27.8422 20.2863 27.6718 20.4069 27.5015 20.5844" stroke="#D02569" stroke-width="3"/>
<path d="M13.6681 13.4749C13.7243 13.387 13.703 13.2663 13.6117 13.2098L10.7543 11.3541C10.665 11.293 10.5443 11.3214 10.4892 11.4105L10.2031 11.851C10.1469 11.939 10.1681 12.0596 10.2594 12.1161L13.1168 13.9718C13.2061 14.0329 13.3268 14.0045 13.3819 13.9154L13.6681 13.4749Z" stroke="#EC98BB" stroke-width="3"/>
<path d="M11.6587 16.1481L9.29505 16.1339C9.00403 16.1339 8.7627 16.3752 8.7627 16.6663V16.8437C8.7627 17.0354 8.91175 17.1915 9.1034 17.1915L11.4458 17.2128C11.9497 17.2199 12.3969 16.8934 12.546 16.4036C12.6737 15.9565 12.7802 15.6016 12.8654 15.3247C13.0144 14.8137 12.5034 14.3523 12.0136 14.5652C11.6374 14.7214 11.3535 14.622 11.1618 14.2671C11.0625 14.0826 10.8992 13.9406 10.7076 13.8625C10.3243 13.7064 9.96937 13.7064 9.63576 13.8696C9.4796 13.9477 9.38733 14.0684 9.36603 14.2387C9.33054 14.4304 9.4654 14.5865 9.77062 14.7001C9.82741 14.7214 9.89129 14.7356 9.95517 14.7285C10.8424 14.693 11.4955 15.0195 11.9213 15.6938C12.113 15.999 12.0207 16.1552 11.6587 16.1481Z" stroke="#EC98BB" stroke-width="3"/>
<path d="M30.71 14.3594C30.1066 14.6646 29.4465 14.8066 28.7438 14.7924C28.4173 14.7853 28.3392 14.9272 28.5025 15.2112C28.6231 15.4099 28.7935 15.5377 29.0135 15.5945C29.3117 15.6725 29.5885 15.6299 29.8511 15.4738C30.4119 15.1402 31.0152 14.8776 31.6682 14.7001C32.3425 14.5226 32.3851 14.2458 31.796 13.8767C31.505 13.6922 31.2565 13.7561 31.0436 14.0684C30.9584 14.1961 30.8448 14.2955 30.71 14.3594Z" stroke="#E38CAE" stroke-width="3"/>
<path d="M29.4536 17.7523C29.3684 17.2057 29.5955 16.9644 30.1421 17.0141L32.3283 17.2199C32.7116 17.2554 32.9813 16.8579 32.8109 16.5172C32.6193 16.1268 32.2928 16.0132 31.8314 16.1623C30.93 16.4675 30.0782 16.5385 29.269 16.3753C29.0206 16.3256 28.8999 16.432 28.8999 16.6805V19.179C28.8999 19.4842 29.049 19.6333 29.3542 19.6333L32.456 19.6688C32.6761 19.6688 32.7896 19.5623 32.7967 19.3422L32.8109 18.9802C32.818 18.7389 32.7045 18.6182 32.4631 18.6253L30.1279 18.6679C29.7801 18.675 29.5742 18.4976 29.5174 18.1498L29.4536 17.7523Z" stroke="#E38CAE" stroke-width="3"/>
<path d="M12.0844 18.8312C12.0063 18.6608 11.8785 18.5828 11.694 18.5898L8.95414 18.7389C8.7483 18.7531 8.64893 18.8596 8.64893 19.0654L8.65602 19.2855C8.65602 19.5055 8.76959 19.6049 8.98963 19.5907L11.19 19.4345C11.4172 19.4203 11.6159 19.4913 11.7792 19.6546C12.0063 19.8746 12.0915 20.1514 12.0276 20.485C11.8715 21.3439 12.1341 21.5001 12.8155 20.9464C12.922 20.8541 12.6806 20.1514 12.0844 18.8312Z" stroke="#EC98BB" stroke-width="3"/>
<path d="M13.4521 22.0904C13.3055 21.8692 13.0145 21.8124 12.7937 21.9529L10.2636 23.6086C10.0404 23.7501 9.98362 24.0483 10.126 24.267L10.1494 24.3026C10.2959 24.5238 10.587 24.5806 10.8077 24.4401L13.3379 22.7844C13.561 22.6428 13.6178 22.3447 13.4754 22.126L13.4521 22.0904Z" stroke="#EC98BB" stroke-width="3"/>
<path d="M27.6792 23.2249C27.7502 23.1326 27.7573 23.0474 27.7076 22.9694C27.5657 22.7493 27.4095 22.7422 27.2321 22.941L26.5506 23.7289C26.359 23.9489 26.3732 24.1405 26.6074 24.318L28.9711 26.0996C29.1343 26.2203 29.3615 26.199 29.5034 26.0499L29.688 25.8512C29.8158 25.7092 29.7803 25.4821 29.6099 25.3827C28.7794 24.9071 28.1264 24.2896 27.6579 23.5301C27.6012 23.4307 27.6083 23.3101 27.6792 23.2249Z" stroke="#EC98BB" stroke-width="3"/>
<path d="M14.7322 24.247C14.6541 25.3401 14.2637 26.2841 13.561 27.072C13.3977 27.2566 13.4048 27.5334 13.5752 27.7109L13.7172 27.8599C13.8378 27.9806 14.0295 27.9735 14.1359 27.8457C14.7535 27.0649 15.1652 26.3196 15.3568 25.6169C15.442 25.3117 15.5698 25.2904 15.7401 25.553C15.8821 25.7731 16.0737 25.915 16.3222 25.9931C16.7267 26.1138 16.7835 26.3267 16.4925 26.6391C16.4428 26.6887 16.3931 26.7242 16.3293 26.7597C16.0524 26.8946 15.9105 27.1217 15.9034 27.434C15.9034 27.8883 15.7188 28.2432 15.3568 28.5058C15.2078 28.6123 15.1794 28.8253 15.2929 28.9743L15.4207 29.1305C15.513 29.2511 15.6833 29.2724 15.804 29.1802C16.4925 28.662 16.8545 28.0232 16.89 27.2637C16.9042 26.9869 17.1242 26.7668 17.4011 26.7455L18.0399 26.71C18.2244 26.6958 18.3877 26.8307 18.409 27.0223C18.5297 28.2929 17.7347 28.3923 17.5714 29.2653C17.5288 29.4854 17.5572 29.6841 17.6566 29.8758C17.7915 30.1171 18.1464 30.0887 18.2386 29.8332L19.3459 26.7881C19.4808 26.4261 19.8641 26.2132 20.2332 26.3054L21.9864 26.7029C22.2632 26.7668 22.3839 26.9372 22.3484 27.2211C22.2419 28.1225 22.3342 28.9672 22.6252 29.748C22.6749 29.8758 22.7743 29.9184 22.9305 29.8687C23.1292 29.8048 23.2499 29.6202 23.2357 29.4144C23.1576 28.4987 23.1718 27.5334 23.2854 26.5326C23.3138 26.27 23.2002 26.1209 22.9376 26.0783L19.8854 25.6311C19.6653 25.5956 19.4666 25.6382 19.275 25.7589C17.5075 26.8662 16.0737 25.1201 14.7322 24.247Z" stroke="#EC98BB" stroke-width="3"/>
<path d="M14.7322 24.247C14.6329 23.6863 14.4412 23.3101 14.1502 23.1113C13.9302 22.9552 13.774 23.0048 13.6746 23.2533C13.2984 24.1973 12.6525 25.0136 11.7227 25.7021C11.6375 25.766 11.6233 25.837 11.6801 25.9293L11.7723 26.0783C11.8504 26.2132 11.9569 26.2416 12.0918 26.1635C12.7448 25.7873 13.3339 25.2265 13.8521 24.4954C13.9869 24.3038 14.278 24.2257 14.7322 24.247Z" stroke="#E38CAE" stroke-width="3"/>
<path d="M25.3865 25.6169C26.0963 26.1422 26.6358 26.8236 27.012 27.6683C27.1255 27.9167 27.3172 28.0303 27.5869 27.9948C27.7076 27.9806 27.8069 27.9309 27.8921 27.8386C28.1831 27.5263 28.1548 27.2495 27.8069 27.0011C26.9978 26.4261 26.4228 25.6737 26.0821 24.7581C25.9685 24.4529 25.8053 24.4245 25.5923 24.6729C25.4433 24.8362 25.3368 25.0349 25.2658 25.2549C25.2233 25.404 25.2658 25.5247 25.3865 25.6169Z" stroke="#E38CAE" stroke-width="3"/>
<path d="M23.8105 26.5468C24.2861 27.2282 24.641 28.009 24.861 28.8821C24.9107 29.095 25.0456 29.2157 25.2656 29.2512C25.4715 29.2724 25.6276 29.095 25.7412 28.7117C25.8122 28.4633 25.7483 28.2006 25.5779 28.0161C24.9249 27.3276 24.6978 26.5823 24.8965 25.7731C24.9462 25.5743 24.7758 25.3898 24.57 25.4182C24.2577 25.4679 24.0021 25.6382 23.8034 25.9364C23.6685 26.1422 23.6685 26.3409 23.8105 26.5468Z" stroke="#EC98BB" stroke-width="3"/>
<path d="M7.57028 23.7572C7.8755 23.3597 8.08135 22.9693 8.20201 22.579C8.27299 22.3589 8.20201 22.2028 7.98197 22.1105L6.81079 21.6562" stroke="#EC98BB" stroke-width="3"/>
<path d="M19.2181 18.966C20.1338 19.3564 21.0353 19.3351 21.9083 18.9093C22.5259 18.604 23.2428 19.0583 23.2428 19.7468L23.2357 22.508C23.2357 22.7209 23.335 22.8061 23.5409 22.7564L23.8603 22.6854C24.1797 22.6144 24.3359 22.4157 24.3359 22.0963L24.343 19.0157C24.343 18.746 24.2152 18.4834 23.9952 18.3201L23.3634 17.8445C23.186 17.7097 23.0795 17.4967 23.0795 17.2767L23.0724 14.6007C23.0724 14.3878 23.1576 14.2174 23.3279 14.0897C23.3918 14.04 23.4557 13.9903 23.5267 13.9406C23.6544 13.8554 23.768 13.7561 23.8674 13.6354C23.9668 13.5147 23.9668 13.3941 23.8674 13.2734C23.6828 13.0392 23.4486 12.954 23.1576 13.0108C22.1568 13.2095 21.376 12.9753 20.8152 12.3151C20.5313 11.9815 20.2829 12.0028 20.077 12.3932C19.7434 13.0321 19.2465 13.2308 18.6006 12.9824C18.3664 12.8972 18.0683 12.9185 17.6992 13.0533C17.6353 13.0746 17.5714 13.0959 17.5075 13.1172C17.1739 13.2237 17.1526 13.3799 17.4436 13.5786L18.0825 14.0116C18.3096 14.1677 18.4445 14.4304 18.4374 14.7072L18.3664 17.2767C18.3593 17.5748 18.1818 17.8445 17.9121 17.9652C17.6069 18.1001 17.3372 18.2917 17.11 18.5473C16.9468 18.7318 16.8616 18.9447 16.8616 19.1861L16.8261 21.8975C16.819 22.3305 17.0319 22.6003 17.4578 22.6925L17.7559 22.7564C18.1109 22.8345 18.2883 22.6925 18.2883 22.3305L18.2812 19.5836C18.2812 19.1009 18.771 18.7815 19.2181 18.966Z" stroke="#E38CAE" stroke-width="3"/>
<path d="M22.3246 20.7379C22.3201 20.3644 22.0078 20.0591 21.6338 20.0661L19.5613 20.0951C19.1828 20.1017 18.8846 20.407 18.8895 20.7859L18.9085 22.1486C18.913 22.5222 19.2253 22.8274 19.5993 22.8204L21.6718 22.7915C22.0504 22.7848 22.3485 22.4796 22.3437 22.1006L22.3246 20.7379Z" stroke="#E38CAE" stroke-width="3"/>
<path d="M20.0487 14.402C20.4532 14.5652 20.8365 14.5936 21.1985 14.5014C21.5322 14.4091 21.5534 14.2742 21.2695 14.0826C20.8933 13.827 20.4816 13.8057 20.0345 14.0187C19.7434 14.1535 19.7505 14.2813 20.0487 14.402Z" stroke="#EC98BB" stroke-width="3"/>
<path d="M20.7726 16.2262C20.9926 16.3398 21.1985 16.2901 21.4043 16.0771C21.6385 15.8358 21.6031 15.6583 21.2836 15.5377C20.7158 15.3247 20.1976 15.3602 19.7221 15.6512C19.4097 15.8429 19.4239 15.992 19.7717 16.1055C19.9563 16.1623 20.1479 16.1765 20.3396 16.1481C20.4887 16.1268 20.6377 16.1552 20.7726 16.2262Z" stroke="#E38CAE" stroke-width="3"/>
<path d="M20.9003 16.9644C20.5454 17.0354 20.1834 16.9573 19.8498 17.0212C19.4168 17.1063 19.3175 17.6813 19.7008 17.9084C20.1479 18.1711 20.6377 18.2562 21.1843 18.1498C21.3546 18.1214 21.4753 18.0291 21.5534 17.8729C21.6598 17.66 21.6598 17.4471 21.5534 17.227C21.4895 17.1063 21.3972 17.0283 21.2765 16.9857C21.1559 16.9431 21.0281 16.936 20.9003 16.9644Z" stroke="#EC98BB" stroke-width="3"/>
<path d="M19.6016 3.36449H22.164C24.4141 3.63421 26.43 4.32273 28.2045 5.42293C27.6934 6.2605 27.8354 6.91352 28.6233 7.3749C28.8504 7.50976 29.0278 7.46007 29.1556 7.23294C29.3118 6.95611 29.3473 6.60831 29.2621 6.18242C31.6115 7.97823 33.2938 10.2283 34.3088 12.9398C34.3301 12.9895 34.3514 13.0321 34.3869 13.0676C34.4295 13.1172 34.4934 13.1243 34.5714 13.0959C34.6779 13.0605 34.7418 13.0888 34.7702 13.1953C35.5155 15.6867 35.6503 18.1143 35.189 20.4921C34.3159 20.8612 33.7268 21.351 33.4216 21.9685C33.3151 22.1815 33.308 22.4015 33.3932 22.6216C33.6132 23.2036 33.6913 23.8353 33.6274 24.5096C31.1076 29.1731 27.2604 31.8207 22.0859 32.4666H21.4258C21.7452 32.1046 21.5181 31.8065 20.7515 31.5722C20.4534 31.4799 20.212 31.487 20.0346 31.6077C19.8287 31.7426 19.6868 31.9768 19.6229 32.2962C19.4171 32.4169 19.1189 32.3814 18.7143 32.204C18.7924 31.7 19.0763 31.2457 19.5519 30.8411C19.7294 30.685 19.8287 30.4862 19.85 30.252C19.8784 29.8616 19.992 29.5067 20.1907 29.1802C20.3682 28.8962 20.5386 28.8963 20.7089 29.1873L21.7594 30.9476C22.1711 31.6432 23.0868 31.842 23.7469 31.3806C24.5632 30.8127 25.3581 30.9476 26.1815 30.5217C28.4103 29.3505 30.4617 27.5831 32.3426 25.2194C32.8182 24.6161 32.9176 23.9702 32.6337 23.2675C32.513 22.9765 32.3001 22.8132 31.9877 22.7635C31.7251 22.728 31.5122 22.6145 31.3489 22.4299C31.1005 22.146 31.0437 21.8337 31.1715 21.493C31.2424 21.3084 31.3773 21.209 31.5761 21.1877C32.8395 21.0671 34.4011 19.9882 34.4224 18.5118C34.4366 17.6103 34.3514 16.7869 34.1669 16.0345C33.3577 12.741 32.2788 9.85212 29.4963 7.68011C29.3331 7.55945 29.184 7.56655 29.0349 7.70141C28.6729 8.03502 28.2755 8.32604 27.8496 8.56028C26.3093 9.40495 25.9402 9.04294 26.7281 7.48137C27.2249 6.50183 26.9836 5.79203 26.0041 5.35195C21.7594 3.42837 17.7419 3.76908 13.9586 6.37407C13.7954 6.48054 13.6463 6.46634 13.5115 6.33148C13.3553 6.17532 13.263 5.8843 13.2275 5.45842C15.1369 4.29433 17.2592 3.59872 19.6016 3.36449Z" fill="#C7195C"/>
<path d="M18.7143 32.2039C18.7001 32.2607 18.6859 32.3175 18.6646 32.3743C18.2033 31.6432 17.6141 31.1605 16.9114 30.9263C15.726 30.5359 15.1227 30.3372 15.1014 30.3301C12.5674 28.9317 10.5089 26.9301 8.91188 24.3251C8.61376 23.8353 8.8338 23.1965 9.36616 22.9907C9.9269 22.7777 10.296 22.4157 10.4806 21.8975C10.5799 21.6278 10.3599 21.351 10.0689 21.3865C9.21 21.5001 8.44341 21.3155 7.75489 20.8328C7.56325 20.698 7.44258 20.5134 7.39289 20.2863C7.14446 19.1222 7.08058 18.0362 7.21544 17.0283C7.63423 13.9051 8.91188 11.0872 11.0413 8.56737C11.4246 8.106 12.0847 8.00662 12.5958 8.32604L13.6747 9.00745C14.1219 9.29137 14.3703 9.17071 14.4342 8.64545C14.5123 8.03501 14.3348 7.60913 13.9018 7.3678C13.1991 6.9703 12.1202 7.52395 11.1123 7.04838L13.2275 5.45841C13.263 5.8843 13.3553 6.17532 13.5114 6.33148C13.6463 6.46634 13.7954 6.48054 13.9586 6.37407C17.7419 3.76907 21.7594 3.42837 26.004 5.35194C26.9836 5.79202 27.2249 6.50183 26.728 7.48136C25.9402 9.04294 26.3093 9.40494 27.8495 8.56027C28.2754 8.32604 28.6729 8.03501 29.0349 7.70141C29.184 7.56654 29.333 7.55944 29.4963 7.68011C32.2787 9.85212 33.3576 12.741 34.1668 16.0345C34.3514 16.7869 34.4365 17.6103 34.4224 18.5118C34.4011 19.9882 32.8395 21.0671 31.576 21.1877C31.3773 21.209 31.2424 21.3084 31.1714 21.493C31.0437 21.8337 31.1005 22.146 31.3489 22.4299C31.5121 22.6145 31.7251 22.728 31.9877 22.7635C32.3 22.8132 32.513 22.9765 32.6336 23.2675C32.9176 23.9702 32.8182 24.6161 32.3426 25.2194C30.4616 27.5831 28.4103 29.3505 26.1815 30.5217C25.3581 30.9476 24.5631 30.8127 23.7469 31.3806C23.0867 31.8419 22.1711 31.6432 21.7594 30.9476L20.7089 29.1873C20.5385 28.8962 20.3682 28.8962 20.1907 29.1802C19.992 29.5067 19.8784 29.8616 19.85 30.252C19.8287 30.4862 19.7293 30.685 19.5519 30.8411C19.0763 31.2457 18.7924 31.7 18.7143 32.2039ZM19.4809 9.00035C19.346 8.95067 19.2538 8.8371 19.2325 8.70223C19.055 7.67301 18.7356 6.81415 18.2813 6.13273C18.2671 6.11144 18.2458 6.09014 18.2246 6.08304C18.1607 6.04755 18.0897 6.04046 18.0258 6.05465C17.7774 6.11144 17.7135 6.2534 17.8271 6.47344C18.26 7.32521 18.3949 8.19117 18.2458 9.07133C18.1749 9.49012 18.3523 9.70306 18.7711 9.71726L22.3698 9.82373C23.0583 9.84502 23.3778 9.51851 23.3281 8.83C23.2713 8.02082 23.4345 7.21874 23.8107 6.43085C23.8746 6.29599 23.8533 6.18242 23.7327 6.09014C23.5836 5.98367 23.4345 6.05465 23.2713 6.31728C23.2216 6.40246 23.2003 6.49473 23.2003 6.59411C23.2145 6.93481 23.0654 7.16905 22.746 7.28972C22.5402 7.3678 22.3982 7.54525 22.3627 7.75819L22.235 8.55317C22.1853 8.84419 22.022 9.03584 21.7381 9.12102C21.5535 9.17071 21.369 9.1849 21.1915 9.14941C20.9005 9.08553 20.7515 8.90808 20.7586 8.60996L20.7657 6.04046C20.7728 5.91979 20.7089 5.8701 20.5882 5.8772L20.2901 5.89849C20.1197 5.91269 20.0346 6.00497 20.0417 6.18242L20.1055 8.8371C20.1126 9.09263 19.992 9.1778 19.7435 9.09263L19.4809 9.00035ZM13.6179 10.7749L12.397 9.75275C12.2409 9.61788 11.9924 9.71016 11.9641 9.916L11.8931 10.3348C11.886 10.3845 11.9073 10.4271 11.9499 10.4555C12.9862 11.1014 13.5611 11.8822 13.6747 12.7836C13.6818 12.8759 13.7599 12.9469 13.8521 12.9469C14.2922 12.954 14.5619 12.741 14.6684 12.3081C14.8033 11.7331 15.1724 11.435 15.7615 11.4066C15.8822 11.3995 15.9461 11.3356 15.9603 11.215C16.01 10.6329 16.3578 10.3703 16.9895 10.4342C17.3444 10.4626 17.5999 10.1077 17.4509 9.78824L16.1377 6.87093C16.088 6.77156 15.9887 6.70767 15.8751 6.71477L15.3356 6.75736C15.1937 6.76446 15.1156 6.92772 15.1937 7.04838C15.8112 7.99952 16.1022 8.88678 16.0596 9.71016C15.9958 10.9381 14.5619 11.5628 13.6179 10.7749ZM24.123 9.39075C23.9385 9.61079 23.8391 9.85212 23.8178 10.1147C23.8036 10.3561 23.9172 10.4909 24.1585 10.5264L24.5205 10.5761C24.7193 10.5974 24.8825 10.4271 24.8542 10.2354C24.6625 9.08553 25.5072 8.63125 25.5711 7.51686C25.5782 7.3678 25.5072 7.28972 25.3581 7.26842C25.2871 7.26132 25.2232 7.26842 25.1594 7.28972C24.9819 7.3536 24.8754 7.48136 24.8258 7.66591C24.6625 8.32604 24.5915 8.85839 24.123 9.39075ZM29.8157 12.2442C29.5034 12.3152 29.2408 12.4713 29.0207 12.7197C28.7652 13.0037 28.3748 13.1243 27.9986 13.025L27.736 12.9469C27.5372 12.8901 27.4449 12.6559 27.5585 12.4855C27.9915 11.8112 28.6161 11.1724 29.4466 10.5832C29.9577 10.2212 29.908 9.97989 29.2904 9.86632C28.9284 9.80243 28.6303 9.9373 28.4103 10.2709C27.6863 11.3782 26.8558 11.6053 25.926 10.9523C25.6917 10.7891 25.5427 10.8459 25.4788 11.1227C25.4575 11.2433 25.4859 11.3001 25.564 11.3072C25.9544 11.3427 26.2241 11.5344 26.3731 11.8822C26.5364 12.2726 26.8132 12.5636 27.2107 12.7552C27.4024 12.8475 27.4946 13.0037 27.4804 13.2237C27.452 13.7064 27.6579 14.111 28.1051 14.4304C28.3393 14.6007 28.531 14.5652 28.68 14.3168L29.0846 13.6638C29.184 13.5005 29.3472 13.3728 29.5318 13.316C30.2345 13.0817 30.7739 12.6204 31.1359 11.9177C31.1998 11.797 31.1927 11.6834 31.1076 11.577C30.9443 11.3711 30.7739 11.364 30.5965 11.5699L30.2487 11.9815C30.1351 12.1093 29.9861 12.2016 29.8157 12.2442ZM27.5017 20.5844C27.594 20.5205 27.6863 20.4921 27.7644 20.4992C27.9276 20.5205 28.0199 20.6128 28.027 20.7761C28.0696 21.351 27.9418 21.8834 27.6508 22.3731C27.5727 22.4938 27.594 22.6074 27.7076 22.7067C27.7786 22.7706 27.8566 22.7919 27.9489 22.7848C28.098 22.7706 28.2328 22.8061 28.3535 22.8913L30.8165 24.5522C30.9372 24.6303 31.0295 24.609 31.0934 24.4883L31.4128 23.9418C31.427 23.9205 31.427 23.8992 31.4057 23.8779C30.6604 23.2036 29.9009 22.728 29.1272 22.437C28.9071 22.3518 28.8007 22.1957 28.7936 21.9614C28.7865 21.2161 28.531 20.6341 28.0199 20.2153L27.9773 15.9565C27.9773 15.6938 27.885 15.4667 27.7076 15.275C27.4024 14.9414 27.1752 14.551 27.0404 14.1181C26.9339 13.7845 26.7067 13.5076 26.4015 13.3444C25.7698 13.0108 25.2516 12.5139 24.8542 11.8609C24.3857 11.1014 23.5552 10.64 22.6608 10.64L17.9122 10.6329C17.6567 10.6329 17.4509 10.7323 17.2876 10.931C17.0676 11.1937 16.7907 11.3853 16.4713 11.506C16.2087 11.5982 16.0525 11.7757 16.0171 12.0525L15.9603 12.4642C15.9177 12.7765 15.7402 12.9682 15.435 13.0321C14.4697 13.2308 13.8734 13.8341 13.6463 14.8421C13.2133 16.7585 11.957 17.8233 13.4263 19.8888C13.5469 20.0521 13.6037 20.2437 13.5966 20.4495C13.554 21.7059 14.1857 22.4938 15.4847 22.8132C15.7331 22.8771 15.868 23.0332 15.9035 23.2817C16.0525 24.4387 17.0676 25.1485 18.2033 25.2123C20.7302 25.3685 23.8888 25.7731 25.3084 23.4307C25.4717 23.1681 25.6846 22.9765 25.9544 22.8487C26.8274 22.437 27.3456 21.6846 27.5017 20.5844ZM13.6682 13.4749C13.7244 13.387 13.7031 13.2663 13.6118 13.2098L10.7544 11.3541C10.6651 11.293 10.5444 11.3214 10.4893 11.4105L10.2032 11.851C10.1469 11.939 10.1682 12.0596 10.2595 12.1161L13.1169 13.9718C13.2062 14.0329 13.3269 14.0045 13.382 13.9154L13.6682 13.4749ZM11.6588 16.1481L9.29518 16.1339C9.00416 16.1339 8.76282 16.3752 8.76282 16.6663V16.8437C8.76282 17.0354 8.91188 17.1915 9.10353 17.1915L11.4459 17.2128C11.9499 17.2199 12.397 16.8934 12.5461 16.4036C12.6739 15.9565 12.7803 15.6016 12.8655 15.3247C13.0146 14.8137 12.5035 14.3523 12.0137 14.5652C11.6375 14.7214 11.3536 14.622 11.162 14.2671C11.0626 14.0826 10.8993 13.9406 10.7077 13.8625C10.3244 13.7064 9.96949 13.7064 9.63588 13.8696C9.47973 13.9477 9.38745 14.0684 9.36616 14.2387C9.33067 14.4304 9.46553 14.5865 9.77075 14.7001C9.82753 14.7214 9.89141 14.7356 9.9553 14.7285C10.8426 14.693 11.4956 15.0195 11.9215 15.6938C12.1131 15.9991 12.0208 16.1552 11.6588 16.1481ZM30.7101 14.3594C30.1067 14.6646 29.4466 14.8066 28.7439 14.7924C28.4174 14.7853 28.3393 14.9272 28.5026 15.2112C28.6232 15.4099 28.7936 15.5377 29.0136 15.5945C29.3117 15.6725 29.5886 15.63 29.8512 15.4738C30.4119 15.1402 31.0153 14.8776 31.6683 14.7001C32.3426 14.5227 32.3852 14.2458 31.7961 13.8767C31.505 13.6922 31.2566 13.7561 31.0437 14.0684C30.9585 14.1961 30.8449 14.2955 30.7101 14.3594ZM29.4537 17.7523C29.3685 17.2057 29.5957 16.9644 30.1422 17.0141L32.3284 17.2199C32.7117 17.2554 32.9814 16.8579 32.8111 16.5172C32.6194 16.1268 32.2929 16.0132 31.8316 16.1623C30.9301 16.4675 30.0783 16.5385 29.2692 16.3752C29.0207 16.3256 28.9001 16.432 28.9001 16.6805V19.179C28.9001 19.4842 29.0491 19.6333 29.3543 19.6333L32.4562 19.6688C32.6762 19.6688 32.7898 19.5623 32.7969 19.3422L32.8111 18.9802C32.8182 18.7389 32.7046 18.6182 32.4633 18.6253L30.128 18.6679C29.7802 18.675 29.5744 18.4976 29.5176 18.1498L29.4537 17.7523ZM12.0847 18.8312C12.0066 18.6608 11.8789 18.5827 11.6943 18.5898L8.95447 18.7389C8.74862 18.7531 8.64925 18.8596 8.64925 19.0654L8.65635 19.2855C8.65635 19.5055 8.76992 19.6049 8.98996 19.5907L11.1904 19.4345C11.4175 19.4203 11.6162 19.4913 11.7795 19.6546C12.0066 19.8746 12.0918 20.1514 12.0279 20.485C11.8718 21.3439 12.1344 21.5001 12.8158 20.9464C12.9223 20.8541 12.681 20.1514 12.0847 18.8312ZM13.4522 22.0904C13.3056 21.8692 13.0146 21.8124 12.7938 21.9529L10.2636 23.6086C10.0405 23.7501 9.98369 24.0483 10.1261 24.267L10.1494 24.3026C10.296 24.5238 10.587 24.5806 10.8078 24.4401L13.338 22.7844C13.5611 22.6428 13.6179 22.3447 13.4755 22.126L13.4522 22.0904ZM27.6792 23.2249C27.7502 23.1326 27.7573 23.0474 27.7076 22.9694C27.5656 22.7493 27.4095 22.7422 27.232 22.941L26.5506 23.7289C26.3589 23.9489 26.3731 24.1405 26.6074 24.318L28.971 26.0996C29.1343 26.2203 29.3614 26.199 29.5034 26.0499L29.6879 25.8512C29.8157 25.7092 29.7802 25.4821 29.6099 25.3827C28.7794 24.9071 28.1264 24.2896 27.6579 23.5301C27.6011 23.4307 27.6082 23.3101 27.6792 23.2249ZM14.7323 24.247C14.6542 25.3401 14.2638 26.2842 13.5611 27.072C13.3979 27.2566 13.405 27.5334 13.5753 27.7109L13.7173 27.8599C13.8379 27.9806 14.0296 27.9735 14.1361 27.8457C14.7536 27.0649 15.1653 26.3196 15.3569 25.6169C15.4421 25.3117 15.5699 25.2904 15.7402 25.5531C15.8822 25.7731 16.0738 25.9151 16.3223 25.9931C16.7269 26.1138 16.7836 26.3267 16.4926 26.6391C16.4429 26.6887 16.3932 26.7242 16.3294 26.7597C16.0525 26.8946 15.9106 27.1217 15.9035 27.434C15.9035 27.8883 15.7189 28.2432 15.3569 28.5059C15.2079 28.6123 15.1795 28.8253 15.293 28.9743L15.4208 29.1305C15.5131 29.2512 15.6834 29.2724 15.8041 29.1802C16.4926 28.662 16.8546 28.0232 16.8901 27.2637C16.9043 26.9869 17.1243 26.7668 17.4012 26.7455L18.04 26.71C18.2246 26.6958 18.3878 26.8307 18.4091 27.0224C18.5298 28.2929 17.7348 28.3923 17.5715 29.2653C17.5289 29.4854 17.5573 29.6841 17.6567 29.8758C17.7916 30.1171 18.1465 30.0887 18.2387 29.8332L19.346 26.7881C19.4809 26.4261 19.8642 26.2132 20.2333 26.3055L21.9865 26.7029C22.2634 26.7668 22.384 26.9372 22.3485 27.2211C22.2421 28.1226 22.3343 28.9672 22.6254 29.748C22.675 29.8758 22.7744 29.9184 22.9306 29.8687C23.1293 29.8048 23.25 29.6203 23.2358 29.4144C23.1577 28.4988 23.1719 27.5334 23.2855 26.5326C23.3139 26.27 23.2003 26.1209 22.9377 26.0783L19.8855 25.6311C19.6655 25.5956 19.4667 25.6382 19.2751 25.7589C17.5076 26.8662 16.0738 25.1201 14.7323 24.247C14.6329 23.6863 14.4413 23.3101 14.1503 23.1113C13.9302 22.9552 13.7741 23.0048 13.6747 23.2533C13.2985 24.1973 12.6526 25.0136 11.7227 25.7021C11.6375 25.766 11.6233 25.837 11.6801 25.9293L11.7724 26.0783C11.8505 26.2132 11.957 26.2416 12.0918 26.1635C12.7448 25.7873 13.334 25.2265 13.8521 24.4954C13.987 24.3038 14.278 24.2257 14.7323 24.247ZM25.3865 25.6169C26.0963 26.1422 26.6358 26.8236 27.012 27.6683C27.1255 27.9167 27.3172 28.0303 27.5869 27.9948C27.7076 27.9806 27.8069 27.9309 27.8921 27.8386C28.1831 27.5263 28.1548 27.2495 27.8069 27.0011C26.9978 26.4261 26.4228 25.6737 26.0821 24.7581C25.9685 24.4529 25.8053 24.4245 25.5923 24.6729C25.4433 24.8362 25.3368 25.0349 25.2658 25.2549C25.2233 25.404 25.2658 25.5247 25.3865 25.6169ZM23.8107 26.5468C24.2863 27.2282 24.6412 28.009 24.8612 28.8821C24.9109 29.095 25.0458 29.2157 25.2658 29.2512C25.4717 29.2724 25.6278 29.095 25.7414 28.7117C25.8124 28.4633 25.7485 28.2006 25.5782 28.0161C24.9251 27.3276 24.698 26.5823 24.8967 25.7731C24.9464 25.5743 24.7761 25.3898 24.5702 25.4182C24.2579 25.4679 24.0024 25.6382 23.8036 25.9364C23.6688 26.1422 23.6688 26.3409 23.8107 26.5468Z" fill="#FFFEFF"/>
<path d="M13.618 10.7749C14.5621 11.5628 15.9959 10.9381 16.0598 9.71016C16.1023 8.88678 15.8113 7.99953 15.1938 7.04838C15.1157 6.92772 15.1938 6.76446 15.3358 6.75736L15.8752 6.71477C15.9888 6.70768 16.0882 6.77156 16.1378 6.87093L17.451 9.78824C17.6 10.1077 17.3445 10.4626 16.9896 10.4342C16.3579 10.3703 16.0101 10.6329 15.9604 11.215C15.9462 11.3356 15.8823 11.3995 15.7616 11.4066C15.1725 11.435 14.8034 11.7331 14.6685 12.3081C14.5621 12.741 14.2923 12.954 13.8523 12.9469C13.76 12.9469 13.6819 12.8759 13.6748 12.7836C13.5612 11.8822 12.9863 11.1014 11.95 10.4555C11.9074 10.4271 11.8861 10.3845 11.8932 10.3348L11.9642 9.916C11.9926 9.71016 12.241 9.61789 12.3972 9.75275L13.618 10.7749Z" fill="#D93176"/>
<path d="M11.1123 7.0484C12.1203 7.52397 13.1992 6.97032 13.9019 7.36781C14.3349 7.60914 14.5123 8.03503 14.4342 8.64546C14.3704 9.17072 14.1219 9.29139 13.6747 9.00746L12.5958 8.32605C12.0848 8.00664 11.4247 8.10601 11.0414 8.56738C8.91194 11.0872 7.63429 13.9051 7.2155 17.0283C7.08064 18.0362 7.14452 19.1222 7.39295 20.2863C7.44264 20.5134 7.56331 20.698 7.75496 20.8329C8.44347 21.3155 9.21006 21.5001 10.0689 21.3865C10.3599 21.351 10.58 21.6278 10.4806 21.8976C10.2961 22.4157 9.92697 22.7777 9.36622 22.9907C8.83386 23.1965 8.61382 23.8353 8.91194 24.3251C10.509 26.9301 12.5674 28.9318 15.1015 30.3301C15.1228 30.3372 15.7261 30.5359 16.9115 30.9263C17.6142 31.1605 18.2033 31.6432 18.6647 32.3743C13.4405 31.4019 9.74242 28.5343 7.57041 23.7573C7.87562 23.3598 8.08147 22.9694 8.20213 22.579C8.27311 22.3589 8.20213 22.2028 7.98209 22.1105L6.81091 21.6562L6.37793 19.4132V16.503C6.8535 12.7765 8.43637 9.625 11.1123 7.0484Z" fill="#D93176"/>
<path d="M24.1231 9.39075C24.5915 8.85839 24.6625 8.32604 24.8258 7.66592C24.8754 7.48137 24.9819 7.3536 25.1594 7.28972C25.2233 7.26842 25.2871 7.26133 25.3581 7.26842C25.5072 7.28972 25.5782 7.3678 25.5711 7.51686C25.5072 8.63125 24.6625 9.08553 24.8542 10.2354C24.8825 10.4271 24.7193 10.5974 24.5205 10.5761L24.1585 10.5264C23.9172 10.4909 23.8036 10.3561 23.8178 10.1148C23.8391 9.85212 23.9385 9.61079 24.1231 9.39075Z" fill="#C7195C"/>
<path d="M30.2487 11.9816L30.5965 11.5699C30.7739 11.364 30.9443 11.3711 31.1075 11.577C31.1927 11.6834 31.1998 11.797 31.1359 11.9177C30.7739 12.6204 30.2345 13.0818 29.5318 13.316C29.3472 13.3728 29.184 13.5005 29.0846 13.6638L28.68 14.3168C28.5309 14.5652 28.3393 14.6007 28.1051 14.4304C27.6579 14.111 27.452 13.7064 27.4804 13.2237C27.4946 13.0037 27.4023 12.8475 27.2107 12.7552C26.8132 12.5636 26.5364 12.2726 26.3731 11.8822C26.2241 11.5344 25.9543 11.3427 25.5639 11.3072C25.4859 11.3001 25.4575 11.2434 25.4788 11.1227C25.5427 10.8459 25.6917 10.7891 25.9259 10.9523C26.8558 11.6054 27.6863 11.3782 28.4103 10.2709C28.6303 9.93731 28.9284 9.80244 29.2904 9.86633C29.908 9.97989 29.9577 10.2212 29.4466 10.5832C28.6161 11.1724 27.9915 11.8112 27.5585 12.4855C27.4449 12.6559 27.5372 12.8901 27.736 12.9469L27.9986 13.025C28.3748 13.1243 28.7652 13.0037 29.0207 12.7198C29.2407 12.4713 29.5034 12.3152 29.8157 12.2442C29.986 12.2016 30.1351 12.1093 30.2487 11.9816Z" fill="#D93176"/>
<path d="M28.0198 20.2153C27.8424 20.2863 27.672 20.407 27.5016 20.5844C27.3455 21.6846 26.8273 22.437 25.9543 22.8487C25.6845 22.9765 25.4716 23.1681 25.3083 23.4307C23.8887 25.7731 20.7301 25.3685 18.2032 25.2124C17.0675 25.1485 16.0525 24.4387 15.9034 23.2817C15.8679 23.0333 15.733 22.8771 15.4846 22.8132C14.1857 22.4938 13.5539 21.7059 13.5965 20.4496C13.6036 20.2437 13.5468 20.0521 13.4262 19.8888C11.9569 17.8233 13.2132 16.7586 13.6462 14.8421C13.8733 13.8341 14.4696 13.2308 15.4349 13.0321C15.7401 12.9682 15.9176 12.7765 15.9602 12.4642L16.017 12.0525C16.0525 11.7757 16.2086 11.5983 16.4712 11.506C16.7907 11.3853 17.0675 11.1937 17.2875 10.931C17.4508 10.7323 17.6566 10.6329 17.9122 10.6329L22.6608 10.64C23.5551 10.64 24.3856 11.1014 24.8541 11.8609C25.2516 12.5139 25.7697 13.0108 26.4014 13.3444C26.7067 13.5076 26.9338 13.7845 27.0403 14.1181C27.1751 14.5511 27.4023 14.9414 27.7075 15.2751C27.8849 15.4667 27.9772 15.6938 27.9772 15.9565L28.0198 20.2153ZM19.2182 18.9661C20.1338 19.3564 21.0353 19.3352 21.9084 18.9093C22.5259 18.6041 23.2428 19.0583 23.2428 19.7468L23.2357 22.508C23.2357 22.7209 23.3351 22.8061 23.5409 22.7564L23.8603 22.6854C24.1797 22.6145 24.3359 22.4157 24.3359 22.0963L24.343 19.0157C24.343 18.746 24.2152 18.4834 23.9952 18.3201L23.3635 17.8446C23.186 17.7097 23.0795 17.4968 23.0795 17.2767L23.0724 14.6007C23.0724 14.3878 23.1576 14.2174 23.328 14.0897C23.3919 14.04 23.4557 13.9903 23.5267 13.9406C23.6545 13.8554 23.7681 13.7561 23.8674 13.6354C23.9668 13.5147 23.9668 13.3941 23.8674 13.2734C23.6829 13.0392 23.4486 12.954 23.1576 13.0108C22.1568 13.2095 21.376 12.9753 20.8153 12.3152C20.5313 11.9816 20.2829 12.0028 20.0771 12.3932C19.7435 13.0321 19.2466 13.2308 18.6007 12.9824C18.3664 12.8972 18.0683 12.9185 17.6992 13.0534C17.6353 13.0747 17.5714 13.096 17.5076 13.1172C17.174 13.2237 17.1527 13.3799 17.4437 13.5786L18.0825 14.0116C18.3096 14.1678 18.4445 14.4304 18.4374 14.7072L18.3664 17.2767C18.3593 17.5748 18.1819 17.8446 17.9122 17.9652C17.6069 18.1001 17.3372 18.2917 17.1101 18.5473C16.9468 18.7318 16.8616 18.9448 16.8616 19.1861L16.8261 21.8976C16.819 22.3305 17.032 22.6003 17.4579 22.6925L17.756 22.7564C18.1109 22.8345 18.2883 22.6925 18.2883 22.3305L18.2813 19.5836C18.2813 19.1009 18.771 18.7815 19.2182 18.9661ZM22.3246 20.7379C22.3201 20.3644 22.0077 20.0592 21.6337 20.0661L19.5612 20.0951C19.1827 20.1017 18.8846 20.407 18.8894 20.7859L18.9084 22.1486C18.913 22.5222 19.2253 22.8274 19.5993 22.8205L21.6718 22.7915C22.0503 22.7848 22.3484 22.4796 22.3436 22.1006L22.3246 20.7379Z" fill="#C7195C"/>
<path d="M54.0272 14.551L55.2693 14.5369C55.4184 14.5298 55.5462 14.6575 55.5391 14.8066L55.5249 15.6938C55.5178 15.8429 55.3971 15.9636 55.248 15.9636L54.0272 15.9494C53.871 15.9494 53.7503 16.07 53.7503 16.2262L53.7716 19.2216C53.7716 19.3706 53.6581 19.4913 53.509 19.4984L52.2881 19.5481C52.132 19.5552 52.0042 19.4345 52.0042 19.2784L51.9758 11.2717C51.9758 11.1227 52.0965 11.002 52.2456 11.002L53.4948 10.9949C53.6439 10.9949 53.7645 11.1156 53.7645 11.2646L53.7503 14.2813C53.7503 14.4375 53.871 14.5581 54.0272 14.551Z" fill="#1F1F1E"/>
<path d="M78.9557 13.1243V11.3498C78.9557 11.1511 79.1118 10.9949 79.3106 10.9949H80.3753C80.6095 10.9949 80.7302 11.1156 80.7302 11.3498V18.817C80.7302 19.0654 80.6024 19.1861 80.354 19.1719L79.3602 19.1222C79.0834 19.108 78.9486 18.959 78.9557 18.6821L78.9699 17.9297C78.977 17.6813 78.8563 17.5606 78.6149 17.5606H76.1945C75.8893 17.5606 75.7402 17.4116 75.7402 17.1064V16.6876C75.7331 16.3256 75.9177 16.141 76.2797 16.141H78.4588C78.7924 16.141 78.9699 15.9778 79.0053 15.6512L79.0337 15.4312C79.0621 15.1544 78.8421 14.9201 78.5653 14.9131L76.4784 14.8847C76.2158 14.8776 76.0313 14.9911 75.9106 15.2183C74.8317 17.2412 73.0075 18.5969 70.4451 19.2784C70.296 19.3139 70.1895 19.2713 70.1257 19.1435C69.9127 18.7318 69.792 18.3059 69.7708 17.8588C69.7708 17.8162 69.792 17.7878 69.8346 17.7807C72.1273 17.3122 73.7386 16.0274 74.6684 13.9335C74.7678 13.7206 74.6045 13.4792 74.3703 13.4792H70.6154C70.3741 13.4792 70.2534 13.3586 70.2605 13.1243L70.2747 12.4074C70.2747 12.1732 70.3883 12.0596 70.6225 12.0596L76.1093 12.0525C76.3862 12.0525 76.5068 12.1945 76.4571 12.4713C76.4216 12.6843 76.4287 12.8972 76.4784 13.1101C76.4997 13.2308 76.5778 13.2947 76.6985 13.2947L78.7782 13.3018C78.8989 13.3018 78.9557 13.245 78.9557 13.1243Z" fill="#1F1F1E"/>
<path d="M105.403 13.5005L105.389 11.3498C105.389 11.1156 105.509 10.9949 105.751 10.9949H106.815C107.05 10.9949 107.17 11.1156 107.17 11.3498V24.3109C107.17 24.5522 107.05 24.6729 106.808 24.6658L105.644 24.6374C105.502 24.6303 105.389 24.5167 105.389 24.3748L105.403 20.045C105.403 19.8462 105.24 19.683 105.041 19.683L102.883 19.6901C102.649 19.6901 102.429 19.8107 102.301 20.0095C101.201 21.7343 99.7884 22.1673 98.0777 21.3155C94.8907 19.7397 95.4727 11.1227 100.243 12.1235C100.952 12.2726 101.499 12.6275 101.882 13.1953C102.457 14.0471 103.508 14.2955 105.048 13.9477C105.282 13.8909 105.403 13.7419 105.403 13.5005ZM99.5239 20.2152C100.541 20.2224 101.371 18.746 101.385 16.9134C101.4 15.0834 100.583 13.5928 99.5702 13.5858C98.5533 13.5786 97.7228 15.055 97.7087 16.8877C97.6944 18.7176 98.5107 20.2082 99.5239 20.2152ZM105.383 15.6456C105.382 15.5235 105.282 15.417 105.154 15.4208L103.152 15.4418C103.025 15.4454 102.926 15.5448 102.927 15.6713L102.952 18.0561C102.954 18.1782 103.053 18.2846 103.182 18.2809L105.184 18.2599C105.311 18.2562 105.41 18.1569 105.408 18.0304L105.383 15.6456Z" fill="#1F1F1E"/>
<path d="M119.883 16.3256L121.445 16.3114C121.608 16.3114 121.736 16.4462 121.736 16.6095L121.707 17.6387C121.7 17.7949 121.573 17.9226 121.416 17.9226L119.883 17.9084C119.727 17.9084 119.592 18.0433 119.592 18.1995L119.599 24.3464C119.599 24.5025 119.471 24.6303 119.315 24.6374L118.116 24.6658C117.952 24.6729 117.818 24.538 117.818 24.3748V11.2788C117.818 11.1156 117.945 10.9878 118.109 10.9878L119.301 10.9949C119.464 10.9949 119.592 11.1227 119.592 11.2859V16.0345C119.592 16.1907 119.727 16.3256 119.883 16.3256Z" fill="#1F1F1E"/>
<path d="M151.853 12.1519L151.917 11.2646C151.924 11.1156 152.051 10.9949 152.201 10.9949L153.386 10.9878C153.549 10.9878 153.677 11.1227 153.677 11.2859L153.649 12.1022C153.649 12.2655 153.776 12.4003 153.94 12.4003L156.374 12.4145C156.53 12.4145 156.665 12.5494 156.658 12.7055L156.651 13.5502C156.644 13.7064 156.516 13.8341 156.36 13.8341H148.985C148.822 13.8341 148.694 13.7064 148.694 13.5431L148.687 12.6985C148.687 12.5352 148.822 12.4003 148.985 12.4003L151.562 12.4287C151.718 12.4287 151.846 12.3081 151.853 12.1519Z" fill="#1F1F1E"/>
<path d="M159.334 16.4036L159.348 19.4558C159.348 19.5907 159.242 19.7113 159.1 19.7255L157.872 19.8107C157.716 19.8249 157.581 19.6972 157.581 19.541L157.56 11.2646C157.56 11.1156 157.68 10.9949 157.829 10.9949H159.079C159.228 10.9949 159.348 11.1156 159.348 11.2646L159.334 14.4588C159.334 14.6078 159.455 14.7285 159.604 14.7285L160.86 14.7143C161.009 14.7143 161.137 14.8421 161.13 14.9911L161.116 15.8855C161.109 16.0345 160.988 16.1552 160.839 16.1481L159.611 16.1339C159.455 16.1268 159.334 16.2475 159.334 16.4036Z" fill="#1F1F1E"/>
<path d="M93.6272 11.1795H92.3212C92.1918 11.1795 92.0869 11.2843 92.0869 11.4137V20.8683C92.0869 20.9977 92.1918 21.1026 92.3212 21.1026H93.6272C93.7566 21.1026 93.8614 20.9977 93.8614 20.8683V11.4137C93.8614 11.2843 93.7566 11.1795 93.6272 11.1795Z" fill="#1F1F1E"/>
<path d="M13.6116 13.2098L10.7542 11.3542C10.6655 11.2965 10.5468 11.3217 10.4891 11.4105L10.2031 11.851C10.1454 11.9398 10.1706 12.0585 10.2594 12.1161L13.1168 13.9718C13.2056 14.0294 13.3243 14.0042 13.3819 13.9154L13.668 13.4749C13.7256 13.3861 13.7004 13.2674 13.6116 13.2098Z" fill="#D93176"/>
<path d="M138.757 13.2379V14.7782C138.757 14.9414 138.892 15.0763 139.055 15.0763L146.103 15.0692C146.274 15.0692 146.408 15.2041 146.401 15.3744L146.38 16.2049C146.373 16.3681 146.245 16.4959 146.082 16.4959H137.294C137.131 16.4959 136.996 16.361 136.996 16.1978L136.982 11.8254C136.982 11.6621 137.117 11.5273 137.28 11.5273L145.926 11.5202C146.089 11.5202 146.224 11.6621 146.224 11.8254L146.195 12.663C146.195 12.8262 146.061 12.954 145.897 12.954L139.055 12.9398C138.892 12.9398 138.757 13.0746 138.757 13.2379Z" fill="#1F1F1E"/>
<path d="M48.6682 13.2947H43.9196C43.7634 13.2947 43.6285 13.1669 43.6214 13.0108L43.593 12.2158C43.5859 12.0454 43.7208 11.9035 43.8912 11.9035L50.322 11.8751C50.4924 11.8751 50.6343 12.0241 50.6201 12.1945L50.3788 16.1694C50.3646 16.3398 50.2155 16.4675 50.0523 16.4533L48.8953 16.3327C48.732 16.3185 48.6114 16.1623 48.6327 15.9991L48.9592 13.6354C48.9876 13.4579 48.8456 13.2947 48.6682 13.2947Z" fill="#1F1F1E"/>
<path d="M60.9974 13.316L57.8175 13.2947C57.4555 13.2876 57.2781 13.1101 57.271 12.7481V12.4358C57.2639 12.0667 57.4484 11.8822 57.8175 11.8822H67.1586C67.336 11.8822 67.4283 11.9745 67.4283 12.1519L67.4212 12.9398C67.4212 13.174 67.3076 13.2947 67.0734 13.2947L63.7302 13.316C63.3895 13.316 63.2049 13.7064 63.4179 13.969C64.511 15.3105 65.8454 16.1268 67.4212 16.4178C67.769 16.4817 67.8613 16.6663 67.7051 16.9857L67.4993 17.4116C67.3502 17.7026 67.1231 17.8233 66.8037 17.7665C64.9511 17.4542 63.5457 16.6521 62.5874 15.3531C62.4525 15.1757 62.3177 15.1686 62.1757 15.346C61.0116 16.8153 59.4998 17.6245 57.6472 17.7736C57.4768 17.7878 57.3703 17.7168 57.3206 17.5535L57.0296 16.5172C57.0083 16.4462 57.0367 16.4036 57.1077 16.3965C59.0029 16.1623 60.3941 15.3034 61.2743 13.8199C61.473 13.4863 61.3807 13.3231 60.9974 13.316Z" fill="#1F1F1E"/>
<path d="M86.7138 16.5882C86.0395 17.6103 85.1877 18.4408 84.1443 19.0725C83.7823 19.2926 83.4771 19.2287 83.2428 18.8738L82.9518 18.4408C82.7389 18.1143 82.8027 17.8588 83.1505 17.6813C85.209 16.6237 86.1672 14.7356 86.0324 12.0312C86.0324 11.9532 86.0679 11.9177 86.1388 11.9177L87.4662 11.8751C87.5797 11.868 87.6649 11.9674 87.6578 12.0809C87.4804 14.6717 88.4457 16.4533 90.5538 17.4258C90.9442 17.6032 91.001 17.8587 90.7313 18.1924L90.419 18.5757C90.1563 18.9022 89.8369 18.9802 89.4536 18.8028C88.4244 18.3272 87.672 17.5961 87.2035 16.6166C87.0616 16.3185 86.8983 16.3114 86.7138 16.5882Z" fill="#1F1F1E"/>
<path d="M19.2181 18.9661C18.771 18.7815 18.2812 19.1009 18.2812 19.5836L18.2883 22.3305C18.2883 22.6925 18.1109 22.8345 17.7559 22.7564L17.4578 22.6925C17.0319 22.6003 16.819 22.3305 16.8261 21.8976L16.8616 19.1861C16.8616 18.9448 16.9468 18.7318 17.11 18.5473C17.3372 18.2917 17.6069 18.1001 17.9121 17.9652C18.1818 17.8446 18.3593 17.5748 18.3664 17.2767L18.4374 14.7072C18.4445 14.4304 18.3096 14.1678 18.0825 14.0116L17.4436 13.5786C17.1526 13.3799 17.1739 13.2237 17.5075 13.1172C17.5714 13.0959 17.6353 13.0747 17.6992 13.0534C18.0683 12.9185 18.3664 12.8972 18.6006 12.9824C19.2465 13.2308 19.7434 13.0321 20.077 12.3932C20.2829 12.0028 20.5313 11.9816 20.8152 12.3152C21.376 12.9753 22.1568 13.2095 23.1576 13.0108C23.4486 12.954 23.6828 13.0392 23.8674 13.2734C23.9668 13.3941 23.9668 13.5147 23.8674 13.6354C23.768 13.7561 23.6544 13.8554 23.5267 13.9406C23.4557 13.9903 23.3918 14.04 23.3279 14.0897C23.1576 14.2174 23.0724 14.3878 23.0724 14.6007L23.0795 17.2767C23.0795 17.4968 23.186 17.7097 23.3634 17.8446L23.9952 18.3201C24.2152 18.4834 24.343 18.746 24.343 19.0157L24.3359 22.0963C24.3359 22.4157 24.1797 22.6145 23.8603 22.6854L23.5409 22.7564C23.335 22.8061 23.2357 22.7209 23.2357 22.508L23.2428 19.7468C23.2428 19.0583 22.5259 18.6041 21.9083 18.9093C21.0353 19.3352 20.1338 19.3564 19.2181 18.9661ZM20.0486 14.402C20.4532 14.5653 20.8365 14.5936 21.1985 14.5014C21.5321 14.4091 21.5534 14.2742 21.2695 14.0826C20.8933 13.8271 20.4816 13.8058 20.0344 14.0187C19.7434 14.1536 19.7505 14.2813 20.0486 14.402ZM20.7726 16.2262C20.9927 16.3398 21.1985 16.2901 21.4044 16.0771C21.6386 15.8358 21.6031 15.6584 21.2837 15.5377C20.7158 15.3247 20.1977 15.3602 19.7221 15.6513C19.4098 15.8429 19.424 15.992 19.7718 16.1055C19.9563 16.1623 20.148 16.1765 20.3396 16.1481C20.4887 16.1268 20.6378 16.1552 20.7726 16.2262ZM20.9004 16.9644C20.5455 17.0354 20.1835 16.9573 19.8499 17.0212C19.4169 17.1064 19.3175 17.6813 19.7008 17.9084C20.148 18.1711 20.6378 18.2562 21.1843 18.1498C21.3547 18.1214 21.4753 18.0291 21.5534 17.873C21.6599 17.66 21.6599 17.4471 21.5534 17.227C21.4895 17.1064 21.3973 17.0283 21.2766 16.9857C21.1559 16.9431 21.0282 16.936 20.9004 16.9644Z" fill="#FFFEFF"/>
<path d="M112.892 18.8241C112.118 20.2011 111.465 21.3226 109.996 22.0821C109.783 22.1886 109.612 22.146 109.492 21.9401L108.917 21.0103C108.824 20.8612 108.853 20.7477 109.002 20.6554C111.323 19.2287 112.366 17.0709 112.146 14.189C112.125 13.9477 111.997 13.827 111.749 13.827L109.662 13.8412C109.421 13.8483 109.3 13.7277 109.3 13.4863V12.7694C109.3 12.5707 109.456 12.4145 109.655 12.4145H116.391C116.625 12.4145 116.739 12.5281 116.746 12.7623L116.76 13.4792C116.767 13.7277 116.646 13.8483 116.398 13.8412L114.276 13.827C114.041 13.827 113.914 13.9477 113.9 14.1819C113.779 16.7869 114.78 18.8099 116.909 20.2579C117.271 20.5063 117.3 20.7832 116.987 21.0955L116.505 21.571C116.299 21.7769 116.072 21.7982 115.823 21.6349C114.737 20.9109 113.956 19.9882 113.481 18.8596C113.303 18.4479 113.112 18.4337 112.892 18.8241Z" fill="#1F1F1E"/>
<path d="M131.325 13.8412L123.787 13.8341C123.645 13.8341 123.524 13.7135 123.517 13.5715L123.503 12.6913C123.496 12.5423 123.624 12.4145 123.773 12.4145L133.092 12.4287C133.249 12.4287 133.376 12.5636 133.362 12.7197L132.851 19.832C132.837 19.974 132.723 20.0804 132.581 20.0875L131.346 20.1088C131.19 20.1159 131.062 19.974 131.077 19.8178L131.595 14.1323C131.609 13.9761 131.488 13.8412 131.325 13.8412Z" fill="#1F1F1E"/>
<path d="M170.748 13.8341H163.416C163.181 13.8341 163.061 13.7135 163.061 13.4721L163.068 12.7694C163.075 12.5352 163.189 12.4145 163.423 12.4145H172.352C172.636 12.4145 172.785 12.5565 172.799 12.8404C172.941 15.3744 172.806 17.7239 172.395 19.8888C172.373 20.0095 172.253 20.0875 172.132 20.0591L170.847 19.7894C170.783 19.7681 170.748 19.7255 170.755 19.6617L171.28 14.4233C171.323 14.0329 171.145 13.8341 170.748 13.8341Z" fill="#1F1F1E"/>
<path d="M11.9213 15.6938C11.4955 15.0195 10.8424 14.693 9.95517 14.7285C9.89129 14.7356 9.82741 14.7214 9.77062 14.7001C9.4654 14.5865 9.33054 14.4304 9.36603 14.2387C9.38733 14.0684 9.4796 13.9477 9.63576 13.8696C9.96937 13.7064 10.3243 13.7064 10.7076 13.8625C10.8992 13.9406 11.0625 14.0826 11.1618 14.2671C11.3535 14.622 11.6374 14.7214 12.0136 14.5652C12.5034 14.3523 13.0144 14.8137 12.8654 15.3247C12.7802 15.6016 12.6737 15.9565 12.546 16.4036C12.3969 16.8934 11.9497 17.2199 11.4458 17.2128L9.1034 17.1915C8.91175 17.1915 8.7627 17.0354 8.7627 16.8437V16.6663C8.7627 16.3752 9.00403 16.1339 9.29505 16.1339L11.6587 16.1481C12.0207 16.1552 12.113 15.9991 11.9213 15.6938Z" fill="#D93176"/>
<path d="M20.0345 14.0187C20.4816 13.8057 20.8933 13.827 21.2695 14.0826C21.5534 14.2742 21.5322 14.4091 21.1985 14.5014C20.8365 14.5936 20.4532 14.5652 20.0487 14.402C19.7505 14.2813 19.7434 14.1535 20.0345 14.0187Z" fill="#D93176"/>
<path d="M31.0436 14.0684C31.2565 13.7561 31.505 13.6922 31.796 13.8767C32.3851 14.2458 32.3425 14.5226 31.6682 14.7001C31.0152 14.8776 30.4119 15.1402 29.8511 15.4738C29.5885 15.6299 29.3117 15.6725 29.0135 15.5945C28.7935 15.5377 28.6231 15.4099 28.5025 15.2112C28.3392 14.9272 28.4173 14.7853 28.7438 14.7924C29.4465 14.8066 30.1066 14.6646 30.71 14.3594C30.8448 14.2955 30.9584 14.1961 31.0436 14.0684Z" fill="#C7195C"/>
<path d="M156.097 16.7832C156.076 18.2207 154.543 19.3564 152.678 19.3277C150.809 19.2997 149.319 18.1143 149.341 16.6771C149.361 15.2396 150.895 14.1039 152.76 14.1326C154.628 14.1606 156.119 15.346 156.097 16.7832ZM154.415 16.7384C154.415 16.0913 153.649 15.5732 152.708 15.5732C151.768 15.5732 151.008 16.1055 151.008 16.7503C151.008 17.3974 151.775 17.9155 152.716 17.9155C153.656 17.9155 154.415 17.3832 154.415 16.7384Z" fill="#1F1F1E"/>
<path d="M45.6019 17.0851L45.5806 15.2041C45.5735 15.0337 45.7084 14.8988 45.8787 14.8988H46.915C47.0854 14.8988 47.2202 15.0408 47.2131 15.2112L47.1493 16.9786C47.1422 17.156 47.2841 17.298 47.4616 17.2838L51.1668 17.0638C51.3655 17.0567 51.5146 17.2341 51.472 17.4258L51.3087 18.2065C51.2803 18.3343 51.1668 18.4337 51.0319 18.4408L43.4157 18.9093C43.2737 18.9164 43.1389 18.8241 43.1034 18.6821L42.8691 17.7594C42.8194 17.5677 42.9614 17.3832 43.153 17.3832L45.3038 17.3903C45.4741 17.3903 45.609 17.2554 45.6019 17.0851Z" fill="#1F1F1E"/>
<path d="M20.3398 16.1481C20.1482 16.1765 19.9565 16.1623 19.772 16.1055C19.4242 15.992 19.41 15.8429 19.7223 15.6513C20.1979 15.3602 20.716 15.3247 21.2839 15.5377C21.6033 15.6583 21.6388 15.8358 21.4045 16.0771C21.1987 16.2901 20.9929 16.3398 20.7728 16.2262C20.638 16.1552 20.4889 16.1268 20.3398 16.1481Z" fill="#C7195C"/>
<path d="M30.1279 18.6679L32.4631 18.6253C32.7045 18.6182 32.818 18.7389 32.8109 18.9802L32.7967 19.3422C32.7896 19.5623 32.6761 19.6688 32.456 19.6688L29.3542 19.6333C29.049 19.6333 28.8999 19.4842 28.8999 19.179V16.6805C28.8999 16.432 29.0206 16.3256 29.269 16.3753C30.0782 16.5385 30.93 16.4675 31.8314 16.1623C32.2928 16.0133 32.6193 16.1268 32.8109 16.5172C32.9813 16.8579 32.7116 17.2554 32.3283 17.2199L30.1421 17.0141C29.5955 16.9644 29.3684 17.2057 29.4536 17.7523L29.5174 18.1498C29.5742 18.4976 29.7801 18.675 30.1279 18.6679Z" fill="#C7195C"/>
<path d="M128.734 21.4717L134.228 21.4575C134.377 21.4575 134.498 21.5781 134.498 21.7272L134.512 22.6145C134.512 22.7635 134.392 22.8842 134.243 22.8842H122.524C122.375 22.8842 122.254 22.7635 122.254 22.6145L122.261 21.7343C122.261 21.5852 122.382 21.4646 122.531 21.4646L126.42 21.4575C126.57 21.4575 126.69 21.3368 126.69 21.1877L126.683 17.1489C126.683 16.9999 126.797 16.8792 126.946 16.8792L128.188 16.8295C128.337 16.8295 128.465 16.9502 128.465 17.0993V21.2019C128.465 21.351 128.585 21.4717 128.734 21.4717Z" fill="#1F1F1E"/>
<path d="M20.9003 16.9644C21.0281 16.936 21.1559 16.9431 21.2765 16.9857C21.3972 17.0283 21.4895 17.1064 21.5534 17.227C21.6598 17.4471 21.6598 17.66 21.5534 17.8729C21.4753 18.0291 21.3546 18.1214 21.1843 18.1498C20.6377 18.2562 20.1479 18.1711 19.7008 17.9084C19.3175 17.6813 19.4168 17.1064 19.8498 17.0212C20.1834 16.9573 20.5454 17.0354 20.9003 16.9644Z" fill="#D93176"/>
<path d="M164.665 21.1806L164.672 17.4967C164.672 17.3335 164.807 17.1986 164.97 17.1986L166.148 17.2128C166.311 17.2128 166.446 17.3477 166.446 17.5109L166.439 21.1593C166.439 21.3226 166.574 21.4575 166.737 21.4575H167.738C167.901 21.4575 168.036 21.3226 168.036 21.1593V17.5038C168.036 17.3406 168.164 17.2128 168.327 17.2057L169.328 17.1986C169.491 17.1915 169.626 17.3264 169.626 17.4896L169.64 21.1735C169.64 21.3368 169.775 21.4717 169.939 21.4717L173.772 21.4575C173.935 21.4575 174.07 21.5923 174.077 21.7556L174.084 22.579C174.091 22.7493 173.956 22.8842 173.786 22.8842H162.109C161.946 22.8842 161.811 22.7422 161.818 22.579L161.847 21.7414C161.847 21.5781 161.982 21.4504 162.145 21.4504L164.367 21.4788C164.53 21.4788 164.665 21.3439 164.665 21.1806Z" fill="#1F1F1E"/>
<path d="M147.53 17.3832H135.847C135.694 17.3832 135.57 17.5071 135.57 17.66V18.526C135.57 18.6789 135.694 18.8028 135.847 18.8028H147.53C147.683 18.8028 147.807 18.6789 147.807 18.526V17.66C147.807 17.5071 147.683 17.3832 147.53 17.3832Z" fill="#1F1F1E"/>
<path d="M12.0846 18.8312C12.6809 20.1514 12.9222 20.8541 12.8157 20.9464C12.1343 21.5001 11.8717 21.3439 12.0279 20.485C12.0917 20.1514 12.0066 19.8746 11.7794 19.6546C11.6162 19.4913 11.4174 19.4203 11.1903 19.4345L8.98988 19.5907C8.76984 19.6049 8.65627 19.5055 8.65627 19.2855L8.64917 19.0654C8.64917 18.8596 8.74854 18.7531 8.95439 18.7389L11.6942 18.5898C11.8788 18.5828 12.0066 18.6608 12.0846 18.8312Z" fill="#D93176"/>
<path d="M61.2033 20.0379L56.5896 20.045C56.3482 20.045 56.2276 19.9243 56.2347 19.683L56.2489 18.9731C56.256 18.7389 56.3695 18.6182 56.6038 18.6182L68.1452 18.6253C68.2801 18.6253 68.3724 18.6963 68.415 18.8312C68.493 19.0796 68.5214 19.3635 68.5143 19.683C68.5072 19.9243 68.3866 20.045 68.1452 20.045L63.5173 20.0379C63.3185 20.0379 63.1624 20.2011 63.1624 20.3999V24.3109C63.1624 24.5522 63.0417 24.6729 62.8004 24.6658L61.7357 24.6445C61.6221 24.6374 61.5653 24.5806 61.5653 24.4742V20.3928C61.5653 20.194 61.4021 20.0379 61.2033 20.0379Z" fill="#1F1F1E"/>
<path d="M80.8509 21.8885C80.858 23.4449 78.7853 24.7155 76.2328 24.7226C73.6747 24.7297 71.6021 23.4804 71.595 21.9208C71.5879 20.3644 73.6605 19.0938 76.2131 19.0867C78.7711 19.0796 80.8438 20.3289 80.8509 21.8885ZM79.1048 21.8997C79.1048 21.1381 77.8271 20.5205 76.2489 20.5205C74.6756 20.5205 73.3979 21.1452 73.3979 21.9096C73.3979 22.6712 74.6756 23.2888 76.2537 23.2888C77.8271 23.2888 79.1048 22.6642 79.1048 21.8997Z" fill="#1F1F1E"/>
<path d="M53.8994 22.1034C53.8994 23.5727 51.8055 24.7652 49.2289 24.7652C46.6523 24.7652 44.5583 23.5727 44.5583 22.1034C44.5583 20.6341 46.6523 19.4416 49.2289 19.4416C51.8055 19.4416 53.8994 20.6341 53.8994 22.1034ZM52.1036 22.1034C52.1036 21.4433 50.8188 20.9038 49.236 20.9038C47.6531 20.9038 46.3684 21.4433 46.3684 22.1034C46.3684 22.7635 47.6531 23.303 49.236 23.303C50.8188 23.303 52.1036 22.7635 52.1036 22.1034Z" fill="#1F1F1E"/>
<path d="M146.352 22.1506C146.359 23.594 144.222 24.7723 141.577 24.7794C138.934 24.7865 136.791 23.6295 136.783 22.184C136.776 20.7406 138.913 19.5623 141.558 19.5552C144.201 19.5481 146.345 20.7051 146.352 22.1506ZM144.478 22.1673C144.478 21.5001 143.165 20.9535 141.539 20.9535C139.914 20.9535 138.601 21.5001 138.601 22.1673C138.601 22.8345 139.914 23.381 141.539 23.381C143.165 23.381 144.478 22.8345 144.478 22.1673Z" fill="#1F1F1E"/>
<path d="M21.6339 20.0661L19.5615 20.095C19.1852 20.1003 18.8844 20.4096 18.8896 20.7859L18.9087 22.1486C18.9139 22.5249 19.2232 22.8257 19.5995 22.8204L21.672 22.7915C22.0483 22.7862 22.3491 22.4769 22.3438 22.1006L22.3248 20.7379C22.3195 20.3616 22.0102 20.0609 21.6339 20.0661Z" fill="#FFFEFF"/>
<path d="M86.8984 23.0616H93.9255C94.0888 23.0616 94.2236 23.1965 94.2236 23.3598V24.176C94.2236 24.3393 94.0888 24.4741 93.9255 24.4741L85.2801 24.4883C85.1168 24.4883 84.9819 24.3535 84.9819 24.1902L84.989 20.3431C84.989 20.1798 85.1168 20.0521 85.2801 20.045L86.2667 20.0379C86.4299 20.0308 86.5648 20.1656 86.5648 20.3289L86.6003 22.7635C86.6003 22.9268 86.7352 23.0616 86.8984 23.0616Z" fill="#1F1F1E"/>
<path d="M28.0199 20.2153C28.5309 20.6341 28.7865 21.2161 28.7936 21.9614C28.8007 22.1957 28.9071 22.3518 29.1272 22.437C29.9009 22.728 30.6603 23.2036 31.4056 23.8779C31.4269 23.8992 31.4269 23.9205 31.4127 23.9418L31.0933 24.4883C31.0295 24.609 30.9372 24.6303 30.8165 24.5522L28.3535 22.8913C28.2328 22.8061 28.0979 22.7706 27.9489 22.7848C27.8566 22.7919 27.7785 22.7706 27.7076 22.7067C27.594 22.6074 27.5727 22.4938 27.6508 22.3731C27.9418 21.8834 28.0696 21.351 28.027 20.7761C28.0199 20.6128 27.9276 20.5205 27.7643 20.4992C27.6863 20.4921 27.594 20.5205 27.5017 20.5844C27.6721 20.407 27.8424 20.2863 28.0199 20.2153Z" fill="#D93176"/>
<path d="M157.276 21.6349L150.589 21.6491C150.419 21.6491 150.277 21.5072 150.284 21.3368L150.291 20.4992C150.298 20.3289 150.433 20.194 150.604 20.194L159.029 20.2934C159.192 20.2934 159.327 20.4283 159.327 20.5915L159.356 24.3393C159.356 24.5025 159.221 24.6374 159.057 24.6445L157.872 24.6658C157.702 24.6729 157.56 24.5309 157.56 24.3606L157.581 21.9401C157.581 21.7698 157.446 21.6349 157.276 21.6349Z" fill="#1F1F1E"/>
<path d="M35.1888 20.4921C35.1817 21.1948 35.0894 21.8053 34.8978 22.3305C34.7771 22.6641 34.6636 22.6641 34.5429 22.3305C34.5216 22.2738 34.4577 22.2808 34.3512 22.3447C34.2874 22.3873 34.2519 22.4441 34.2448 22.5222C34.1951 23.2249 33.9892 23.885 33.6272 24.5096C33.6911 23.8353 33.613 23.2036 33.393 22.6216C33.3078 22.4015 33.3149 22.1815 33.4214 21.9685C33.7266 21.351 34.3158 20.8612 35.1888 20.4921Z" fill="#FFFEFF"/>
<path d="M6.81079 21.6562L7.98197 22.1105C8.20201 22.2028 8.27299 22.3589 8.20201 22.579C8.08135 22.9694 7.8755 23.3598 7.57028 23.7572L6.81079 21.6562Z" fill="#FFFEFF"/>
<path d="M12.7939 21.9529L10.2637 23.6086C10.0439 23.7524 9.98231 24.0472 10.1261 24.2669L10.1494 24.3026C10.2933 24.5224 10.588 24.5839 10.8078 24.4401L13.338 22.7844C13.5578 22.6406 13.6193 22.3458 13.4755 22.1261L13.4522 22.0904C13.3084 21.8706 13.0136 21.8091 12.7939 21.9529Z" fill="#D93176"/>
<path d="M27.6579 23.5301C28.1264 24.2896 28.7794 24.9071 29.6099 25.3827C29.7803 25.4821 29.8158 25.7092 29.688 25.8512L29.5034 26.0499C29.3615 26.199 29.1343 26.2203 28.9711 26.0996L26.6074 24.318C26.3732 24.1405 26.359 23.9489 26.5506 23.7289L27.2321 22.941C27.4095 22.7422 27.5657 22.7493 27.7076 22.9694C27.7573 23.0474 27.7502 23.1326 27.6792 23.2249C27.6083 23.3101 27.6012 23.4307 27.6579 23.5301Z" fill="#D93176"/>
<path d="M14.7322 24.247C14.278 24.2257 13.9869 24.3038 13.8521 24.4954C13.3339 25.2265 12.7448 25.7873 12.0918 26.1635C11.9569 26.2416 11.8504 26.2132 11.7723 26.0783L11.6801 25.9293C11.6233 25.837 11.6375 25.766 11.7227 25.7021C12.6525 25.0136 13.2984 24.1973 13.6746 23.2533C13.774 23.0048 13.9302 22.9552 14.1502 23.1113C14.4412 23.3101 14.6329 23.6863 14.7322 24.247Z" fill="#C7195C"/>
<path d="M14.7322 24.247C16.0737 25.1201 17.5075 26.8662 19.275 25.7589C19.4666 25.6382 19.6653 25.5956 19.8854 25.6311L22.9376 26.0783C23.2002 26.1209 23.3138 26.27 23.2854 26.5326C23.1718 27.5334 23.1576 28.4988 23.2357 29.4144C23.2499 29.6202 23.1292 29.8048 22.9305 29.8687C22.7743 29.9184 22.6749 29.8758 22.6252 29.748C22.3342 28.9672 22.2419 28.1226 22.3484 27.2211C22.3839 26.9372 22.2632 26.7668 21.9864 26.7029L20.2332 26.3054C19.8641 26.2132 19.4808 26.4261 19.3459 26.7881L18.2386 29.8332C18.1464 30.0887 17.7915 30.1171 17.6566 29.8758C17.5572 29.6841 17.5288 29.4854 17.5714 29.2653C17.7347 28.3923 18.5297 28.2929 18.409 27.0224C18.3877 26.8307 18.2244 26.6958 18.0399 26.71L17.4011 26.7455C17.1242 26.7668 16.9042 26.9869 16.89 27.2637C16.8545 28.0232 16.4925 28.662 15.804 29.1802C15.6833 29.2724 15.513 29.2511 15.4207 29.1305L15.2929 28.9743C15.1794 28.8253 15.2078 28.6123 15.3568 28.5058C15.7188 28.2432 15.9034 27.8883 15.9034 27.434C15.9105 27.1217 16.0524 26.8946 16.3293 26.7597C16.3931 26.7242 16.4428 26.6887 16.4925 26.6391C16.7835 26.3267 16.7267 26.1138 16.3222 25.9931C16.0737 25.9151 15.8821 25.7731 15.7401 25.5531C15.5698 25.2904 15.442 25.3117 15.3568 25.6169C15.1652 26.3196 14.7535 27.0649 14.1359 27.8457C14.0295 27.9735 13.8378 27.9806 13.7172 27.8599L13.5752 27.7109C13.4048 27.5334 13.3977 27.2566 13.561 27.072C14.2637 26.2842 14.6541 25.3401 14.7322 24.247Z" fill="#D93176"/>
<path d="M25.2658 25.2549C25.3368 25.0349 25.4433 24.8362 25.5923 24.6729C25.8053 24.4245 25.9685 24.4529 26.0821 24.7581C26.4228 25.6737 26.9978 26.4261 27.8069 27.0011C28.1548 27.2495 28.1831 27.5263 27.8921 27.8386C27.8069 27.9309 27.7076 27.9806 27.5869 27.9948C27.3172 28.0303 27.1255 27.9167 27.012 27.6683C26.6358 26.8236 26.0963 26.1422 25.3865 25.6169C25.2658 25.5247 25.2233 25.404 25.2658 25.2549Z" fill="#C7195C"/>
<path d="M23.8107 26.5468C23.6688 26.3409 23.6688 26.1422 23.8036 25.9364C24.0024 25.6382 24.2579 25.4679 24.5702 25.4182C24.7761 25.3898 24.9464 25.5743 24.8968 25.7731C24.698 26.5823 24.9251 27.3276 25.5782 28.0161C25.7485 28.2006 25.8124 28.4633 25.7414 28.7117C25.6279 29.095 25.4717 29.2724 25.2659 29.2512C25.0458 29.2157 24.9109 29.095 24.8613 28.8821C24.6412 28.009 24.2863 27.2282 23.8107 26.5468Z" fill="#D93176"/>
<path d="M21.4257 32.4666H19.6867C19.6654 32.4098 19.6441 32.353 19.6228 32.2962C19.6867 31.9768 19.8286 31.7426 20.0345 31.6077C20.2119 31.487 20.4533 31.4799 20.7514 31.5722C21.518 31.8065 21.7451 32.1046 21.4257 32.4666Z" fill="#FFFEFF"/>
<path d="M20.4863 8.84841L20.4224 6.19373C20.4153 6.01628 20.5005 5.924 20.6709 5.90981L20.969 5.88851C21.0897 5.88141 21.1535 5.9311 21.1464 6.05177L21.1394 8.62127C21.1323 8.91939 21.2813 9.09684 21.5723 9.16072C21.7498 9.19621 21.9343 9.18202 22.1189 9.13233C22.4028 9.04715 22.5661 8.85551 22.6158 8.56448L22.7435 7.7695C22.779 7.55656 22.921 7.37911 23.1268 7.30103C23.4462 7.18036 23.5953 6.94612 23.5811 6.60542C23.5811 6.50604 23.6024 6.41377 23.6521 6.32859C23.8153 6.06596 23.9644 5.99498 24.1134 6.10145C24.2341 6.19373 24.2554 6.3073 24.1915 6.44216C23.8153 7.23005 23.6521 8.03213 23.7089 8.84131C23.7585 9.52982 23.4391 9.85633 22.7506 9.83504L19.1519 9.72857C18.7331 9.71437 18.5557 9.50143 18.6266 9.08264C18.7757 8.20248 18.6408 7.33652 18.2078 6.48475C18.0943 6.26471 18.1582 6.12275 18.4066 6.06596C18.4705 6.05177 18.5415 6.05887 18.6053 6.09436C18.6266 6.10145 18.6479 6.12275 18.6621 6.14404C19.1164 6.82546 19.4358 7.68432 19.6133 8.71354C19.6346 8.84841 19.7268 8.96198 19.8617 9.01166L20.1243 9.10394C20.3728 9.18911 20.4934 9.10394 20.4863 8.84841Z" fill="#D93176"/>
</svg>
