<svg width="571" height="225" viewBox="0 0 571 225" fill="none" xmlns="http://www.w3.org/2000/svg">
<path d="M184.04 0H178.4C178.251 0 178.13 0.12088 178.13 0.269997V224.71C178.13 224.859 178.251 224.98 178.4 224.98H184.04C184.189 224.98 184.31 224.859 184.31 224.71V0.269997C184.31 0.12088 184.189 0 184.04 0Z" fill="#4D4D4D"/>
<path d="M133.29 59.3602C135.69 65.6269 136.903 71.1169 136.93 75.8302C137.05 102.95 137.07 126.19 136.99 145.55C136.963 151.757 135.977 158.177 134.03 164.81C133.377 167.037 132.453 169.28 131.26 171.54C130.113 173.714 128.98 175.847 127.86 177.94C125.673 182.02 122.73 186.047 119.03 190.02C106.183 203.8 90.93 211.194 73.27 212.2C65.8167 212.627 59.12 212.117 53.18 210.67C36.8933 206.684 23.6933 197.904 13.58 184.33C7.32667 175.937 3.29667 166.794 1.49 156.9C1.15667 155.054 0.830002 153.214 0.510002 151.38C0.170002 149.447 0 147.437 0 145.35C0.0133333 125.484 0.0233321 103.744 0.0299988 80.1302C0.0299988 77.8702 0.193334 75.7269 0.52 73.7002C0.98 70.8102 1.18 67.9502 1.92 65.1202C6.53334 47.4869 16.5767 33.4802 32.05 23.1002C35.0233 21.1002 38.5 19.2402 42.48 17.5202C45.6733 16.1335 49.5733 14.9435 54.18 13.9502C57.9467 13.1435 61.9833 12.6835 66.29 12.5702C87.83 12.0235 105.87 19.9335 120.41 36.3002C120.75 36.6802 120.84 36.8302 121.02 37.3002C121.071 37.4393 121.16 37.5621 121.276 37.6554C121.392 37.7487 121.532 37.8091 121.68 37.8302C128.793 38.8102 135.737 39.7302 142.51 40.5902C147.14 41.1802 148.7 46.5002 145.32 49.4702C141.66 52.6769 137.727 55.7269 133.52 58.6202C133.247 58.8069 133.17 59.0535 133.29 59.3602ZM102.06 198.28C102.82 198.374 103.397 198.12 103.79 197.52C120.223 186.274 129.827 170.934 132.6 151.5C133.3 146.61 132.81 141.71 133.33 136.87C133.4 136.17 133.07 135.73 133.06 135.03C133 126.584 132.993 118.14 133.04 109.7C133.04 109.28 133.11 108.877 133.25 108.49C133.59 107.48 133.03 106.53 133.03 105.45C133.01 97.2635 133.02 88.6202 133.06 79.5202C133.06 78.7002 133.35 78.3402 133.2 77.4702C132.72 74.6102 132.203 71.5735 131.65 68.3602C131.43 67.1135 131.09 65.8702 130.63 64.6302C130.383 63.9702 129.94 63.7935 129.3 64.1002L128.8 64.3502C128.04 64.7169 127.763 65.3102 127.97 66.1302C129.297 71.3635 129.967 76.0735 129.98 80.2602C130.033 103.12 130.043 125.01 130.01 145.93C130 148.51 129.46 150.84 129.11 153.36C126.54 171.78 114.7 187.64 99.14 196.7C94.42 199.44 89.5433 201.46 84.51 202.76C79.4367 204.074 74.3733 204.754 69.32 204.8C60.2533 204.874 51.6633 203.077 43.55 199.41C43.15 199.23 43.04 198.94 43.22 198.54C43.56 197.78 43.6267 197.014 43.42 196.24C43.3533 195.98 43.1867 195.847 42.92 195.84C42.3067 195.827 42.0067 196.117 42.02 196.71C42.0267 197.157 42.1167 197.597 42.29 198.03C42.5233 198.637 42.35 198.797 41.77 198.51C28.89 192.217 19.3933 182.53 13.28 169.45C13.1389 169.142 13.1245 168.787 13.24 168.46C13.44 167.9 13.5033 167.327 13.43 166.74C13.37 166.247 13.09 165.997 12.59 165.99C11.97 165.984 11.5567 165.69 11.35 165.11C8.65 157.477 7.30667 149.567 7.32 141.38C7.34 126.034 7.30333 109.294 7.21 91.1602C7.16333 82.3802 7.59 75.5035 8.49 70.5302C11.5767 53.6035 20.4033 40.1269 34.97 30.1002C41.41 25.6669 48.93 22.6035 57.53 20.9102C60.93 20.2402 64.38 20.2702 67.75 19.8802C69.57 19.6702 71.04 20.4202 72.85 20.3502C74.1233 20.3035 75.4033 20.3702 76.69 20.5502C83.79 21.5435 90.6233 23.7235 97.19 27.0902C100.89 28.9802 104.19 31.8502 107.8 34.0902C108.367 34.4435 108.873 34.3769 109.32 33.8902L109.76 33.4202C110.22 32.9269 110.197 32.4602 109.69 32.0202C103.463 26.6335 96.5733 22.7469 89.02 20.3602C85.59 19.2802 79.41 17.2902 74.25 17.3402C73.9233 17.3469 73.62 17.2635 73.34 17.0902C72.8733 16.8169 72.4333 16.8235 72.02 17.1102C71.7533 17.2969 71.4833 17.3035 71.21 17.1302C70.9367 16.9502 70.6433 16.8602 70.33 16.8602C52.8367 16.6402 37.65 22.4102 24.77 34.1702C20.7767 37.8169 17.3267 41.9935 14.42 46.7002C14.28 46.9269 14.08 47.0902 13.82 47.1902C13.5667 47.2902 13.3133 47.2635 13.06 47.1102C12.4533 46.7502 12.16 46.9235 12.18 47.6302C12.1933 47.9569 12.3133 48.2535 12.54 48.5202C12.8067 48.8469 12.84 49.1935 12.64 49.5602C7.07333 59.7802 4.24667 70.2069 4.16 80.8402C4.04667 94.2069 3.98333 112.61 3.97 136.05C3.96333 144.324 4.47333 150.9 5.5 155.78C9.35333 174.174 19.1967 188.354 35.03 198.32C50.16 207.85 69.71 210.66 87.61 205.06C90.09 204.287 92.2933 203.52 94.22 202.76C96.6067 201.814 99.22 200.32 102.06 198.28ZM58.13 36.1202C58.3967 36.4869 58.7467 36.6869 59.18 36.7202C59.8467 36.7602 59.9867 36.5102 59.6 35.9702L58.47 34.3602C58.1033 33.8402 57.7167 33.8269 57.31 34.3202C57.2167 34.4269 57.14 34.5469 57.08 34.6802C56.94 34.9669 56.98 35.2169 57.2 35.4302C57.3333 35.5635 57.49 35.6702 57.67 35.7502C57.8534 35.8287 58.0125 35.9567 58.13 36.1202ZM62.7 35.1202C62.8067 34.9735 62.8667 34.8169 62.88 34.6502C62.9133 34.1369 62.6933 33.9802 62.22 34.1802C61.68 34.4202 61.2667 34.7735 60.98 35.2402C60.9005 35.3711 60.8573 35.5212 60.8552 35.6744C60.853 35.8276 60.8919 35.9783 60.9678 36.1105C61.0436 36.2427 61.1536 36.3516 61.286 36.4254C61.4184 36.4993 61.5684 36.5355 61.72 36.5302C62.26 36.5169 62.5333 36.2102 62.54 35.6102C62.5401 35.4347 62.5961 35.2632 62.7 35.1202ZM58.88 38.9902L59.23 38.7602C59.6233 38.5135 59.6467 38.2335 59.3 37.9202C59.1 37.7469 58.88 37.7135 58.64 37.8202C57.74 38.2135 57.2267 38.9302 57.1 39.9702C57.02 40.5769 57.23 40.7002 57.73 40.3402C58.0633 40.1002 58.3233 39.7869 58.51 39.4002C58.5948 39.2302 58.7229 39.0882 58.88 38.9902ZM61.14 39.0102C61.3067 39.5102 61.6767 39.9102 62.25 40.2102C62.6567 40.4235 62.86 40.3035 62.86 39.8502C62.86 39.1369 62.6433 38.5702 62.21 38.1502C62.1507 38.0944 62.0811 38.0506 62.0052 38.0214C61.9294 37.9922 61.8487 37.9781 61.7679 37.9799C61.6871 37.9818 61.6077 37.9996 61.5343 38.0322C61.4609 38.0649 61.3949 38.1117 61.34 38.1702C61.1067 38.4169 61.04 38.6969 61.14 39.0102ZM103.38 57.0302L108.61 50.0802C108.9 49.6929 109.062 49.2244 109.071 48.7414C109.08 48.2584 108.936 47.7856 108.66 47.3902L105.01 42.1502C104.965 42.0871 104.937 42.0139 104.927 41.9372C104.918 41.8605 104.927 41.7825 104.955 41.7103C104.982 41.6381 105.028 41.5739 105.086 41.5233C105.145 41.4726 105.215 41.4373 105.29 41.4202C105.703 41.3335 106.137 41.3235 106.59 41.3902C116.477 42.8302 127.467 44.3502 139.56 45.9502C140.067 46.0169 140.12 46.2102 139.72 46.5302L118.24 63.3502C118.191 63.3883 118.134 63.4154 118.074 63.4296C118.014 63.4438 117.951 63.4448 117.89 63.4324C117.829 63.4201 117.772 63.3947 117.722 63.3581C117.672 63.3214 117.63 63.2744 117.6 63.2202L111.97 53.2002C111.941 53.1474 111.923 53.0893 111.918 53.0294C111.912 52.9695 111.919 52.9091 111.938 52.8519C111.957 52.7947 111.987 52.742 112.027 52.697C112.067 52.652 112.115 52.6156 112.17 52.5902C113.21 52.1102 114.297 51.7702 115.43 51.5702C121.337 50.5235 127.24 49.4202 133.14 48.2602C133.269 48.2341 133.386 48.166 133.473 48.0666C133.56 47.9672 133.612 47.8419 133.62 47.7102C133.62 47.6235 133.61 47.5369 133.59 47.4502C133.443 46.9635 133.12 46.7535 132.62 46.8202C132.36 46.8535 132.15 46.9635 131.99 47.1502C131.77 47.4102 131.49 47.5202 131.15 47.4802C130.563 47.4269 130.033 47.4402 129.56 47.5202C124.533 48.4069 119.127 49.3569 113.34 50.3702C112.2 50.5702 111.297 50.8269 110.63 51.1402C109.77 51.5469 109.57 52.1669 110.03 53.0002L116.69 64.9602C116.765 65.097 116.87 65.2158 116.996 65.3085C117.121 65.4011 117.266 65.4653 117.419 65.4967C117.572 65.528 117.73 65.5258 117.882 65.4902C118.034 65.4545 118.177 65.3863 118.3 65.2902C124.493 60.4102 130.773 55.5002 137.14 50.5602C138.99 49.1302 140.35 47.5002 142.52 46.4702C142.653 46.4101 142.764 46.3117 142.839 46.1874C142.914 46.0632 142.951 45.9189 142.943 45.7729C142.935 45.6269 142.885 45.4858 142.797 45.3678C142.709 45.2497 142.588 45.1601 142.45 45.1102C141.55 44.8035 140.587 44.5835 139.56 44.4502C127.92 42.9369 115.693 41.2502 102.88 39.3902C102.742 39.3696 102.601 39.3881 102.473 39.4435C102.345 39.4989 102.235 39.5888 102.157 39.7025C102.079 39.8162 102.036 39.949 102.033 40.0851C102.03 40.2212 102.067 40.3549 102.14 40.4702L107.23 48.4502C107.43 48.7569 107.42 49.0535 107.2 49.3402L100.09 58.7102C99.9929 58.8386 99.9367 58.9933 99.9289 59.1541C99.9211 59.315 99.962 59.4744 100.046 59.6116C100.131 59.7488 100.254 59.8574 100.401 59.9231C100.548 59.9889 100.712 60.0088 100.87 59.9802L110.63 58.1602C110.702 58.1462 110.771 58.1177 110.832 58.0762C110.893 58.0347 110.945 57.9811 110.985 57.9186C111.025 57.8562 111.052 57.7861 111.065 57.7125C111.078 57.6389 111.076 57.5633 111.06 57.4902L110.95 57.0402C110.817 56.4802 110.48 56.3035 109.94 56.5102C107.967 57.2769 105.88 57.6502 103.68 57.6302C103.18 57.6302 103.08 57.4302 103.38 57.0302ZM72.19 47.4102C72.1033 47.7835 72.2267 48.0569 72.56 48.2302C72.9 48.4035 73.18 48.3302 73.4 48.0102C73.4784 47.8965 73.5135 47.7588 73.4988 47.6227C73.4841 47.4866 73.4205 47.3613 73.32 47.2702C73.1333 47.0969 72.9167 47.0135 72.67 47.0202C72.5557 47.0237 72.4462 47.0641 72.3592 47.1348C72.2721 47.2056 72.2125 47.3026 72.19 47.4102ZM43.47 47.6802C43.47 47.5105 43.4026 47.3477 43.2826 47.2277C43.1625 47.1076 42.9997 47.0402 42.83 47.0402C42.6603 47.0402 42.4975 47.1076 42.3775 47.2277C42.2574 47.3477 42.19 47.5105 42.19 47.6802C42.19 47.8499 42.2574 48.0127 42.3775 48.1328C42.4975 48.2528 42.6603 48.3202 42.83 48.3202C42.9997 48.3202 43.1625 48.2528 43.2826 48.1328C43.4026 48.0127 43.47 47.8499 43.47 47.6802ZM103.47 47.6702C103.47 47.4952 103.4 47.3273 103.277 47.2035C103.153 47.0797 102.985 47.0102 102.81 47.0102C102.635 47.0102 102.467 47.0797 102.343 47.2035C102.22 47.3273 102.15 47.4952 102.15 47.6702C102.15 47.7569 102.167 47.8427 102.2 47.9228C102.233 48.0029 102.282 48.0756 102.343 48.1369C102.405 48.1982 102.477 48.2468 102.557 48.28C102.638 48.3131 102.723 48.3302 102.81 48.3302C102.985 48.3302 103.153 48.2607 103.277 48.1369C103.4 48.0131 103.47 47.8452 103.47 47.6702ZM59.4903 53.8902C59.4917 53.694 59.415 53.5052 59.2772 53.3655C59.1394 53.2257 58.9517 53.1465 58.7555 53.1451L54.4956 53.1153C54.3984 53.1146 54.3021 53.1331 54.212 53.1697C54.122 53.2062 54.04 53.2602 53.9708 53.3284C53.9017 53.3967 53.8466 53.4779 53.8088 53.5674C53.771 53.6569 53.7512 53.753 53.7505 53.8502L53.7497 53.9702C53.7483 54.1664 53.825 54.3552 53.9628 54.4949C54.1006 54.6347 54.2883 54.7139 54.4845 54.7153L58.7444 54.7451C58.8416 54.7458 58.9379 54.7273 59.028 54.6907C59.118 54.6542 59.2 54.6002 59.2692 54.532C59.3384 54.4637 59.3934 54.3825 59.4312 54.293C59.469 54.2035 59.4888 54.1074 59.4895 54.0102L59.4903 53.8902ZM96.98 53.9666C96.9838 53.7704 96.9094 53.5807 96.7733 53.4393C96.6373 53.2979 96.4506 53.2164 96.2544 53.2126L91.8552 53.1281C91.758 53.1262 91.6615 53.1435 91.571 53.179C91.4805 53.2144 91.3979 53.2674 91.3279 53.3348C91.2578 53.4022 91.2018 53.4827 91.1629 53.5717C91.124 53.6608 91.103 53.7566 91.1011 53.8538L91.1 53.9138C91.0963 54.11 91.1706 54.2997 91.3067 54.4411C91.4427 54.5825 91.6294 54.664 91.8256 54.6678L96.2248 54.7523C96.322 54.7542 96.4185 54.7369 96.509 54.7014C96.5995 54.666 96.6821 54.613 96.7522 54.5456C96.8222 54.4783 96.8783 54.3977 96.9172 54.3087C96.9561 54.2196 96.977 54.1238 96.9789 54.0266L96.98 53.9666ZM50.0801 54.0204C50.0807 53.8401 50.0097 53.6669 49.8826 53.5389C49.7555 53.411 49.5828 53.3387 49.4025 53.3381L44.9025 53.3224C44.7222 53.3218 44.549 53.3928 44.421 53.5199C44.2931 53.647 44.2208 53.8197 44.2202 54L44.2199 54.08C44.2193 54.2603 44.2903 54.4335 44.4174 54.5615C44.5445 54.6894 44.7172 54.7617 44.8975 54.7623L49.3975 54.778C49.5778 54.7786 49.751 54.7076 49.879 54.5805C50.0069 54.4534 50.0792 54.2807 50.0798 54.1004L50.0801 54.0204ZM78.1702 54.0156C78.1706 53.9289 78.154 53.843 78.1213 53.7628C78.0885 53.6825 78.0403 53.6095 77.9793 53.5479C77.9183 53.4863 77.8458 53.4373 77.7659 53.4037C77.686 53.3702 77.6003 53.3526 77.5136 53.3522L72.9337 53.3282C72.847 53.3277 72.7611 53.3444 72.6808 53.3771C72.6006 53.4099 72.5276 53.4581 72.4659 53.5191C72.4043 53.58 72.3553 53.6526 72.3217 53.7325C72.2882 53.8124 72.2706 53.8981 72.2702 53.9848L72.2698 54.0648C72.2694 54.1515 72.286 54.2374 72.3187 54.3176C72.3515 54.3979 72.3997 54.4709 72.4607 54.5325C72.5217 54.5941 72.5942 54.6431 72.6741 54.6767C72.754 54.7102 72.8397 54.7278 72.9264 54.7282L77.5063 54.7522C77.593 54.7527 77.6789 54.736 77.7592 54.7033C77.8394 54.6705 77.9124 54.6223 77.9741 54.5613C78.0357 54.5004 78.0847 54.4279 78.1183 54.3479C78.1518 54.268 78.1694 54.1823 78.1698 54.0956L78.1702 54.0156ZM87.6301 54.0205C87.6313 53.8508 87.565 53.6875 87.4458 53.5667C87.3266 53.4458 87.1643 53.3773 86.9946 53.3761L82.4547 53.3444C82.285 53.3432 82.1217 53.4095 82.0009 53.5287C81.8801 53.6479 81.8115 53.8102 81.8103 53.9799L81.8099 54.0399C81.8087 54.2096 81.875 54.3729 81.9942 54.4937C82.1134 54.6146 82.2757 54.6831 82.4454 54.6843L86.9853 54.716C87.155 54.7172 87.3183 54.6509 87.4391 54.5317C87.5599 54.4125 87.6285 54.2502 87.6297 54.0805L87.6301 54.0205ZM40.8251 54.0992C40.7676 53.9088 40.6368 53.749 40.4615 53.655C40.2863 53.5611 40.0808 53.5405 39.8904 53.598L35.7356 54.8524C35.6413 54.8809 35.5535 54.9276 35.4773 54.99C35.4011 55.0524 35.3379 55.1292 35.2914 55.216C35.2449 55.3028 35.2159 55.3979 35.2061 55.4959C35.1963 55.5939 35.2059 55.6929 35.2344 55.7872L35.2749 55.9212C35.3324 56.1116 35.4632 56.2714 35.6385 56.3654C35.8137 56.4594 36.0192 56.4799 36.2096 56.4224L40.3644 55.168C40.4587 55.1395 40.5465 55.0928 40.6227 55.0304C40.6989 54.968 40.7621 54.8912 40.8086 54.8044C40.8552 54.7176 40.8841 54.6225 40.8939 54.5245C40.9037 54.4265 40.8941 54.3275 40.8656 54.2332L40.8251 54.0992ZM31.45 56.6702L26.98 60.0702C26.9376 60.102 26.9095 60.1494 26.902 60.2019C26.8945 60.2544 26.9082 60.3078 26.94 60.3502L26.98 60.4102C27.0858 60.5493 27.2225 60.6627 27.3823 60.744C27.542 60.8254 27.7218 60.873 27.9112 60.8841C28.1007 60.8952 28.2961 60.8697 28.4864 60.809C28.6766 60.7483 28.858 60.6535 29.02 60.5302L31.35 58.7602C31.6755 58.5119 31.9034 58.1633 31.9839 57.7905C32.0645 57.4177 31.9912 57.0509 31.78 56.7702L31.73 56.7102C31.6982 56.6678 31.6508 56.6397 31.5983 56.6322C31.5458 56.6247 31.4924 56.6384 31.45 56.6702ZM22.0339 68.5101C22.141 68.5715 22.285 68.566 22.4576 68.4941C22.6303 68.4221 22.8282 68.2851 23.0401 68.0907C23.252 67.8964 23.4737 67.6486 23.6925 67.3615C23.9114 67.0744 24.1232 66.7536 24.3157 66.4174C24.5082 66.0812 24.6778 65.7363 24.8147 65.4022C24.9515 65.0681 25.0531 64.7515 25.1135 64.4704C25.1739 64.1893 25.1919 63.9493 25.1667 63.7639C25.1414 63.5786 25.0732 63.4517 24.9661 63.3903C24.859 63.3289 24.715 63.3344 24.5424 63.4063C24.3697 63.4783 24.1718 63.6154 23.9599 63.8097C23.748 64.004 23.5263 64.2518 23.3075 64.5389C23.0886 64.826 22.8768 65.1468 22.6843 65.483C22.4918 65.8192 22.3222 66.1641 22.1853 66.4982C22.0485 66.8323 21.9469 67.1489 21.8865 67.43C21.8261 67.7111 21.8081 67.9511 21.8333 68.1365C21.8586 68.3218 21.9268 68.4488 22.0339 68.5101ZM20.9919 72.5158C21.0038 72.4446 21.0016 72.3717 20.9854 72.3013C20.9691 72.2309 20.9392 72.1644 20.8972 72.1056C20.8553 72.0468 20.8022 71.9968 20.7409 71.9585C20.6796 71.9203 20.6114 71.8944 20.5402 71.8825L20.2443 71.833C20.1004 71.8089 19.9529 71.843 19.8342 71.9277C19.7154 72.0124 19.6352 72.1408 19.6111 72.2847L18.8881 76.6046C18.8762 76.6758 18.8784 76.7487 18.8946 76.8191C18.9109 76.8895 18.9408 76.956 18.9828 77.0148C19.0247 77.0736 19.0778 77.1236 19.1391 77.1619C19.2004 77.2001 19.2686 77.226 19.3398 77.2379L19.6357 77.2874C19.7796 77.3115 19.9271 77.2774 20.0458 77.1927C20.1646 77.108 20.2448 76.9796 20.2689 76.8357L20.9919 72.5158ZM71.68 83.3402C71.68 82.354 71.4858 81.3774 71.1083 80.4662C70.7309 79.5551 70.1777 78.7272 69.4804 78.0298C68.783 77.3325 67.9551 76.7793 67.044 76.4019C66.1328 76.0245 65.1562 75.8302 64.17 75.8302C63.1838 75.8302 62.2072 76.0245 61.296 76.4019C60.3849 76.7793 59.557 77.3325 58.8596 78.0298C58.1623 78.7272 57.6091 79.5551 57.2317 80.4662C56.8542 81.3774 56.66 82.354 56.66 83.3402C56.66 85.332 57.4512 87.2422 58.8596 88.6506C60.268 90.059 62.1782 90.8502 64.17 90.8502C66.1618 90.8502 68.072 90.059 69.4804 88.6506C70.8888 87.2422 71.68 85.332 71.68 83.3402ZM42.39 78.3702C42.4367 78.9569 42.13 79.3402 41.47 79.5202C39.59 80.0302 39.54 79.0202 38.24 78.4802C37.74 78.2735 37.4133 78.1835 37.26 78.2102C35.5067 78.5435 35.46 79.0469 37.12 79.7202C38.0333 80.0935 38.9633 80.5235 39.91 81.0102C40.25 81.1902 40.6 81.2102 40.96 81.0702L44.44 79.7502C44.8067 79.6102 45.1667 79.6269 45.52 79.8002L47.78 80.9102C48.1 81.0702 48.4333 81.1169 48.78 81.0502C50.86 80.6702 52.57 78.3402 54.61 80.5402C54.6502 80.5833 54.6996 80.6167 54.7545 80.638C54.8094 80.6592 54.8684 80.6678 54.9271 80.6629C54.9858 80.6581 55.0426 80.6401 55.0934 80.6102C55.1441 80.5803 55.1874 80.5392 55.22 80.4902L55.39 80.2302C55.4745 80.1003 55.5079 79.9441 55.4839 79.7924C55.4598 79.6406 55.38 79.5043 55.26 79.4102C53.4067 77.9369 51.54 77.8935 49.66 79.2802C49.3744 79.4911 49.036 79.6194 48.6816 79.6512C48.3272 79.6829 47.9704 79.6168 47.65 79.4602L45.58 78.4502C45.2933 78.3035 44.9967 78.2869 44.69 78.4002C44.0767 78.6335 43.7433 78.5235 43.69 78.0702C43.73 77.5969 43.55 77.2369 43.15 76.9902C43.0538 76.9334 42.9457 76.8997 42.8344 76.8918C42.7231 76.884 42.6118 76.9023 42.5095 76.9451C42.4072 76.988 42.3168 77.0543 42.2456 77.1386C42.1744 77.2229 42.1246 77.3228 42.1 77.4302C42.02 77.7635 42.1167 78.0769 42.39 78.3702ZM73.49 77.6302C73.49 77.4446 73.4162 77.2665 73.285 77.1352C73.1537 77.0039 72.9756 76.9302 72.79 76.9302C72.6043 76.9302 72.4263 77.0039 72.295 77.1352C72.1638 77.2665 72.09 77.4446 72.09 77.6302C72.09 77.8159 72.1638 77.9939 72.295 78.1252C72.4263 78.2565 72.6043 78.3302 72.79 78.3302C72.9756 78.3302 73.1537 78.2565 73.285 78.1252C73.4162 77.9939 73.49 77.8159 73.49 77.6302ZM12.47 77.1902C12.2833 77.3769 12.21 77.5835 12.25 77.8102C12.2833 77.9769 12.3767 78.1002 12.53 78.1802C12.6833 78.2602 12.8467 78.2869 13.02 78.2602C13.1314 78.2395 13.2335 78.1861 13.3123 78.1073C13.3911 78.0286 13.4427 77.9283 13.46 77.8202C13.5067 77.5069 13.3633 77.2669 13.03 77.1002C12.9398 77.0558 12.8378 77.0406 12.7376 77.0567C12.6374 77.0728 12.544 77.1194 12.47 77.1902ZM103.47 77.6802C103.47 77.5935 103.453 77.5077 103.42 77.4276C103.387 77.3476 103.338 77.2748 103.277 77.2135C103.215 77.1522 103.143 77.1036 103.063 77.0704C102.983 77.0373 102.897 77.0202 102.81 77.0202C102.723 77.0202 102.638 77.0373 102.557 77.0704C102.477 77.1036 102.405 77.1522 102.343 77.2135C102.282 77.2748 102.233 77.3476 102.2 77.4276C102.167 77.5077 102.15 77.5935 102.15 77.6802C102.15 77.8552 102.22 78.0231 102.343 78.1469C102.467 78.2707 102.635 78.3402 102.81 78.3402C102.985 78.3402 103.153 78.2707 103.277 78.1469C103.4 78.0231 103.47 77.8552 103.47 77.6802ZM20.0319 81.4541C20.0324 81.3622 20.0148 81.2711 19.98 81.1859C19.9453 81.1008 19.8942 81.0234 19.8295 80.958C19.7648 80.8927 19.6879 80.8407 19.6032 80.8051C19.5185 80.7695 19.4275 80.7509 19.3356 80.7504L19.2756 80.7501C19.1837 80.7496 19.0926 80.7672 19.0074 80.802C18.9223 80.8367 18.8449 80.8879 18.7795 80.9525C18.7142 81.0172 18.6622 81.0941 18.6266 81.1788C18.591 81.2635 18.5724 81.3545 18.5719 81.4464L18.5481 85.9863C18.5476 86.0782 18.5652 86.1694 18.6 86.2545C18.6347 86.3396 18.6858 86.417 18.7505 86.4824C18.8152 86.5477 18.8921 86.5997 18.9768 86.6353C19.0615 86.6709 19.1525 86.6895 19.2444 86.69L19.3044 86.6903C19.3963 86.6908 19.4874 86.6732 19.5726 86.6384C19.6577 86.6037 19.7351 86.5526 19.8005 86.4879C19.8658 86.4232 19.9178 86.3463 19.9534 86.2616C19.989 86.1769 20.0076 86.0859 20.0081 85.994L20.0319 81.4541ZM40.27 83.3002C39.13 82.5402 37.97 82.0435 36.79 81.8102C36.39 81.7302 36.1333 81.8869 36.02 82.2802C35.96 82.5135 35.9833 82.7335 36.09 82.9402C36.23 83.2069 36.4467 83.3102 36.74 83.2502C37.3067 83.1435 37.7467 83.3335 38.06 83.8202C38.2411 84.1049 38.5095 84.3168 38.82 84.4202C40.5667 84.9869 42.12 84.7502 43.48 83.7102C44.36 83.0402 45.42 83.2302 46.13 84.0302C46.35 84.2769 46.62 84.4435 46.94 84.5302C48.78 85.0235 50.43 84.6669 51.89 83.4602C52.1767 83.2269 52.48 83.1969 52.8 83.3702L54.76 84.4502C55.34 84.7635 55.55 84.6002 55.39 83.9602L55.2 83.1902C55.1 82.7902 54.8567 82.5169 54.47 82.3702C52.59 81.6635 50.89 81.9169 49.37 83.1302C49.1185 83.3308 48.8047 83.4374 48.4819 83.4319C48.1591 83.4265 47.8475 83.3092 47.6 83.1002C45.5733 81.4002 43.4667 81.4502 41.28 83.2502C40.9533 83.5169 40.6167 83.5335 40.27 83.3002ZM73.49 166.11C72.73 165.81 72.32 165.887 72.26 166.34C71.9667 168.52 72.3733 169.017 73.48 167.83L73.82 171.84C73.8467 172.187 73.6867 172.36 73.34 172.36H66.35C66.2992 172.36 66.2488 172.37 66.2023 172.391C66.1558 172.412 66.1141 172.443 66.0801 172.482C66.0461 172.521 66.0205 172.566 66.005 172.616C65.9894 172.666 65.9843 172.718 65.99 172.77L66.03 173.15C66.0521 173.338 66.1419 173.512 66.2821 173.637C66.4223 173.762 66.6031 173.831 66.79 173.83L101.31 173.79C101.402 173.789 101.492 173.768 101.574 173.728C101.657 173.688 101.729 173.631 101.786 173.559C101.842 173.488 101.882 173.406 101.902 173.317C101.922 173.229 101.921 173.138 101.9 173.05L101.82 172.73C101.767 172.51 101.627 172.397 101.4 172.39L89.64 172.36C89.22 172.36 89.01 172.147 89.01 171.72L89 148.1C89 148.033 89.0134 147.967 89.0396 147.905C89.0657 147.843 89.104 147.787 89.1523 147.74C89.2006 147.692 89.2579 147.655 89.321 147.629C89.3841 147.603 89.4517 147.59 89.52 147.59H108.03C108.163 147.59 108.296 147.564 108.419 147.513C108.542 147.462 108.654 147.388 108.748 147.294C108.842 147.2 108.916 147.088 108.966 146.966C109.016 146.843 109.041 146.712 109.04 146.58C108.98 138.594 109 130.584 109.1 122.55C109.14 119.764 108.697 117.247 107.77 115C106.73 112.467 105.28 110.17 103.42 108.11C103.54 107.557 103.43 107.204 103.09 107.05C102.683 106.87 102.33 106.914 102.03 107.18C99.3833 104.94 96.29 103.464 92.75 102.75C92.5449 102.711 92.3599 102.6 92.2267 102.438C92.0935 102.276 92.0205 102.071 92.02 101.86L91.99 96.2202C91.99 95.7802 92.21 95.5635 92.65 95.5702L101.23 95.6702C101.401 95.6716 101.57 95.6249 101.716 95.5355C101.863 95.4461 101.981 95.3177 102.057 95.165C102.134 95.0124 102.165 94.8417 102.148 94.6728C102.131 94.5038 102.065 94.3435 101.96 94.2102L99.63 91.2002C98.9233 90.2935 99.0133 89.4769 99.9 88.7502C100.973 87.8769 101.687 86.8302 102.04 85.6102C102.065 85.5252 102.069 85.4356 102.053 85.3485C102.036 85.2614 101.999 85.1792 101.945 85.1084C101.891 85.0376 101.82 84.98 101.74 84.9404C101.659 84.9008 101.57 84.8802 101.48 84.8802H87.76C87.4311 84.8802 87.1157 85.0098 86.8832 85.2405C86.6506 85.4711 86.52 85.784 86.52 86.1102V101.68C86.52 102.074 86.32 102.277 85.92 102.29C79.88 102.43 73.29 102.42 66.15 102.26C59.01 102.094 54.0233 102.6 51.19 103.78C45.85 105.987 42.0533 109.61 39.8 114.65C38.3067 117.99 37.7333 122.21 38.08 127.31C38.1067 127.677 37.9433 127.917 37.59 128.03C37.21 128.144 36.7433 128.147 36.19 128.04C34.89 127.8 34.6467 128.204 35.46 129.25C35.8533 129.757 36.43 129.86 37.19 129.56C37.2825 129.524 37.3823 129.512 37.4808 129.523C37.5794 129.535 37.6736 129.57 37.7553 129.626C37.8371 129.682 37.9039 129.758 37.95 129.845C37.9962 129.933 38.0202 130.031 38.02 130.13L38.03 143.97C38.03 144.39 37.82 144.6 37.4 144.6H32.57C31.7967 144.6 31.2967 144.97 31.07 145.71C31.0033 145.93 30.9867 146.147 31.02 146.36C31.1867 147.374 31.7833 147.88 32.81 147.88L73.14 147.79C73.56 147.79 73.7667 148 73.76 148.42L73.49 166.11ZM36.79 86.8902C38.84 88.3602 41.36 89.1602 43.47 87.4102C43.6293 87.2791 43.8152 87.1851 44.0141 87.1349C44.2131 87.0847 44.4201 87.0797 44.62 87.1202C45.4533 87.2869 46.22 87.5835 46.92 88.0102C47.5887 88.4223 48.377 88.5987 49.1609 88.5118C49.9448 88.4249 50.6797 88.0796 51.25 87.5302C52.27 86.5502 53.92 87.5702 55.12 87.7602C55.98 87.8935 56.09 87.6635 55.45 87.0702C54.6033 86.2835 53.5167 85.7502 52.19 85.4702C52.0171 85.4356 51.838 85.4381 51.664 85.4778C51.4901 85.5174 51.3252 85.5931 51.18 85.7002C50.34 86.3335 49.4 86.7169 48.36 86.8502C48.0067 86.8902 47.6667 86.8435 47.34 86.7102L44.42 85.4702C44.04 85.3102 43.6833 85.3535 43.35 85.6002C42.3367 86.3535 41.2367 86.7802 40.05 86.8802C39.8727 86.8926 39.6946 86.8628 39.5296 86.7934C39.3647 86.724 39.2176 86.6167 39.1 86.4802C38.5933 85.8869 37.9633 85.5869 37.21 85.5802C35.6833 85.5669 35.5433 86.0035 36.79 86.8902ZM20 90.7402C20 90.5572 19.9273 90.3817 19.7979 90.2523C19.6685 90.1229 19.493 90.0502 19.31 90.0502H19.25C19.067 90.0502 18.8915 90.1229 18.7621 90.2523C18.6327 90.3817 18.56 90.5572 18.56 90.7402V95.3602C18.56 95.5432 18.6327 95.7187 18.7621 95.8481C18.8915 95.9775 19.067 96.0502 19.25 96.0502H19.31C19.493 96.0502 19.6685 95.9775 19.7979 95.8481C19.9273 95.7187 20 95.5432 20 95.3602V90.7402ZM119.43 95.3302C118.75 94.9502 118.737 94.5469 119.39 94.1202C120.423 93.4469 120.9 92.7169 120.82 91.9302C120.808 91.7903 120.751 91.658 120.658 91.5525C120.565 91.447 120.441 91.3739 120.304 91.3438C120.167 91.3137 120.024 91.3281 119.895 91.385C119.767 91.4419 119.66 91.5383 119.59 91.6602C119.383 92.0135 119.107 92.3235 118.76 92.5902C118.453 92.8369 118.293 93.1569 118.28 93.5502C118.267 93.7835 118.323 94.0002 118.45 94.2002C118.522 94.3233 118.569 94.4604 118.586 94.6032C118.603 94.746 118.591 94.8913 118.55 95.0302C118.097 96.4702 118.667 97.4835 120.26 98.0702C120.72 98.2435 120.927 98.0835 120.88 97.5902C120.78 96.5769 120.297 95.8235 119.43 95.3302ZM116.06 94.0502L116.31 94.2602C116.703 94.5935 116.903 94.5002 116.91 93.9802C116.91 93.0735 116.613 92.3235 116.02 91.7302C115.958 91.6686 115.882 91.6233 115.798 91.5984C115.714 91.5736 115.626 91.5699 115.541 91.5879C115.456 91.6058 115.378 91.6448 115.313 91.7011C115.248 91.7575 115.199 91.8294 115.17 91.9102C114.83 92.7902 115.027 93.4402 115.76 93.8602C115.854 93.9166 115.937 93.9672 115.992 94.0022C116.048 94.0372 116.072 94.0543 116.06 94.0502ZM115.77 97.9202C116.43 97.3135 116.853 96.6269 117.04 95.8602C117.054 95.7909 117.05 95.719 117.026 95.6521C117.003 95.5853 116.962 95.5261 116.907 95.4809C116.853 95.4357 116.787 95.4061 116.717 95.3954C116.647 95.3848 116.575 95.3933 116.51 95.4202C115.43 95.8935 114.967 96.6502 115.12 97.6902C115.193 98.1769 115.41 98.2535 115.77 97.9202ZM20.0371 100.239C20.0382 100.147 20.0212 100.056 19.9871 99.9708C19.953 99.8854 19.9023 99.8077 19.8381 99.7419C19.7739 99.6761 19.6974 99.6236 19.6129 99.5874C19.5284 99.5511 19.4376 99.5319 19.3457 99.5308L19.2857 99.5301C19.1001 99.5278 18.9212 99.5994 18.7883 99.729C18.6554 99.8587 18.5795 100.036 18.5772 100.221L18.5229 104.661C18.5218 104.753 18.5388 104.844 18.5729 104.93C18.607 105.015 18.6577 105.093 18.7219 105.159C18.7861 105.224 18.8626 105.277 18.9471 105.313C19.0316 105.349 19.1224 105.368 19.2143 105.37L19.2743 105.37C19.4599 105.373 19.6388 105.301 19.7717 105.171C19.9046 105.042 19.9805 104.865 19.9828 104.679L20.0371 100.239ZM42.25 107.98C42.4233 108.207 42.6633 108.31 42.97 108.29C43.4033 108.257 43.5667 108.03 43.46 107.61C43.3733 107.25 43.1533 107.05 42.8 107.01C42.6825 106.999 42.5642 107.021 42.4594 107.076C42.3546 107.13 42.2679 107.214 42.2097 107.316C42.1514 107.419 42.1243 107.536 42.1314 107.654C42.1386 107.772 42.1798 107.885 42.25 107.98ZM13.42 107.36C13.0533 107.08 12.7533 107.027 12.52 107.2C12.4254 107.27 12.3525 107.364 12.3096 107.473C12.2666 107.582 12.2555 107.701 12.2775 107.817C12.2995 107.932 12.3537 108.038 12.4338 108.124C12.5138 108.209 12.6166 108.271 12.73 108.3C13.0433 108.387 13.3067 108.257 13.52 107.91C13.5737 107.822 13.5932 107.718 13.5748 107.616C13.5564 107.515 13.5013 107.424 13.42 107.36ZM20.29 113.36C19.93 112.31 20.24 109.61 19.79 109.06C19.6967 108.947 19.5767 108.884 19.43 108.87C19.0367 108.83 18.7933 109.004 18.7 109.39C18.2733 111.284 18.4567 113.017 19.25 114.59C19.297 114.68 19.3679 114.755 19.4549 114.807C19.5419 114.859 19.6416 114.886 19.7431 114.885C19.8445 114.884 19.9436 114.855 20.0296 114.801C20.1155 114.748 20.1849 114.671 20.23 114.58C20.4167 114.194 20.4367 113.787 20.29 113.36ZM23.88 122.85L24.04 122.31C24.0865 122.141 24.0916 121.963 24.055 121.792C24.0185 121.621 23.9413 121.463 23.83 121.33C23.2033 120.57 22.7167 119.744 22.37 118.85C22.1967 118.41 21.9067 118.094 21.5 117.9C21.0333 117.68 20.8033 117.83 20.81 118.35C20.8233 119.63 21.6033 121.184 23.15 123.01C23.49 123.41 23.7333 123.357 23.88 122.85ZM31.8621 128.068C31.917 127.96 31.8998 127.817 31.8117 127.647C31.7236 127.477 31.5662 127.283 31.3485 127.076C31.1308 126.869 30.8571 126.653 30.5429 126.441C30.2288 126.23 29.8804 126.025 29.5177 125.84C28.7852 125.467 28.0386 125.196 27.4423 125.085C26.846 124.975 26.4487 125.035 26.3379 125.253C26.283 125.36 26.3002 125.503 26.3883 125.674C26.4764 125.844 26.6338 126.038 26.8515 126.245C27.0692 126.451 27.3429 126.667 27.6571 126.879C27.9712 127.091 28.3196 127.295 28.6823 127.48C29.4148 127.853 30.1614 128.125 30.7577 128.235C31.354 128.345 31.7513 128.285 31.8621 128.068ZM12.51 136.09C11.97 136.73 11.9233 137.45 12.37 138.25C12.4083 138.32 12.4645 138.378 12.533 138.418C12.6014 138.458 12.6798 138.479 12.76 138.479C12.8402 138.479 12.9194 138.458 12.9897 138.418C13.0599 138.378 13.1187 138.32 13.16 138.25C13.5133 137.637 13.5733 136.97 13.34 136.25C13.3141 136.167 13.2663 136.093 13.2016 136.036C13.137 135.978 13.0579 135.939 12.9728 135.922C12.8877 135.906 12.7997 135.913 12.7182 135.942C12.6368 135.972 12.5648 136.023 12.51 136.09ZM35.93 167.55C36.0767 166.23 35.6767 165.21 34.73 164.49C34.3033 164.164 33.8633 164.15 33.41 164.45L33.12 164.65C33.0596 164.691 33.0094 164.745 32.9734 164.808C32.9375 164.872 32.9168 164.942 32.9129 165.015C32.909 165.088 32.9221 165.161 32.9511 165.227C32.9801 165.294 33.0242 165.353 33.08 165.4L35.72 167.64C35.7384 167.655 35.7603 167.664 35.7835 167.667C35.8067 167.67 35.8303 167.667 35.8518 167.658C35.8733 167.648 35.8919 167.634 35.9057 167.615C35.9194 167.596 35.9278 167.573 35.93 167.55ZM40.25 164.88L39.94 164.52C39.72 164.267 39.4867 164.254 39.24 164.48L37.36 166.19C37.3178 166.228 37.2835 166.274 37.2591 166.325C37.2347 166.377 37.2207 166.432 37.2179 166.489C37.2151 166.546 37.2236 166.602 37.2428 166.656C37.2621 166.709 37.2917 166.758 37.33 166.8L37.59 167.08C37.81 167.327 38.05 167.344 38.31 167.13L40.2 165.55C40.44 165.344 40.4567 165.12 40.25 164.88ZM42.43 168.2C42.4542 168.279 42.5014 168.348 42.5655 168.4C42.6296 168.451 42.7077 168.482 42.7896 168.488C42.8715 168.495 42.9535 168.477 43.0249 168.436C43.0963 168.395 43.1538 168.334 43.19 168.26C43.4367 167.72 43.5233 167.167 43.45 166.6C43.4033 166.24 43.2033 166.02 42.85 165.94C42.63 165.887 42.4467 165.934 42.3 166.08C42.1133 166.267 42.0467 166.497 42.1 166.77C42.2 167.29 42.31 167.767 42.43 168.2ZM102.3 167.35C102.22 167.697 102.283 168 102.49 168.26C102.803 168.634 103.053 168.597 103.24 168.15C103.44 167.67 103.513 167.167 103.46 166.64C103.42 166.247 103.207 166.017 102.82 165.95C102.633 165.917 102.467 165.957 102.32 166.07C102.14 166.217 102.063 166.407 102.09 166.64C102.117 166.887 102.187 167.124 102.3 167.35ZM34.34 171.42C35.46 170.847 36.01 169.96 35.99 168.76C35.9833 168.22 35.7733 168.124 35.36 168.47L33.43 170.09C33.17 170.31 33.0833 170.587 33.17 170.92C33.2433 171.18 33.4033 171.36 33.65 171.46C33.7632 171.501 33.8829 171.519 34.0017 171.512C34.1204 171.505 34.2356 171.474 34.34 171.42ZM39.846 171.21C40.0167 171.075 40.068 170.804 39.9888 170.455C39.9096 170.107 39.7062 169.71 39.4235 169.352C39.1408 168.994 38.8018 168.704 38.4813 168.546C38.1607 168.389 37.8847 168.376 37.714 168.51C37.5433 168.645 37.492 168.917 37.5712 169.265C37.6504 169.614 37.8538 170.01 38.1365 170.368C38.4192 170.726 38.7582 171.016 39.0787 171.174C39.3993 171.332 39.6753 171.345 39.846 171.21ZM88.67 178.26V176.74C88.67 176.674 88.6437 176.61 88.5968 176.563C88.5499 176.517 88.4863 176.49 88.42 176.49H88.26C80.3123 176.476 72.6836 176.515 67.023 176.597C61.3624 176.679 58.1247 176.799 58.01 176.93V177.95C57.9521 178.016 58.6918 178.083 60.1861 178.148C61.6804 178.212 63.8994 178.272 66.7142 178.324C69.5289 178.376 72.8832 178.419 76.5821 178.451C80.2809 178.483 84.2505 178.503 88.26 178.51H88.42C88.4863 178.51 88.5499 178.484 88.5968 178.437C88.6437 178.39 88.67 178.327 88.67 178.26ZM98.9508 177.365C98.9515 177.269 98.9333 177.174 98.8972 177.085C98.8611 176.996 98.8079 176.915 98.7406 176.847C98.6733 176.779 98.5932 176.724 98.5049 176.687C98.4166 176.65 98.3218 176.63 98.2259 176.629L92.7261 176.591C92.6302 176.59 92.5352 176.609 92.4464 176.645C92.3575 176.681 92.2767 176.734 92.2084 176.801C92.1402 176.869 92.0858 176.949 92.0485 177.037C92.0112 177.125 91.9917 177.22 91.991 177.316L91.9892 177.576C91.9885 177.672 92.0067 177.767 92.0428 177.856C92.0789 177.944 92.1321 178.025 92.1994 178.094C92.2667 178.162 92.3468 178.216 92.4351 178.253C92.5234 178.291 92.6182 178.31 92.7141 178.311L98.2139 178.349C98.3098 178.35 98.4048 178.332 98.4937 178.296C98.5825 178.26 98.6633 178.207 98.7316 178.139C98.7999 178.072 98.8542 177.992 98.8915 177.903C98.9288 177.815 98.9483 177.72 98.949 177.625L98.9508 177.365ZM72.6502 181.625C72.6518 181.447 72.5826 181.276 72.4581 181.15C72.3336 181.023 72.1638 180.951 71.9861 180.949L67.6463 180.911C67.4686 180.91 67.2976 180.979 67.1709 181.103C67.0441 181.228 66.9721 181.398 66.9705 181.575L66.9698 181.655C66.9683 181.833 67.0374 182.004 67.1619 182.131C67.2864 182.258 67.4562 182.33 67.6339 182.331L71.9737 182.369C72.1514 182.371 72.3224 182.302 72.4491 182.177C72.5759 182.052 72.6479 181.883 72.6495 181.705L72.6502 181.625ZM93.0401 181.565C93.0402 181.484 93.0244 181.403 92.9933 181.328C92.9623 181.252 92.9168 181.184 92.8593 181.126C92.8018 181.069 92.7336 181.023 92.6584 180.992C92.5832 180.96 92.5026 180.944 92.4212 180.944L76.7012 180.917C76.5368 180.916 76.379 180.981 76.2625 181.097C76.1461 181.213 76.0805 181.371 76.0802 181.535L76.0799 181.695C76.0798 181.777 76.0957 181.857 76.1267 181.933C76.1577 182.008 76.2032 182.076 76.2607 182.134C76.3182 182.192 76.3865 182.238 76.4616 182.269C76.5368 182.3 76.6174 182.316 76.6988 182.317L92.4188 182.344C92.5832 182.344 92.741 182.279 92.8575 182.163C92.9739 182.047 93.0395 181.889 93.0398 181.725L93.0401 181.565ZM72.3 197.35C72.2333 197.677 72.2867 197.987 72.46 198.28C72.6133 198.54 72.7967 198.564 73.01 198.35C73.4567 197.904 73.5967 197.27 73.43 196.45C73.4112 196.363 73.3737 196.281 73.3201 196.21C73.2666 196.139 73.1982 196.081 73.12 196.04C72.8 195.887 72.5333 195.924 72.32 196.15C72.1733 196.31 72.11 196.504 72.13 196.73C72.1433 196.95 72.2 197.157 72.3 197.35Z" fill="#FF834F"/>
<path d="M555.75 59.0801C551.21 56.6201 546.413 54.5834 541.36 52.9701C533.047 50.3168 524.273 49.5568 515.04 50.6901C511.04 51.1768 507.49 52.6634 504.39 55.1501C502.81 56.4168 501.757 57.9168 501.23 59.6501C499.257 66.1368 501.47 70.7001 507.87 73.3401C511.61 74.8801 515.68 76.1901 520.08 77.2701C520.807 77.4501 521.53 77.5234 522.25 77.4901C523.3 77.4501 523.99 78.2901 525.02 78.5201C534.553 80.6534 542.947 83.1034 550.2 85.8701C554.19 87.3801 558.45 90.2801 561.52 93.2801C568.807 100.413 571.437 109.617 569.41 120.89C567.36 132.29 558.42 142.21 547.48 146.51C544.7 147.61 541.42 149.1 538.41 149.44C536.98 149.61 535.84 150.28 534.41 150.47C520.017 152.39 505.97 151.53 492.27 147.89C485.09 145.983 478.313 142.997 471.94 138.93C470.927 138.283 470.667 137.41 471.16 136.31L479.45 117.87C479.797 117.083 480.313 116.947 481 117.46C483.387 119.247 485.903 120.777 488.55 122.05C499.49 127.283 511.08 129.707 523.32 129.32C525.57 129.24 527.93 128.77 530.18 128.36C533.08 127.827 535.69 126.717 538.01 125.03C543.56 120.99 543.92 113.02 538.4 108.95C536.12 107.27 533.473 105.947 530.46 104.98C520.53 101.81 510.55 99.9301 499.15 96.4801C480.77 90.9201 469.53 77.9901 473.73 57.8701C476.02 46.9401 482.36 40.0301 491.67 34.6901C494.217 33.2301 496.797 32.1101 499.41 31.3301C508.457 28.6368 516.79 27.5101 524.41 27.9501C526.623 28.0768 528.743 28.1801 530.77 28.2601C532.757 28.3268 534.66 28.5068 536.48 28.8001C543.187 29.8734 549.093 31.4234 554.2 33.4501C557.227 34.6568 560.62 36.2734 564.38 38.3001C564.673 38.4534 564.757 38.6834 564.63 38.9901L556.64 58.7601C556.605 58.8431 556.554 58.9181 556.489 58.9801C556.424 59.0421 556.347 59.0898 556.263 59.12C556.179 59.1502 556.09 59.1622 556.002 59.1554C555.913 59.1485 555.828 59.1228 555.75 59.0801Z" fill="#4D4D4D"/>
<path d="M241.49 127.1H300.55C300.675 127.1 300.794 127.15 300.882 127.238C300.97 127.326 301.02 127.445 301.02 127.57V149.13C301.02 149.255 300.97 149.374 300.882 149.462C300.794 149.551 300.675 149.6 300.55 149.6H213.72C213.595 149.6 213.476 149.551 213.388 149.462C213.3 149.374 213.25 149.255 213.25 149.13V30.3101C213.25 30.1854 213.3 30.0659 213.388 29.9778C213.476 29.8896 213.595 29.8401 213.72 29.8401L240.54 29.8601C240.665 29.8601 240.784 29.9096 240.872 29.9977C240.96 30.0859 241.01 30.2054 241.01 30.3301L241.02 126.63C241.02 126.755 241.07 126.874 241.158 126.962C241.246 127.051 241.365 127.1 241.49 127.1Z" fill="#4D4D4D"/>
<path d="M342.53 80.2302C342.503 98.8369 342.507 117.12 342.54 135.08C342.54 135.51 342.7 135.93 342.87 136.3C342.957 136.487 342.987 136.684 342.96 136.89C342.427 141.01 342.317 145.11 342.63 149.19C342.657 149.464 342.53 149.6 342.25 149.6H317.01C316.877 149.6 316.75 149.546 316.656 149.451C316.563 149.355 316.51 149.225 316.51 149.09L316.52 30.3502C316.52 30.0169 316.687 29.8502 317.02 29.8502L338.37 29.8402C339.13 29.8335 339.707 30.1602 340.1 30.8202L383.88 103.7C384.127 104.114 384.37 104.114 384.61 103.7L428.15 30.3002C428.233 30.1631 428.349 30.0496 428.487 29.9708C428.625 29.892 428.781 29.8504 428.94 29.8502H450.3C450.393 29.8502 450.486 29.8686 450.572 29.9042C450.658 29.9399 450.736 29.9922 450.802 30.0581C450.868 30.1241 450.92 30.2023 450.956 30.2885C450.992 30.3746 451.01 30.467 451.01 30.5602C451.023 51.9202 451.027 73.3635 451.02 94.8902C451.02 95.0702 451.047 95.2469 451.1 95.4202C451.167 95.6335 451.2 95.8535 451.2 96.0802L451.44 149.14C451.44 149.447 451.287 149.6 450.98 149.6L426.07 149.59C425.927 149.59 425.789 149.534 425.688 149.435C425.587 149.336 425.53 149.201 425.53 149.06C425.263 128.58 425.183 108.51 425.29 88.8502C425.3 85.8202 425.01 82.7502 424.99 79.7302C424.977 78.7835 424.73 78.7168 424.25 79.5302L391.02 135.43C390.752 135.878 390.374 136.248 389.921 136.504C389.469 136.76 388.958 136.893 388.44 136.89L378.14 136.87C377.727 136.87 377.413 136.694 377.2 136.34L343.02 80.1002C342.7 79.5735 342.537 79.6169 342.53 80.2302Z" fill="#4D4D4D"/>
<path d="M88.1283 110.58C88.5816 111.127 88.8083 111.043 88.8083 110.33L88.7983 87.65C88.7983 87.2167 89.0149 87 89.4483 87H99.9583C100.465 87 100.562 87.2 100.248 87.6L98.0983 90.38C97.8916 90.6467 97.8583 90.9333 97.9983 91.24C98.5583 92.48 99.3349 93.5267 100.328 94.38C100.608 94.62 100.565 94.74 100.198 94.74L91.9283 94.81C91.2016 94.8167 90.8383 95.1867 90.8383 95.92L90.8083 110C90.8083 110.587 91.0983 110.907 91.6783 110.96L92.1083 111C92.1829 111.007 92.2582 110.998 92.3295 110.975C92.4007 110.952 92.4665 110.914 92.5227 110.865C92.5789 110.815 92.6243 110.754 92.6562 110.686C92.6882 110.619 92.7059 110.545 92.7083 110.47L92.8383 106.77C92.8516 106.437 93.0183 106.31 93.3383 106.39C98.5116 107.637 102.408 110.497 105.028 114.97C105.448 115.69 105.732 116.437 105.878 117.21C106.098 118.4 106.828 119.11 106.818 120.4C106.812 128.627 106.812 136.563 106.818 144.21C106.818 144.543 106.652 144.713 106.318 144.72L71.0383 144.97C70.8464 144.97 70.6622 144.894 70.5256 144.76C70.389 144.625 70.3109 144.442 70.3083 144.25C70.2683 137.943 70.2716 131.62 70.3183 125.28C70.3249 124.42 70.2416 123.6 70.0683 122.82C69.8183 121.68 69.9383 120.61 69.5083 119.54C67.9083 115.553 65.2983 112.973 61.6783 111.8C58.2649 110.7 54.9449 110.977 51.7183 112.63C47.9183 114.577 45.7483 117.853 45.2083 122.46C44.7283 126.52 44.6316 133.84 44.9183 144.42C44.9316 144.853 44.7216 145.067 44.2883 145.06L42.6083 145.03C42.2483 145.023 42.0649 144.843 42.0583 144.49C41.9716 137.81 41.9816 131.287 42.0883 124.92C42.1083 123.787 42.2249 122.71 42.4383 121.69C42.7183 120.32 42.6983 118.83 43.2083 117.49C45.0816 112.557 48.2416 109.147 52.6883 107.26C55.2949 106.153 59.0716 105.64 64.0183 105.72C71.6649 105.847 79.2116 105.863 86.6583 105.77C87.1516 105.763 87.4216 106.007 87.4683 106.5C87.5583 107.62 87.3983 109.69 88.1283 110.58ZM72.8983 108.02C73.0449 108.707 73.4249 108.9 74.0383 108.6C74.1127 108.564 74.1756 108.508 74.2198 108.437C74.264 108.366 74.2878 108.284 74.2883 108.2C74.2883 107.933 74.1783 107.72 73.9583 107.56C73.7316 107.393 73.4883 107.353 73.2283 107.44C73.11 107.48 73.0106 107.561 72.9495 107.668C72.8885 107.776 72.8702 107.901 72.8983 108.02ZM43.8783 138.57C44.3716 137.603 44.3083 136.903 43.6883 136.47C43.3149 136.203 43.0716 136.293 42.9583 136.74C42.7783 137.433 42.8516 138.053 43.1783 138.6C43.2155 138.661 43.2684 138.711 43.3315 138.745C43.3946 138.779 43.4656 138.795 43.5371 138.792C43.6086 138.789 43.678 138.766 43.738 138.727C43.798 138.688 43.8464 138.634 43.8783 138.57ZM73.9483 138.75C74.2083 138.117 74.2916 137.463 74.1983 136.79C74.1649 136.537 74.0183 136.41 73.7583 136.41H73.4683C73.3374 136.41 73.2117 136.462 73.1182 136.556C73.0247 136.649 72.9709 136.777 72.9683 136.91C72.9683 137.65 73.1249 138.277 73.4383 138.79C73.4666 138.834 73.5064 138.87 73.5534 138.893C73.6004 138.917 73.6529 138.927 73.7053 138.923C73.7576 138.919 73.8079 138.901 73.8507 138.87C73.8935 138.84 73.9272 138.798 73.9483 138.75ZM103.218 138.68C103.264 138.777 103.34 138.855 103.435 138.905C103.53 138.954 103.639 138.971 103.744 138.953C103.849 138.934 103.946 138.882 104.019 138.804C104.092 138.726 104.137 138.626 104.148 138.52L104.268 137.05C104.295 136.879 104.252 136.704 104.15 136.565C104.048 136.425 103.894 136.332 103.723 136.305C103.552 136.278 103.378 136.321 103.238 136.423C103.098 136.525 103.005 136.679 102.978 136.85C102.845 137.437 102.925 138.047 103.218 138.68Z" fill="#FF834F"/>
<path d="M50.4684 128.8H47.4784C47.2497 128.801 47.0294 128.715 46.8623 128.561C46.6951 128.407 46.5936 128.196 46.5784 127.97C46.1484 122.26 47.3084 116.71 52.9984 114.08C58.2584 111.66 64.5084 113.87 67.2084 118.78C68.3417 120.84 68.905 123.35 68.8984 126.31C68.885 132.543 68.895 138.563 68.9284 144.37C68.9284 144.77 68.7284 144.973 68.3284 144.98L46.9984 145.19C46.6917 145.197 46.5384 145.043 46.5384 144.73L46.5184 130.79C46.5183 130.646 46.5749 130.507 46.6759 130.405C46.7769 130.302 46.9142 130.243 47.0584 130.24L50.0184 130.19C50.1807 130.188 50.3377 130.132 50.4644 130.03C50.5912 129.929 50.6806 129.788 50.7184 129.63L50.8084 129.24C50.8817 128.947 50.7684 128.8 50.4684 128.8ZM60.4485 129.43C60.4498 129.239 60.3752 129.056 60.2412 128.92C60.1071 128.784 59.9245 128.707 59.7336 128.705L55.3737 128.675C55.2791 128.674 55.1854 128.692 55.0977 128.728C55.0101 128.763 54.9304 128.816 54.8631 128.882C54.7958 128.949 54.7422 129.028 54.7054 129.115C54.6686 129.202 54.6493 129.295 54.6487 129.39L54.6483 129.45C54.6469 129.641 54.7215 129.824 54.8556 129.96C54.9896 130.096 55.1722 130.173 55.3632 130.175L59.7231 130.205C59.8176 130.206 59.9114 130.188 59.999 130.152C60.0866 130.117 60.1663 130.064 60.2336 129.998C60.301 129.931 60.3546 129.852 60.3913 129.765C60.4281 129.678 60.4474 129.585 60.4481 129.49L60.4485 129.43Z" fill="#FF834F"/>
<path d="M59.7337 128.705L55.3738 128.675C54.9762 128.672 54.6516 128.992 54.6488 129.39L54.6484 129.45C54.6456 129.848 54.9657 130.172 55.3633 130.175L59.7232 130.205C60.1208 130.208 60.4454 129.888 60.4482 129.49L60.4486 129.43C60.4514 129.033 60.1313 128.708 59.7337 128.705Z" fill="#FF4949"/>
<path d="M88.1183 148.04H80.2383C80.0009 148.04 79.8083 148.233 79.8083 148.47V172.39C79.8083 172.628 80.0009 172.82 80.2383 172.82H88.1183C88.3558 172.82 88.5483 172.628 88.5483 172.39V148.47C88.5483 148.233 88.3558 148.04 88.1183 148.04Z" fill="#FF834F"/>
<path d="M248.682 194.545C248.682 198.227 248.017 201.409 246.688 204.091C245.358 206.773 243.534 208.841 241.216 210.295C238.898 211.75 236.25 212.477 233.273 212.477C230.295 212.477 227.648 211.75 225.33 210.295C223.011 208.841 221.188 206.773 219.858 204.091C218.528 201.409 217.864 198.227 217.864 194.545C217.864 190.864 218.528 187.682 219.858 185C221.188 182.318 223.011 180.25 225.33 178.795C227.648 177.341 230.295 176.614 233.273 176.614C236.25 176.614 238.898 177.341 241.216 178.795C243.534 180.25 245.358 182.318 246.688 185C248.017 187.682 248.682 190.864 248.682 194.545ZM244.591 194.545C244.591 191.523 244.085 188.972 243.074 186.892C242.074 184.812 240.716 183.239 239 182.17C237.295 181.102 235.386 180.568 233.273 180.568C231.159 180.568 229.244 181.102 227.528 182.17C225.824 183.239 224.466 184.812 223.455 186.892C222.455 188.972 221.955 191.523 221.955 194.545C221.955 197.568 222.455 200.119 223.455 202.199C224.466 204.278 225.824 205.852 227.528 206.92C229.244 207.989 231.159 208.523 233.273 208.523C235.386 208.523 237.295 207.989 239 206.92C240.716 205.852 242.074 204.278 243.074 202.199C244.085 200.119 244.591 197.568 244.591 194.545ZM259.267 196.25V212H255.244V185.818H259.131V189.909H259.472C260.085 188.58 261.017 187.511 262.267 186.705C263.517 185.886 265.131 185.477 267.108 185.477C268.881 185.477 270.432 185.841 271.761 186.568C273.091 187.284 274.125 188.375 274.864 189.841C275.602 191.295 275.972 193.136 275.972 195.364V212H271.949V195.636C271.949 193.58 271.415 191.977 270.347 190.83C269.278 189.67 267.813 189.091 265.949 189.091C264.665 189.091 263.517 189.369 262.506 189.926C261.506 190.483 260.716 191.295 260.136 192.364C259.557 193.432 259.267 194.727 259.267 196.25ZM287.345 177.091V212H283.322V177.091H287.345ZM294.713 212V185.818H298.736V212H294.713ZM296.759 181.455C295.974 181.455 295.298 181.188 294.73 180.653C294.173 180.119 293.895 179.477 293.895 178.727C293.895 177.977 294.173 177.335 294.73 176.801C295.298 176.267 295.974 176 296.759 176C297.543 176 298.213 176.267 298.77 176.801C299.338 177.335 299.622 177.977 299.622 178.727C299.622 179.477 299.338 180.119 298.77 180.653C298.213 181.188 297.543 181.455 296.759 181.455ZM310.126 196.25V212H306.104V185.818H309.99V189.909H310.331C310.945 188.58 311.876 187.511 313.126 186.705C314.376 185.886 315.99 185.477 317.967 185.477C319.74 185.477 321.291 185.841 322.621 186.568C323.95 187.284 324.984 188.375 325.723 189.841C326.462 191.295 326.831 193.136 326.831 195.364V212H322.808V195.636C322.808 193.58 322.274 191.977 321.206 190.83C320.138 189.67 318.672 189.091 316.808 189.091C315.524 189.091 314.376 189.369 313.365 189.926C312.365 190.483 311.575 191.295 310.996 192.364C310.416 193.432 310.126 194.727 310.126 196.25ZM345.159 212.545C342.636 212.545 340.46 211.989 338.631 210.875C336.812 209.75 335.409 208.182 334.42 206.17C333.443 204.148 332.955 201.795 332.955 199.114C332.955 196.432 333.443 194.068 334.42 192.023C335.409 189.966 336.784 188.364 338.545 187.216C340.318 186.057 342.386 185.477 344.75 185.477C346.114 185.477 347.46 185.705 348.79 186.159C350.119 186.614 351.33 187.352 352.42 188.375C353.511 189.386 354.381 190.727 355.028 192.398C355.676 194.068 356 196.125 356 198.568V200.273H335.818V196.795H351.909C351.909 195.318 351.614 194 351.023 192.841C350.443 191.682 349.614 190.767 348.534 190.097C347.466 189.426 346.205 189.091 344.75 189.091C343.148 189.091 341.761 189.489 340.591 190.284C339.432 191.068 338.54 192.091 337.915 193.352C337.29 194.614 336.977 195.966 336.977 197.409V199.727C336.977 201.705 337.318 203.381 338 204.756C338.693 206.119 339.653 207.159 340.881 207.875C342.108 208.58 343.534 208.932 345.159 208.932C346.216 208.932 347.17 208.784 348.023 208.489C348.886 208.182 349.631 207.727 350.256 207.125C350.881 206.511 351.364 205.75 351.705 204.841L355.591 205.932C355.182 207.25 354.494 208.409 353.528 209.409C352.563 210.398 351.369 211.17 349.949 211.727C348.528 212.273 346.932 212.545 345.159 212.545Z" fill="#4D4D4D"/>
</svg>
