<svg width="171" height="157" viewBox="0 0 171 157" fill="none" xmlns="http://www.w3.org/2000/svg">
<path d="M28.1751 86.2509C26.7031 86.2509 25.4445 85.8456 24.3991 85.0349C23.3538 84.2243 22.5538 83.1149 21.9991 81.7069C21.4658 80.2989 21.1991 78.6989 21.1991 76.9069C21.1991 74.9016 21.6685 73.0029 22.6071 71.2109C23.5458 69.3976 24.7725 67.9469 26.2871 66.8589C27.8231 65.7496 29.4125 65.1949 31.0551 65.1949C32.4418 65.1949 33.5085 65.5043 34.2551 66.1229C35.0018 66.7416 35.3751 67.4669 35.3751 68.2989C35.3751 68.7896 35.2258 69.2376 34.9271 69.6429C34.6498 70.0483 34.2445 70.3576 33.7111 70.5709C33.6471 70.4429 33.6151 70.2403 33.6151 69.9629C33.6151 69.7069 33.6471 69.4509 33.7111 69.1949C33.7538 68.8536 33.7751 68.6083 33.7751 68.4589C33.7751 68.2456 33.7431 68.0643 33.6791 67.9149C33.3805 67.1683 32.5698 66.7949 31.2471 66.7949C30.8845 66.7949 30.4578 66.8269 29.9671 66.8909C28.8365 67.0403 27.7165 67.6056 26.6071 68.5869C25.4978 69.5469 24.5911 70.7523 23.8871 72.2029C23.1831 73.6536 22.8311 75.1363 22.8311 76.6509C22.8311 77.9736 23.0445 79.2323 23.4711 80.4269C23.9191 81.6003 24.5591 82.5496 25.3911 83.2749C26.2231 84.0003 27.2151 84.3629 28.3671 84.3629C29.8605 84.3629 31.0978 84.1816 32.0791 83.8189C33.0818 83.4563 34.0631 82.9016 35.0231 82.1549C35.1298 82.0696 35.2471 82.0269 35.3751 82.0269C35.6098 82.0269 35.7698 82.1656 35.8551 82.4429C35.9618 82.9549 35.6205 83.5096 34.8311 84.1069C34.0418 84.7043 33.0178 85.2163 31.7591 85.6429C30.5005 86.0483 29.3058 86.2509 28.1751 86.2509ZM69.1616 85.7389C68.7776 85.7389 68.4683 85.5789 68.2336 85.2589C68.0203 84.9176 67.8283 84.4056 67.6576 83.7229C67.487 83.0189 67.2203 81.8029 66.8576 80.0749C66.495 81.5043 65.8123 82.6456 64.8096 83.4989C63.807 84.3309 62.5803 84.7469 61.1296 84.7469C59.807 84.7469 58.687 84.2883 57.7696 83.3709C56.8736 82.4323 56.2016 81.2056 55.7536 79.6909C55.3056 78.1549 55.0816 76.5016 55.0816 74.7309C55.0816 73.9203 55.1563 73.2269 55.3056 72.6509C55.4763 72.0536 55.679 71.6056 55.9136 71.3069C56.1696 71.0083 56.415 70.8696 56.6496 70.8909C56.9056 70.8909 57.0336 71.0616 57.0336 71.4029C57.0336 71.6803 56.959 72.1176 56.8096 72.7149C56.6603 73.3763 56.5856 74.1336 56.5856 74.9869C56.5856 76.2669 56.767 77.5149 57.1296 78.7309C57.5136 79.9469 58.0683 80.9496 58.7936 81.7389C59.5403 82.5069 60.415 82.8909 61.4176 82.8909C62.2496 82.8909 63.007 82.6456 63.6896 82.1549C64.3723 81.6643 64.9056 81.0456 65.2896 80.2989C65.695 79.5523 65.8976 78.8163 65.8976 78.0909V73.0029C66.1323 72.5549 66.4523 72.3309 66.8576 72.3309C67.2203 72.3309 67.4656 72.6403 67.5936 73.2589C67.7216 73.8776 67.7856 74.7523 67.7856 75.8829C67.7856 76.8429 67.775 77.5789 67.7536 78.0909C67.8816 78.7949 68.0736 79.5096 68.3296 80.2349C68.607 80.9603 68.9483 81.7816 69.3536 82.6989C69.8443 83.8296 70.0896 84.5229 70.0896 84.7789C70.0896 85.4189 69.7803 85.7389 69.1616 85.7389ZM75.4764 85.8989C74.6017 84.1923 73.9084 82.1869 73.3964 79.8829C72.9057 77.5789 72.6604 75.5843 72.6604 73.8989C72.6604 73.2376 72.8097 72.8109 73.1084 72.6189C73.279 72.5123 73.407 72.4589 73.4924 72.4589C73.6417 72.4589 73.7484 72.5763 73.8124 72.8109C73.8977 73.0456 73.983 73.4723 74.0684 74.0909L74.2284 75.2429C74.463 74.0909 74.911 73.1843 75.5724 72.5229C76.255 71.8403 77.087 71.4989 78.0684 71.4989C79.1564 71.4989 79.967 71.7123 80.5004 72.1389C81.0337 72.5443 81.3004 73.2269 81.3004 74.1869C80.2337 73.6749 79.263 73.4189 78.3884 73.4189C77.5564 73.4189 76.8417 73.6429 76.2444 74.0909C75.647 74.5389 75.231 75.2003 74.9964 76.0749C74.8044 76.6723 74.7084 77.2376 74.7084 77.7709C74.7084 78.3469 74.783 78.8909 74.9324 79.4029C75.103 79.8936 75.359 80.5016 75.7004 81.2269C76.0204 81.9736 76.2657 82.6136 76.4364 83.1469C76.6284 83.6803 76.735 84.2563 76.7564 84.8749C76.7564 85.2376 76.6284 85.5043 76.3724 85.6749C76.1164 85.8243 75.8177 85.8989 75.4764 85.8989ZM82.7266 82.1229C83.0253 81.8883 83.3133 81.7709 83.5906 81.7709C83.8466 81.7709 84.092 81.8456 84.3266 81.9949C84.5826 82.1443 84.8386 82.3363 85.0946 82.5709C85.3506 82.7843 85.5533 82.9443 85.7026 83.0509C86.1933 83.4349 86.8653 83.7336 87.7186 83.9469C88.572 84.1603 89.4786 84.2669 90.4386 84.2669C91.5266 84.2669 92.4973 84.0643 93.3506 83.6589C94.2253 83.2323 94.6626 82.6669 94.6626 81.9629C94.6626 81.3229 94.428 80.8216 93.9586 80.4589C93.4893 80.0749 92.924 79.7976 92.2626 79.6269C91.6013 79.4563 90.7266 79.2963 89.6386 79.1469C88.1666 78.9763 86.9933 78.7629 86.1186 78.5069C85.2653 78.2509 84.5826 77.8349 84.0706 77.2589C83.5586 76.6616 83.3026 75.8296 83.3026 74.7629C83.3026 73.6109 83.8466 72.7576 84.9346 72.2029C86.0226 71.6269 87.2706 71.3389 88.6786 71.3389C89.9586 71.3389 91.0466 71.6163 91.9426 72.1709C92.86 72.7043 93.3293 73.4723 93.3506 74.4749C93.3933 75.0509 93.308 75.5096 93.0946 75.8509C92.8813 76.1709 92.6253 76.3309 92.3266 76.3309C92.156 76.3309 92.0066 76.2669 91.8786 76.1389C91.772 76.0109 91.7186 75.8403 91.7186 75.6269C91.7186 75.2856 91.836 74.9123 92.0706 74.5069C91.964 73.9949 91.612 73.6109 91.0146 73.3549C90.4386 73.0989 89.7453 72.9709 88.9346 72.9709C87.74 72.9709 86.7906 73.1949 86.0866 73.6429C85.3826 74.0696 85.0306 74.5816 85.0306 75.1789C85.0306 75.8189 85.2866 76.3096 85.7986 76.6509C86.3106 76.9923 86.9293 77.2376 87.6546 77.3869C88.4013 77.5149 89.4573 77.6429 90.8226 77.7709C91.9533 77.9203 92.8706 78.1016 93.5746 78.3149C94.3 78.5283 94.908 78.9443 95.3986 79.5629C95.8893 80.1603 96.1346 81.0243 96.1346 82.1549C96.1346 83.3283 95.5906 84.2563 94.5026 84.9389C93.4146 85.6003 92.1133 85.9309 90.5986 85.9309C88.6573 85.9309 86.9186 85.6003 85.3826 84.9389C83.868 84.2776 82.9826 83.3389 82.7266 82.1229ZM106.4 85.8989C105.035 85.8989 103.776 85.6323 102.624 85.0989C101.472 84.5656 100.555 83.8083 99.8719 82.8269C99.1892 81.8456 98.8479 80.7149 98.8479 79.4349C98.8479 78.0056 99.1145 76.6723 99.6479 75.4349C100.181 74.1763 100.96 73.1736 101.984 72.4269C103.029 71.6589 104.245 71.2749 105.632 71.2749C107.083 71.2749 108.181 71.7443 108.928 72.6829C109.675 73.6003 110.027 74.7629 109.984 76.1709C109.984 77.4296 109.483 78.3896 108.48 79.0509C107.499 79.7123 106.24 80.0429 104.704 80.0429C104.469 80.0429 104.117 80.0216 103.648 79.9789C102.88 79.8936 102.336 79.7763 102.016 79.6269C101.696 79.4776 101.536 79.1789 101.536 78.7309C101.536 78.5816 101.579 78.4749 101.664 78.4109C101.749 78.3256 101.92 78.2829 102.176 78.2829C102.453 78.2829 102.944 78.3469 103.648 78.4749C104.331 78.6029 104.939 78.6669 105.472 78.6669C107.435 78.6669 108.416 77.8136 108.416 76.1069C108.416 75.0829 108.224 74.2723 107.84 73.6749C107.477 73.0776 106.827 72.7789 105.888 72.7789C104.864 72.7789 103.947 73.0563 103.136 73.6109C102.325 74.1443 101.696 74.8483 101.248 75.7229C100.821 76.5976 100.608 77.5256 100.608 78.5069C100.608 80.1923 101.077 81.5789 102.016 82.6669C102.955 83.7336 104.405 84.2669 106.368 84.2669C106.603 84.2669 106.997 84.2456 107.552 84.2029C107.787 84.1816 108.075 84.1176 108.416 84.0109C108.757 83.9043 109.003 83.8296 109.152 83.7869C110.069 83.4669 110.741 83.3069 111.168 83.3069C111.488 83.3069 111.733 83.3923 111.904 83.5629C111.371 84.3736 110.571 84.9709 109.504 85.3549C108.459 85.7176 107.424 85.8989 106.4 85.8989ZM112.392 78.5069C112.392 77.8883 112.968 77.4189 114.12 77.0989C115.293 76.7789 116.957 76.5336 119.112 76.3629C119.346 76.3416 119.677 76.3309 120.104 76.3309C120.957 76.3309 121.608 76.4163 122.056 76.5869C122.504 76.7576 122.728 76.9603 122.728 77.1949C122.728 77.6216 122.525 77.8349 122.12 77.8349C121.8 77.8349 121.458 77.7816 121.096 77.6749C120.584 77.5469 120.072 77.4829 119.56 77.4829C118.749 77.4829 117.554 77.6536 115.976 77.9949C115.186 78.1656 114.525 78.2936 113.992 78.3789C113.458 78.4643 112.925 78.5069 112.392 78.5069ZM130.536 87.2109C130.322 87.2109 130.141 87.1683 129.992 87.0829C129.842 86.9976 129.618 86.8269 129.32 86.5709L129.608 84.8749C129.992 82.5069 130.29 80.5336 130.504 78.9549C130.717 77.3549 130.866 75.7123 130.952 74.0269C130.226 74.6669 129.245 75.7123 128.008 77.1629C127.282 78.0163 126.717 78.6456 126.312 79.0509C125.928 79.4349 125.629 79.6269 125.416 79.6269C125.245 79.6056 125.085 79.5096 124.936 79.3389C124.808 79.1469 124.744 78.9229 124.744 78.6669C124.744 78.3683 124.85 78.1016 125.064 77.8669L130.696 71.8509C130.888 71.6376 131.037 71.3496 131.144 70.9869C131.25 70.6243 131.357 70.1229 131.464 69.4829C131.592 68.6723 131.741 68.0643 131.912 67.6589C132.082 67.2323 132.36 67.0189 132.744 67.0189C132.914 67.0189 133.042 67.0403 133.128 67.0829C133.213 67.1043 133.288 67.1789 133.352 67.3069L133.384 68.3629C133.384 68.7469 133.192 70.6136 132.808 73.9629C132.445 77.2909 132.05 80.3309 131.624 83.0829C131.197 85.8349 130.834 87.2109 130.536 87.2109ZM148.179 85.8989C147.774 85.8989 147.336 85.8563 146.867 85.7709C146.419 85.6643 145.971 85.5576 145.523 85.4509C144.414 85.1309 143.518 84.9709 142.835 84.9709C142.195 84.9709 141.48 85.0243 140.691 85.1309C139.518 85.2376 138.782 85.2909 138.483 85.2909C137.203 85.2909 136.222 85.0563 135.539 84.5869C134.878 84.1176 134.504 83.4456 134.419 82.5709C134.376 82.0376 134.526 81.6643 134.867 81.4509C135.208 81.2163 135.752 81.0989 136.499 81.0989C136.926 81.0989 137.32 81.1629 137.683 81.2909C138.067 81.3976 138.558 81.5683 139.155 81.8029C139.752 82.0589 140.286 82.2509 140.755 82.3789C141.224 82.5069 141.726 82.5709 142.259 82.5709C142.835 82.5709 143.422 82.2083 144.019 81.4829C144.638 80.7576 145.139 79.8083 145.523 78.6349C145.928 77.4616 146.131 76.2349 146.131 74.9549C146.131 73.3763 145.907 72.1603 145.459 71.3069C145.032 70.4323 144.222 69.9949 143.027 69.9949C140.766 69.9949 139.134 71.3069 138.131 73.9309C137.747 73.7816 137.47 73.5896 137.299 73.3549C137.15 73.0989 137.075 72.7576 137.075 72.3309C137.075 71.7123 137.31 71.1149 137.779 70.5389C138.27 69.9416 138.952 69.4616 139.827 69.0989C140.723 68.7149 141.758 68.5229 142.931 68.5229C144.616 68.5229 145.875 69.0989 146.707 70.2509C147.56 71.4029 147.987 72.9176 147.987 74.7949C147.987 76.6723 147.592 78.3683 146.803 79.8829C146.035 81.3763 145.096 82.5603 143.987 83.4349C144.52 83.6483 145.032 83.7869 145.523 83.8509C146.035 83.9149 146.59 83.9469 147.187 83.9469C147.912 83.9683 148.414 84.0429 148.691 84.1709C148.99 84.2776 149.139 84.5549 149.139 85.0029C149.139 85.1949 149.043 85.3976 148.851 85.6109C148.659 85.8029 148.435 85.8989 148.179 85.8989Z" fill="white"/>
<g clip-path="url(#clip0_3_2604)">
<path d="M49.156 86.6054C48.0392 87.2059 46.8757 87.5584 45.6655 87.6627C44.4553 87.7671 43.2915 87.6513 42.1742 87.3154C41.0569 86.9795 40.0222 86.4344 39.0701 85.68C38.1181 84.9257 37.3418 83.9901 36.7412 82.8733C36.1407 81.7564 35.7882 80.5929 35.6839 79.3827C35.5796 78.1725 35.6953 77.0088 36.0312 75.8915C36.3671 74.7741 36.9122 73.7394 37.6666 72.7874C38.4209 71.8353 39.3565 71.059 40.4734 70.4585C41.5902 69.8579 42.7537 69.5055 43.9639 69.4011C45.1741 69.2968 46.3378 69.4126 47.4552 69.7485C48.5725 70.0844 49.6072 70.6295 50.5592 71.3838C51.5113 72.1382 52.2876 73.0738 52.8881 74.1906C53.4887 75.3074 53.8411 76.4709 53.9455 77.6811C54.0498 78.8913 53.934 80.0551 53.5981 81.1724C53.2622 82.2897 52.7171 83.3244 51.9628 84.2765C51.2084 85.2285 50.2728 86.0048 49.156 86.6054ZM47.4587 85.3845L46.6121 83.8101C46.1681 84.0489 45.703 84.0952 45.2167 83.949C44.7305 83.8029 44.368 83.5078 44.1292 83.0637L43.695 82.2564L37.736 80.4649C37.8258 80.7289 37.9191 80.991 38.0157 81.2512C38.1123 81.5115 38.2257 81.7628 38.3559 82.005C39.2314 83.6331 40.5333 84.7718 42.2614 85.4211C43.9896 86.0703 45.722 86.0581 47.4587 85.3845ZM51.9223 80.3302C52.0323 79.8895 52.1026 79.4397 52.1334 78.9808C52.1642 78.5219 52.1507 78.0694 52.0931 77.6234C52.0354 77.1774 51.9386 76.7394 51.8028 76.3094C51.667 75.8794 51.4905 75.4625 51.2734 75.0589C50.5644 73.7402 49.5501 72.7331 48.2307 72.0375C46.9113 71.3419 45.5091 71.0812 44.0241 71.2552L44.1978 71.5781C44.4366 72.0222 44.4829 72.4873 44.3367 72.9735C44.1905 73.4598 43.8954 73.8223 43.4514 74.0611L41.8367 74.9293L42.7049 76.544C42.8279 76.7728 42.8537 77.0061 42.7821 77.2441C42.7106 77.482 42.5605 77.6625 42.3317 77.7855L40.717 78.6538L41.5853 80.2685L46.4294 77.6637C46.6581 77.5407 46.8915 77.5149 47.1294 77.5865C47.3674 77.658 47.5478 77.8081 47.6709 78.0369L48.9733 80.4589L49.7806 80.0248C50.1304 79.8367 50.5027 79.7709 50.8975 79.8275C51.2922 79.8841 51.6338 80.0517 51.9223 80.3302Z" fill="white"/>
</g>
<defs>
<clipPath id="clip0_3_2604">
<rect width="22" height="22" fill="white" transform="translate(29.917 74.0532) rotate(-28.2682)"/>
</clipPath>
</defs>
</svg>
