<svg width="24" height="24" viewBox="0 0 26 26" fill="none" xmlns="http://www.w3.org/2000/svg">
<path d="M13.2973 24.7873C12.85 25.1683 12.34 25.3453 11.7675 25.3184C11.195 25.2916 10.7304 25.0688 10.3738 24.65L1.29673 13.9914C0.940129 13.5727 0.794146 13.0786 0.858779 12.5091C0.923412 11.9396 1.17941 11.4643 1.62677 11.0834L13.0142 1.38559C13.4615 1.0046 13.9715 0.82755 14.544 0.854431C15.1165 0.881312 15.5811 1.10412 15.9377 1.52285L25.0148 12.1815C25.3714 12.6002 25.5174 13.0943 25.4527 13.6638C25.3881 14.2333 25.1321 14.7085 24.6848 15.0895L13.2973 24.7873ZM12.0006 23.2646L16.8809 19.1084L7.80382 8.44983L2.9235 12.606L12.0006 23.2646ZM18.5077 17.723L23.388 13.5669L18.8495 8.23755L13.9691 12.3937L18.5077 17.723ZM12.6724 10.8711L17.5527 6.71489L14.3109 2.90824L9.43059 7.06443L12.6724 10.8711Z" fill="white"/>
</svg>
