<svg width="84" height="48" viewBox="0 0 84 48" fill="none" xmlns="http://www.w3.org/2000/svg">
<rect x="12" y="6" width="72" height="36" rx="10" fill="#FFF500"/>
<g filter="url(#filter0_d_157_27)">
<path d="M19.3529 20.4368C18.8721 18.1747 21.5668 16.6189 23.2854 18.1663C24.054 18.8584 25.1808 18.9768 26.0765 18.4597C28.0793 17.3034 30.3917 19.3854 29.451 21.4981C29.0304 22.4429 29.2659 23.5512 30.0345 24.2432C31.7531 25.7907 30.4875 28.6333 28.1876 28.3915C27.159 28.2834 26.1778 28.8499 25.7571 29.7947C24.8165 31.9074 21.7219 31.5822 21.2411 29.3201C21.0261 28.3084 20.1841 27.5503 19.1555 27.4422C16.8556 27.2005 16.2086 24.1569 18.2114 23.0006C19.1071 22.4834 19.5679 21.4484 19.3529 20.4368Z" fill="#059669"/>
</g>
<path d="M17.7831 18.7075C17.2107 16.0144 20.4189 14.1621 22.465 16.0044C23.702 17.1182 25.5155 17.3088 26.9571 16.4765C29.3415 15.0999 32.0945 17.5787 30.9747 20.094C30.2976 21.6146 30.6768 23.3983 31.9138 24.5121C33.9599 26.3544 32.4531 29.7387 29.7149 29.4509C28.0594 29.2769 26.4802 30.1886 25.8032 31.7093C24.6833 34.2245 20.9991 33.8373 20.4266 31.1442C20.0806 29.516 18.7254 28.2958 17.07 28.1218C14.3318 27.834 13.5616 24.2104 15.946 22.8338C17.3875 22.0015 18.1292 20.3357 17.7831 18.7075Z" stroke="white"/>
<defs>
<filter id="filter0_d_157_27" x="13.0156" y="17.5439" width="21.8164" height="21.6675" filterUnits="userSpaceOnUse" color-interpolation-filters="sRGB">
<feFlood flood-opacity="0" result="BackgroundImageFix"/>
<feColorMatrix in="SourceAlpha" type="matrix" values="0 0 0 0 0 0 0 0 0 0 0 0 0 0 0 0 0 0 127 0" result="hardAlpha"/>
<feOffset dy="4"/>
<feGaussianBlur stdDeviation="2"/>
<feComposite in2="hardAlpha" operator="out"/>
<feColorMatrix type="matrix" values="0 0 0 0 0 0 0 0 0 0 0 0 0 0 0 0 0 0 0.25 0"/>
<feBlend mode="normal" in2="BackgroundImageFix" result="effect1_dropShadow_157_27"/>
<feBlend mode="normal" in="SourceGraphic" in2="effect1_dropShadow_157_27" result="shape"/>
</filter>
</defs>
</svg>
