<svg width="24" height="24" viewBox="0 0 15 20" fill="none" xmlns="http://www.w3.org/2000/svg">
<path d="M2.46897 3.19529C2.29328 2.80086 1.9449 2.37019 1.56641 2.57799V2.57799V2.57799C1.18539 2.78718 1.36725 3.32067 1.59595 3.6903L5.5 9.99987L1.59564 16.3099C1.36714 16.6792 1.1889 17.2071 1.56641 17.4217V17.4217V17.4217C1.94198 17.6353 2.29353 17.1983 2.46932 16.8036L5.5 9.99987L12.8089 10.4919C13.2257 10.52 13.75 10.4176 13.75 9.99987V9.99987V9.99987C13.75 9.58304 13.2254 9.47978 12.8095 9.50778L5.5 9.99987L2.46897 3.19529ZM0.957031 1.48815C1.55078 1.15612 2.27344 1.17174 2.85156 1.5233L14.1016 8.3983C14.6602 8.73815 15 9.34362 15 9.99987C15 10.6561 14.6602 11.2577 14.1016 11.6014L2.85156 18.4764C2.27344 18.8319 1.54688 18.8436 0.957031 18.5116C0.367188 18.1796 0 17.5546 0 16.8749V3.12487C0 2.44518 0.367188 1.82018 0.957031 1.48815Z" fill="white"/>
<path d="M3.80954 6.09453C3.72051 5.88043 3.53528 5.64173 3.33542 5.75928V5.75928V5.75928C3.1251 5.88297 3.22883 6.18296 3.35087 6.39424L5.43333 9.9996L3.35071 13.6052C3.22878 13.8163 3.12722 14.1131 3.33542 14.2399V14.2399V14.2399C3.53359 14.3606 3.72065 14.1184 3.80974 13.9042L5.43333 9.9996L9.31398 10.2795C9.54691 10.2963 9.83333 10.2331 9.83333 9.9996V9.9996V9.9996C9.83333 9.76657 9.5467 9.70295 9.31428 9.71971L5.43333 9.9996L3.80954 6.09453ZM3.01042 5.13662C3.32708 4.94692 3.7125 4.95585 4.02083 5.1567L10.0208 9.08458C10.3188 9.27874 10.5 9.62466 10.5 9.9996C10.5 10.3745 10.3188 10.7182 10.0208 10.9146L4.02083 14.8425C3.7125 15.0456 3.325 15.0523 3.01042 14.8626C2.69583 14.6729 2.5 14.3158 2.5 13.9275V6.07172C2.5 5.6834 2.69583 5.32632 3.01042 5.13662Z" fill="white"/>
</svg>
