<svg width="22" height="22" viewBox="0 0 24 20" fill="none" xmlns="http://www.w3.org/2000/svg">
<path d="M1.375 0C1.03125 0 0.75 0.28125 0.75 0.625C0.75 0.96875 1.03125 1.25 1.375 1.25H2.85547C3.15234 1.25 3.41016 1.45703 3.46875 1.75L5.76953 13C6.00781 14.1641 7.03125 15 8.21875 15H20.125C20.4688 15 20.75 14.7188 20.75 14.375C20.75 14.0312 20.4688 13.75 20.125 13.75H8.21875C7.625 13.75 7.11328 13.332 6.99219 12.75L6.6875 11.25H18.9727C20.1211 11.25 21.1211 10.4688 21.3984 9.35547L23.0391 2.80469C23.2344 2.01563 22.6406 1.25 21.8281 1.25H4.62109C4.36328 0.507812 3.65625 0 2.85547 0H1.375ZM4.89453 2.5H21.8242L20.1875 9.05469C20.0469 9.60938 19.5469 10 18.9727 10H6.42969L4.89453 2.5ZM7.3125 17.8125C7.3125 17.5639 7.41127 17.3254 7.58709 17.1496C7.7629 16.9738 8.00136 16.875 8.25 16.875C8.49864 16.875 8.7371 16.9738 8.91291 17.1496C9.08873 17.3254 9.1875 17.5639 9.1875 17.8125C9.1875 18.0611 9.08873 18.2996 8.91291 18.4754C8.7371 18.6512 8.49864 18.75 8.25 18.75C8.00136 18.75 7.7629 18.6512 7.58709 18.4754C7.41127 18.2996 7.3125 18.0611 7.3125 17.8125ZM10.4375 17.8125C10.4375 17.5252 10.3809 17.2408 10.271 16.9754C10.1611 16.71 9.99992 16.4688 9.7968 16.2657C9.59367 16.0626 9.35252 15.9014 9.08712 15.7915C8.82172 15.6816 8.53727 15.625 8.25 15.625C7.96273 15.625 7.67828 15.6816 7.41288 15.7915C7.14748 15.9014 6.90633 16.0626 6.7032 16.2657C6.50008 16.4688 6.33895 16.71 6.22901 16.9754C6.11908 17.2408 6.0625 17.5252 6.0625 17.8125C6.0625 18.0998 6.11908 18.3842 6.22901 18.6496C6.33895 18.915 6.50008 19.1562 6.7032 19.3593C6.90633 19.5624 7.14748 19.7236 7.41288 19.8335C7.67828 19.9434 7.96273 20 8.25 20C8.53727 20 8.82172 19.9434 9.08712 19.8335C9.35252 19.7236 9.59367 19.5624 9.7968 19.3593C9.99992 19.1562 10.1611 18.915 10.271 18.6496C10.3809 18.3842 10.4375 18.0998 10.4375 17.8125ZM18.25 16.875C18.4986 16.875 18.7371 16.9738 18.9129 17.1496C19.0887 17.3254 19.1875 17.5639 19.1875 17.8125C19.1875 18.0611 19.0887 18.2996 18.9129 18.4754C18.7371 18.6512 18.4986 18.75 18.25 18.75C18.0014 18.75 17.7629 18.6512 17.5871 18.4754C17.4113 18.2996 17.3125 18.0611 17.3125 17.8125C17.3125 17.5639 17.4113 17.3254 17.5871 17.1496C17.7629 16.9738 18.0014 16.875 18.25 16.875ZM18.25 20C18.8302 20 19.3866 19.7695 19.7968 19.3593C20.207 18.9491 20.4375 18.3927 20.4375 17.8125C20.4375 17.2323 20.207 16.6759 19.7968 16.2657C19.3866 15.8555 18.8302 15.625 18.25 15.625C17.6698 15.625 17.1134 15.8555 16.7032 16.2657C16.293 16.6759 16.0625 17.2323 16.0625 17.8125C16.0625 18.3927 16.293 18.9491 16.7032 19.3593C17.1134 19.7695 17.6698 20 18.25 20Z" fill="white"/>
</svg>
