<svg width="24" height="24" viewBox="0 0 25 25" fill="none" xmlns="http://www.w3.org/2000/svg">
<path d="M25 12.5C25 19.4036 19.4036 25 12.5 25C5.59644 25 0 19.4036 0 12.5C0 5.59644 5.59644 0 12.5 0C19.4036 0 25 5.59644 25 12.5Z" fill="#AFAFAF"/>
<path d="M19.3867 18.8473C19.1103 18.8473 18.8121 18.8182 18.4921 18.76C18.1867 18.6873 17.8812 18.6145 17.5758 18.5418C16.8194 18.3236 16.2085 18.2145 15.743 18.2145C15.3067 18.2145 14.8194 18.2509 14.2812 18.3236C13.4812 18.3964 12.9794 18.4327 12.7758 18.4327C11.903 18.4327 11.2339 18.2727 10.7685 17.9527C10.3176 17.6327 10.063 17.1745 10.0048 16.5782C9.97576 16.2145 10.0776 15.96 10.3103 15.8145C10.543 15.6545 10.9139 15.5745 11.423 15.5745C11.7139 15.5745 11.983 15.6182 12.2303 15.7055C12.4921 15.7782 12.8267 15.8945 13.2339 16.0545C13.6412 16.2291 14.0048 16.36 14.3248 16.4473C14.6448 16.5345 14.9867 16.5782 15.3503 16.5782C15.743 16.5782 16.143 16.3309 16.5503 15.8364C16.9721 15.3418 17.3139 14.6945 17.5758 13.8945C17.8521 13.0945 17.9903 12.2582 17.9903 11.3855C17.9903 10.3091 17.8376 9.48 17.5321 8.89818C17.2412 8.30182 16.6885 8.00364 15.8739 8.00364C14.3321 8.00364 13.2194 8.89818 12.5358 10.6873C12.2739 10.5855 12.0848 10.4545 11.9685 10.2945C11.8667 10.12 11.8158 9.88727 11.8158 9.59636C11.8158 9.17455 11.9758 8.76727 12.2958 8.37455C12.6303 7.96727 13.0958 7.64 13.6921 7.39273C14.303 7.13091 15.0085 7 15.8085 7C16.9576 7 17.8158 7.39273 18.383 8.17818C18.9648 8.96364 19.2558 9.99636 19.2558 11.2764C19.2558 12.5564 18.9867 13.7127 18.4485 14.7455C17.9248 15.7636 17.2848 16.5709 16.5285 17.1673C16.8921 17.3127 17.2412 17.4073 17.5758 17.4509C17.9248 17.4945 18.303 17.5164 18.7103 17.5164C19.2048 17.5309 19.5467 17.5818 19.7358 17.6691C19.9394 17.7418 20.0412 17.9309 20.0412 18.2364C20.0412 18.3673 19.9758 18.5055 19.8448 18.6509C19.7139 18.7818 19.5612 18.8473 19.3867 18.8473Z" fill="white"/>
<path d="M7.94909 19.7673C7.80364 19.7673 7.68 19.7382 7.57818 19.68C7.47636 19.6218 7.32364 19.5055 7.12 19.3309L7.31636 18.1745C7.57818 16.56 7.78182 15.2145 7.92727 14.1382C8.07273 13.0473 8.17455 11.9273 8.23273 10.7782C7.73818 11.2145 7.06909 11.9273 6.22545 12.9164C5.73091 13.4982 5.34545 13.9273 5.06909 14.2036C4.80727 14.4655 4.60364 14.5964 4.45818 14.5964C4.34182 14.5818 4.23273 14.5164 4.13091 14.4C4.04364 14.2691 4 14.1164 4 13.9418C4 13.7382 4.07273 13.5564 4.21818 13.3964L8.05818 9.29455C8.18909 9.14909 8.29091 8.95273 8.36364 8.70545C8.43636 8.45818 8.50909 8.11636 8.58182 7.68C8.66909 7.12727 8.77091 6.71273 8.88727 6.43636C9.00364 6.14545 9.19273 6 9.45455 6C9.57091 6 9.65818 6.01455 9.71636 6.04364C9.77455 6.05818 9.82546 6.10909 9.86909 6.19636L9.89091 6.91636C9.89091 7.17818 9.76 8.45091 9.49818 10.7345C9.25091 13.0036 8.98182 15.0764 8.69091 16.9527C8.4 18.8291 8.15273 19.7673 7.94909 19.7673Z" fill="white"/>
</svg>
