<svg width="128" height="30" viewBox="0 0 128 30" fill="none" xmlns="http://www.w3.org/2000/svg">
<path d="M6.976 22.617C5.504 22.617 4.2454 22.2117 3.2 21.401C2.1547 20.5904 1.3547 19.481 0.799999 18.073C0.266699 16.665 0 15.065 0 13.273C0 11.2677 0.469399 9.36903 1.408 7.57703C2.3467 5.76373 3.5734 4.31304 5.088 3.22504C6.624 2.11574 8.2134 1.56104 9.856 1.56104C11.2427 1.56104 12.3094 1.87044 13.056 2.48904C13.8027 3.10774 14.176 3.83303 14.176 4.66503C14.176 5.15573 14.0267 5.60373 13.728 6.00903C13.4507 6.41443 13.0454 6.72373 12.512 6.93703C12.448 6.80903 12.416 6.60643 12.416 6.32903C12.416 6.07303 12.448 5.81704 12.512 5.56104C12.5547 5.21974 12.576 4.97444 12.576 4.82504C12.576 4.61174 12.544 4.43044 12.48 4.28104C12.1814 3.53444 11.3707 3.16103 10.048 3.16103C9.6854 3.16103 9.2587 3.19303 8.768 3.25703C7.6374 3.40643 6.5174 3.97173 5.408 4.95303C4.2987 5.91303 3.392 7.11844 2.688 8.56904C1.984 10.0197 1.632 11.5024 1.632 13.017C1.632 14.3397 1.8454 15.5984 2.272 16.793C2.72 17.9664 3.36 18.9157 4.192 19.641C5.024 20.3664 6.016 20.729 7.168 20.729C8.6614 20.729 9.8987 20.5477 10.88 20.185C11.8827 19.8224 12.864 19.2677 13.824 18.521C13.9307 18.4357 14.048 18.393 14.176 18.393C14.4107 18.393 14.5707 18.5317 14.656 18.809C14.7627 19.321 14.4214 19.8757 13.632 20.473C12.8427 21.0704 11.8187 21.5824 10.56 22.009C9.3014 22.4144 8.1067 22.617 6.976 22.617ZM47.9625 22.105C47.5785 22.105 47.2692 21.945 47.0345 21.625C46.8212 21.2837 46.6292 20.7717 46.4585 20.089C46.2879 19.385 46.0212 18.169 45.6585 16.441C45.2959 17.8704 44.6132 19.0117 43.6105 19.865C42.6079 20.697 41.3812 21.113 39.9305 21.113C38.6079 21.113 37.4879 20.6544 36.5705 19.737C35.6745 18.7984 35.0025 17.5717 34.5545 16.057C34.1065 14.521 33.8825 12.8677 33.8825 11.097C33.8825 10.2864 33.9572 9.59304 34.1065 9.01704C34.2772 8.41974 34.4799 7.97173 34.7145 7.67303C34.9705 7.37443 35.2159 7.23573 35.4505 7.25703C35.7065 7.25703 35.8345 7.42774 35.8345 7.76904C35.8345 8.04644 35.7599 8.48373 35.6105 9.08103C35.4612 9.74243 35.3865 10.4997 35.3865 11.353C35.3865 12.633 35.5679 13.881 35.9305 15.097C36.3145 16.313 36.8692 17.3157 37.5945 18.105C38.3412 18.873 39.2159 19.257 40.2185 19.257C41.0505 19.257 41.8079 19.0117 42.4905 18.521C43.1732 18.0304 43.7065 17.4117 44.0905 16.665C44.4959 15.9184 44.6985 15.1824 44.6985 14.457V9.36903C44.9332 8.92103 45.2532 8.69704 45.6585 8.69704C46.0212 8.69704 46.2665 9.00644 46.3945 9.62504C46.5225 10.2437 46.5865 11.1184 46.5865 12.249C46.5865 13.209 46.5759 13.945 46.5545 14.457C46.6825 15.161 46.8745 15.8757 47.1305 16.601C47.4079 17.3264 47.7492 18.1477 48.1545 19.065C48.6452 20.1957 48.8905 20.889 48.8905 21.145C48.8905 21.785 48.5812 22.105 47.9625 22.105ZM54.2773 22.265C53.4026 20.5584 52.7093 18.553 52.1973 16.249C51.7066 13.945 51.4613 11.9504 51.4613 10.265C51.4613 9.60374 51.6106 9.17703 51.9093 8.98503C52.0799 8.87843 52.2079 8.82504 52.2933 8.82504C52.4426 8.82504 52.5493 8.94243 52.6133 9.17703C52.6986 9.41173 52.7839 9.83843 52.8693 10.457L53.0293 11.609C53.2639 10.457 53.7119 9.55044 54.3733 8.88904C55.0559 8.20644 55.8879 7.86504 56.8693 7.86504C57.9573 7.86504 58.7679 8.07844 59.3013 8.50504C59.8346 8.91044 60.1013 9.59303 60.1013 10.553C59.0346 10.041 58.0639 9.78503 57.1893 9.78503C56.3573 9.78503 55.6426 10.009 55.0453 10.457C54.4479 10.905 54.0319 11.5664 53.7973 12.441C53.6053 13.0384 53.5093 13.6037 53.5093 14.137C53.5093 14.713 53.5839 15.257 53.7333 15.769C53.9039 16.2597 54.1599 16.8677 54.5013 17.593C54.8213 18.3397 55.0666 18.9797 55.2373 19.513C55.4293 20.0464 55.5359 20.6224 55.5573 21.241C55.5573 21.6037 55.4293 21.8704 55.1733 22.041C54.9173 22.1904 54.6186 22.265 54.2773 22.265ZM61.5275 18.489C61.8262 18.2544 62.1142 18.137 62.3915 18.137C62.6475 18.137 62.8929 18.2117 63.1275 18.361C63.3835 18.5104 63.6395 18.7024 63.8955 18.937C64.1515 19.1504 64.3542 19.3104 64.5035 19.417C64.9942 19.801 65.6662 20.0997 66.5195 20.313C67.3729 20.5264 68.2795 20.633 69.2395 20.633C70.3275 20.633 71.2982 20.4304 72.1515 20.025C73.0262 19.5984 73.4635 19.033 73.4635 18.329C73.4635 17.689 73.2289 17.1877 72.7595 16.825C72.2902 16.441 71.7249 16.1637 71.0635 15.993C70.4022 15.8224 69.5275 15.6624 68.4395 15.513C66.9675 15.3424 65.7942 15.129 64.9195 14.873C64.0662 14.617 63.3835 14.201 62.8715 13.625C62.3595 13.0277 62.1035 12.1957 62.1035 11.129C62.1035 9.97704 62.6475 9.12374 63.7355 8.56904C64.8235 7.99304 66.0715 7.70503 67.4795 7.70503C68.7595 7.70503 69.8475 7.98243 70.7435 8.53703C71.6609 9.07043 72.1302 9.83843 72.1515 10.841C72.1942 11.417 72.1089 11.8757 71.8955 12.217C71.6822 12.537 71.4262 12.697 71.1275 12.697C70.9569 12.697 70.8075 12.633 70.6795 12.505C70.5729 12.377 70.5195 12.2064 70.5195 11.993C70.5195 11.6517 70.6369 11.2784 70.8715 10.873C70.7649 10.361 70.4129 9.97703 69.8155 9.72103C69.2395 9.46503 68.5462 9.33704 67.7355 9.33704C66.5409 9.33704 65.5915 9.56103 64.8875 10.009C64.1835 10.4357 63.8315 10.9477 63.8315 11.545C63.8315 12.185 64.0875 12.6757 64.5995 13.017C65.1115 13.3584 65.7302 13.6037 66.4555 13.753C67.2022 13.881 68.2582 14.009 69.6235 14.137C70.7542 14.2864 71.6715 14.4677 72.3755 14.681C73.1009 14.8944 73.7089 15.3104 74.1995 15.929C74.6902 16.5264 74.9355 17.3904 74.9355 18.521C74.9355 19.6944 74.3915 20.6224 73.3035 21.305C72.2155 21.9664 70.9142 22.297 69.3995 22.297C67.4582 22.297 65.7195 21.9664 64.1835 21.305C62.6689 20.6437 61.7835 19.705 61.5275 18.489ZM85.2009 22.265C83.8359 22.265 82.5769 21.9984 81.4249 21.465C80.2729 20.9317 79.3559 20.1744 78.6728 19.193C77.9901 18.2117 77.6488 17.081 77.6488 15.801C77.6488 14.3717 77.9154 13.0384 78.4488 11.801C78.9819 10.5424 79.7609 9.53974 80.7849 8.79304C81.8299 8.02504 83.0459 7.64104 84.4329 7.64104C85.8839 7.64104 86.9819 8.11043 87.7289 9.04903C88.4759 9.96643 88.8279 11.129 88.7849 12.537C88.7849 13.7957 88.2839 14.7557 87.2809 15.417C86.2999 16.0784 85.0409 16.409 83.5049 16.409C83.2699 16.409 82.9179 16.3877 82.4489 16.345C81.6809 16.2597 81.1369 16.1424 80.8169 15.993C80.4969 15.8437 80.3369 15.545 80.3369 15.097C80.3369 14.9477 80.3799 14.841 80.4649 14.777C80.5499 14.6917 80.7209 14.649 80.9769 14.649C81.2539 14.649 81.7449 14.713 82.4489 14.841C83.1319 14.969 83.7399 15.033 84.2729 15.033C86.2359 15.033 87.2169 14.1797 87.2169 12.473C87.2169 11.449 87.0249 10.6384 86.6409 10.041C86.2779 9.44373 85.6279 9.14503 84.6889 9.14503C83.6649 9.14503 82.7479 9.42244 81.9369 9.97704C81.1259 10.5104 80.4969 11.2144 80.0489 12.089C79.6219 12.9637 79.4089 13.8917 79.4089 14.873C79.4089 16.5584 79.8779 17.945 80.8169 19.033C81.7559 20.0997 83.2059 20.633 85.1689 20.633C85.4039 20.633 85.7979 20.6117 86.3529 20.569C86.5879 20.5477 86.8759 20.4837 87.2169 20.377C87.5579 20.2704 87.8039 20.1957 87.9529 20.153C88.8699 19.833 89.5419 19.673 89.9689 19.673C90.2889 19.673 90.5339 19.7584 90.7049 19.929C90.1719 20.7397 89.3719 21.337 88.3049 21.721C87.2599 22.0837 86.2249 22.265 85.2009 22.265ZM91.1929 14.873C91.1929 14.2544 91.7689 13.785 92.9209 13.465C94.0939 13.145 95.7579 12.8997 97.9129 12.729C98.1469 12.7077 98.4779 12.697 98.9049 12.697C99.7579 12.697 100.409 12.7824 100.857 12.953C101.305 13.1237 101.529 13.3264 101.529 13.561C101.529 13.9877 101.326 14.201 100.921 14.201C100.601 14.201 100.259 14.1477 99.8969 14.041C99.3849 13.913 98.8729 13.849 98.3609 13.849C97.5499 13.849 96.3549 14.0197 94.7769 14.361C93.9869 14.5317 93.3259 14.6597 92.7929 14.745C92.2589 14.8304 91.7259 14.873 91.1929 14.873ZM109.337 23.577C109.123 23.577 108.942 23.5344 108.793 23.449C108.643 23.3637 108.419 23.193 108.121 22.937L108.409 21.241C108.793 18.873 109.091 16.8997 109.305 15.321C109.518 13.721 109.667 12.0784 109.753 10.393C109.027 11.033 108.046 12.0784 106.809 13.529C106.083 14.3824 105.518 15.0117 105.113 15.417C104.729 15.801 104.43 15.993 104.217 15.993C104.046 15.9717 103.886 15.8757 103.737 15.705C103.609 15.513 103.545 15.289 103.545 15.033C103.545 14.7344 103.651 14.4677 103.865 14.233L109.497 8.21703C109.689 8.00373 109.838 7.71573 109.945 7.35303C110.051 6.99043 110.158 6.48904 110.265 5.84904C110.393 5.03844 110.542 4.43043 110.713 4.02503C110.883 3.59843 111.161 3.38503 111.545 3.38503C111.715 3.38503 111.843 3.40644 111.929 3.44904C112.014 3.47044 112.089 3.54503 112.153 3.67303L112.185 4.72903C112.185 5.11303 111.993 6.97973 111.609 10.329C111.246 13.657 110.851 16.697 110.425 19.449C109.998 22.201 109.635 23.577 109.337 23.577ZM126.98 22.265C126.575 22.265 126.137 22.2224 125.668 22.137C125.22 22.0304 124.772 21.9237 124.324 21.817C123.215 21.497 122.319 21.337 121.636 21.337C120.996 21.337 120.281 21.3904 119.492 21.497C118.319 21.6037 117.583 21.657 117.284 21.657C116.004 21.657 115.023 21.4224 114.34 20.953C113.679 20.4837 113.305 19.8117 113.22 18.937C113.177 18.4037 113.327 18.0304 113.668 17.817C114.009 17.5824 114.553 17.465 115.3 17.465C115.727 17.465 116.121 17.529 116.484 17.657C116.868 17.7637 117.359 17.9344 117.956 18.169C118.553 18.425 119.087 18.617 119.556 18.745C120.025 18.873 120.527 18.937 121.06 18.937C121.636 18.937 122.223 18.5744 122.82 17.849C123.439 17.1237 123.94 16.1744 124.324 15.001C124.729 13.8277 124.932 12.601 124.932 11.321C124.932 9.74244 124.708 8.52643 124.26 7.67303C123.833 6.79843 123.023 6.36104 121.828 6.36104C119.567 6.36104 117.935 7.67304 116.932 10.297C116.548 10.1477 116.271 9.95573 116.1 9.72103C115.951 9.46503 115.876 9.12374 115.876 8.69704C115.876 8.07844 116.111 7.48104 116.58 6.90504C117.071 6.30774 117.753 5.82773 118.628 5.46503C119.524 5.08103 120.559 4.88904 121.732 4.88904C123.417 4.88904 124.676 5.46503 125.508 6.61703C126.361 7.76903 126.788 9.28373 126.788 11.161C126.788 13.0384 126.393 14.7344 125.604 16.249C124.836 17.7424 123.897 18.9264 122.788 19.801C123.321 20.0144 123.833 20.153 124.324 20.217C124.836 20.281 125.391 20.313 125.988 20.313C126.713 20.3344 127.215 20.409 127.492 20.537C127.791 20.6437 127.94 20.921 127.94 21.369C127.94 21.561 127.844 21.7637 127.652 21.977C127.46 22.169 127.236 22.265 126.98 22.265Z" fill="white"/>
<mask id="mask0_182_42" style="mask-type:luminance" maskUnits="userSpaceOnUse" x="8" y="0" width="31" height="30">
<path d="M28.0941 -0.000242889L8.71777 10.4189L19.137 29.7952L38.5132 19.376L28.0941 -0.000242889Z" fill="white"/>
</mask>
<g mask="url(#mask0_182_42)">
<path d="M27.9569 22.9713C26.8401 23.5718 25.6766 23.9243 24.4664 24.0286C23.2562 24.133 22.0924 24.0172 20.9751 23.6813C19.8578 23.3454 18.8231 22.8003 17.871 22.0459C16.919 21.2916 16.1427 20.356 15.5421 19.2392C14.9416 18.1223 14.5891 16.9588 14.4848 15.7486C14.3805 14.5384 14.4962 13.3748 14.8321 12.2575C15.168 11.1401 15.7131 10.1053 16.4675 9.15335C17.2218 8.20125 18.1574 7.42495 19.2743 6.82445C20.3911 6.22385 21.5546 5.87145 22.7648 5.76705C23.975 5.66275 25.1387 5.77855 26.2561 6.11445C27.3734 6.45035 28.4081 6.99545 29.3601 7.74975C30.3122 8.50415 31.0885 9.43975 31.689 10.5565C32.2896 11.6733 32.642 12.8368 32.7464 14.047C32.8507 15.2572 32.7349 16.4211 32.399 17.5384C32.0631 18.6557 31.518 19.6903 30.7637 20.6424C30.0093 21.5944 29.0737 22.3707 27.9569 22.9713ZM26.2596 21.7504L25.413 20.176C24.969 20.4148 24.5039 20.4611 24.0176 20.3149C23.5314 20.1688 23.1689 19.8737 22.9301 19.4296L22.4959 18.6224L16.5369 16.8308C16.6267 17.0948 16.72 17.3569 16.8166 17.6171C16.9132 17.8774 17.0266 18.1287 17.1568 18.3709C18.0323 19.999 19.3342 21.1377 21.0623 21.787C22.7905 22.4362 24.5229 22.424 26.2596 21.7504ZM30.7232 16.6961C30.8332 16.2554 30.9035 15.8056 30.9343 15.3467C30.9651 14.8878 30.9516 14.4353 30.894 13.9893C30.8363 13.5433 30.7395 13.1054 30.6037 12.6754C30.4679 12.2454 30.2914 11.8284 30.0743 11.4248C29.3653 10.1061 28.351 9.09905 27.0316 8.40345C25.7122 7.70785 24.31 7.44705 22.825 7.62115L22.9987 7.94405C23.2375 8.38815 23.2838 8.85325 23.1376 9.33945C22.9914 9.82575 22.6963 10.1882 22.2523 10.427L20.6376 11.2952L21.5058 12.9099C21.6288 13.1387 21.6546 13.3721 21.583 13.6101C21.5115 13.848 21.3614 14.0284 21.1326 14.1514L19.5179 15.0198L20.3862 16.6345L25.2303 14.0296C25.459 13.9066 25.6924 13.8809 25.9303 13.9525C26.1683 14.024 26.3487 14.1741 26.4718 14.4029L27.7742 16.8249L28.5815 16.3908C28.9313 16.2027 29.3036 16.1368 29.6984 16.1934C30.0931 16.25 30.4347 16.4176 30.7232 16.6961Z" fill="white"/>
</g>
</svg>
