<svg width="72" height="36" viewBox="0 0 72 36" fill="none" xmlns="http://www.w3.org/2000/svg">
<path d="M62 0H10C4.47715 0 0 4.47715 0 10V26C0 31.5228 4.47715 36 10 36H62C67.5229 36 72 31.5228 72 26V10C72 4.47715 67.5229 0 62 0Z" fill="#FFF500"/>
<g filter="url(#filter0_d_190_37)">
<path d="M7.35298 14.437C6.87218 12.1749 9.56689 10.6191 11.2855 12.1665C12.0541 12.8586 13.1809 12.977 14.0766 12.4599C16.0794 11.3036 18.3918 13.3856 17.4511 15.4983C17.0305 16.4431 17.266 17.5514 18.0346 18.2434C19.7532 19.7909 18.4876 22.6335 16.1877 22.3917C15.1591 22.2836 14.1779 22.8501 13.7572 23.7949C12.8166 25.9076 9.72199 25.5824 9.24119 23.3203C9.02619 22.3086 8.18419 21.5505 7.15559 21.4424C4.85568 21.2007 4.20868 18.1571 6.21148 17.0008C7.10718 16.4836 7.56798 15.4486 7.35298 14.437Z" fill="#059669"/>
</g>
<path d="M3.94522 16.8338C5.38672 16.0015 6.12842 14.3357 5.78232 12.7075C5.20992 10.0144 8.41812 8.16209 10.4642 10.0044C11.7012 11.1182 13.5147 11.3088 14.9563 10.4765C17.3407 9.09989 20.0937 11.5787 18.9739 14.094C18.2968 15.6146 18.676 17.3983 19.913 18.5121C21.9591 20.3544 20.4523 23.7387 17.7141 23.4509C16.0586 23.2769 14.4794 24.1886 13.8024 25.7093C12.6825 28.2245 8.99832 27.8373 8.42582 25.1442C8.07982 23.516 6.72462 22.2958 5.06922 22.1218C2.33102 21.834 1.56082 18.2104 3.94522 16.8338Z" stroke="white"/>
<defs>
<filter id="filter0_d_190_37" x="1.01562" y="11.5439" width="21.8164" height="21.668" filterUnits="userSpaceOnUse" color-interpolation-filters="sRGB">
<feFlood flood-opacity="0" result="BackgroundImageFix"/>
<feColorMatrix in="SourceAlpha" type="matrix" values="0 0 0 0 0 0 0 0 0 0 0 0 0 0 0 0 0 0 127 0" result="hardAlpha"/>
<feOffset dy="4"/>
<feGaussianBlur stdDeviation="2"/>
<feComposite in2="hardAlpha" operator="out"/>
<feColorMatrix type="matrix" values="0 0 0 0 0 0 0 0 0 0 0 0 0 0 0 0 0 0 0.25 0"/>
<feBlend mode="normal" in2="BackgroundImageFix" result="effect1_dropShadow_190_37"/>
<feBlend mode="normal" in="SourceGraphic" in2="effect1_dropShadow_190_37" result="shape"/>
</filter>
</defs>
</svg>
