<svg width="24" height="24" viewBox="0 0 25 25" fill="none" xmlns="http://www.w3.org/2000/svg">
<path d="M25 12.5C25 19.4036 19.4036 25 12.5 25C5.59644 25 0 19.4036 0 12.5C0 5.59644 5.59644 0 12.5 0C19.4036 0 25 5.59644 25 12.5Z" fill="#175CBE"/>
<path d="M8.11133 21.0225V5.86572H13.0818C16.4363 5.86572 19.0136 7.05209 19.0136 10.6316C19.0136 14.0885 16.4159 15.643 13.1636 15.643H11.1386V21.0225H8.11133ZM11.1386 13.2498H12.9591C15.0454 13.2498 16.0477 12.3703 16.0477 10.6316C16.0477 8.87254 14.9431 8.27936 12.8568 8.27936H11.1386V13.2498Z" fill="white"/>
</svg>
