<svg width="24" height="24" viewBox="0 0 25 25" fill="none" xmlns="http://www.w3.org/2000/svg">
<path d="M25 12.5C25 19.4036 19.4036 25 12.5 25C5.59644 25 0 19.4036 0 12.5C0 5.59644 5.59644 0 12.5 0C19.4036 0 25 5.59644 25 12.5Z" fill="#175CBE"/>
<circle cx="10" cy="8" r="3.5" fill="#175CBE" stroke="white"/>
<path d="M16 18C16 17.2121 15.8448 16.4319 15.5433 15.7039C15.2417 14.9759 14.7998 14.3145 14.2426 13.7574C13.6855 13.2002 13.0241 12.7583 12.2961 12.4567C11.5681 12.1552 10.7879 12 10 12C9.21207 12 8.43185 12.1552 7.7039 12.4567C6.97595 12.7583 6.31451 13.2002 5.75736 13.7574C5.20021 14.3145 4.75825 14.9759 4.45672 15.7039C4.15519 16.4319 4 17.2121 4 18" stroke="white" stroke-linejoin="round"/>
<rect x="18" y="5" width="2" height="8" rx="1" fill="#FDCC11"/>
<rect x="15" y="10" width="2" height="8" rx="1" transform="rotate(-90 15 10)" fill="#FDCC11"/>
</svg>
