<svg class="star" width="56" height="55" viewBox="0 0 58 58" fill="none" xmlns="http://www.w3.org/2000/svg">
    <style>
        .star:hover {
            cursor: pointer;
            font-family: 'Noto Sans KR', sans-serif;
        }

        .star:hover path {
            stroke: #F6D5EA;
            stroke-width: 2;
        }
    </style>
    <path d="M9.41164 11.747C7.48836 2.6987 18.2673 -3.52453 25.1418 2.66525V2.66525C28.2161 5.43341 32.7233 5.90713 36.306 3.83866V3.83866C44.3171 -0.786584 53.5666 7.54172 49.8041 15.9925V15.9925C48.1215 19.7717 49.0637 24.2047 52.1381 26.9728V26.9728C59.0125 33.1626 53.9501 44.533 44.7503 43.5661V43.5661C40.636 43.1337 36.7112 45.3997 35.0285 49.1789V49.1789C31.266 57.6297 18.8878 56.3287 16.9645 47.2803V47.2803C16.1044 43.2338 12.7364 40.2013 8.62216 39.7689V39.7689C-0.577656 38.8019 -3.16542 26.6275 4.84574 22.0022V22.0022C8.42844 19.9338 10.2718 15.7936 9.41164 11.747V11.747Z" fill="#F6D5EA"/>
    <text x="14" y="32" fill="black" font-size="16">중등</text>
</svg>
