<svg width="27" height="28" viewBox="0 0 27 28" fill="none" xmlns="http://www.w3.org/2000/svg">
<path d="M5.98552 5.88899C5.54899 1.53388 10.9405 -0.835501 13.8535 2.43128C15.1563 3.89222 17.2516 4.34816 19.0436 3.56063C23.0507 1.79966 26.9701 6.19507 24.7634 9.97503C23.7765 11.6655 23.9904 13.7991 25.2931 15.2601C28.2062 18.5269 25.2371 23.6127 20.9602 22.6821C19.0475 22.2659 17.0844 23.1287 16.0975 24.8191C13.8908 28.599 8.13635 27.3469 7.69981 22.9918C7.50459 21.0441 6.07744 19.4436 4.16477 19.0274C-0.112093 18.0968 -0.699445 12.237 3.30762 10.4761C5.09964 9.68853 6.18075 7.83666 5.98552 5.88899Z" fill="#E70246"/>
</svg>
