<svg width="61" height="58" viewBox="0 0 61 58" fill="none" xmlns="http://www.w3.org/2000/svg">
<path d="M22.6738 22.8819C22.2183 18.476 27.7449 16.121 30.7843 19.4259C32.1293 20.8884 34.2963 21.3467 36.112 20.5731C40.1675 18.845 44.29 23.2391 42.0407 26.975C41.0263 28.6598 41.2618 30.8187 42.6167 32.2919C45.6206 35.5583 42.7023 40.649 38.3434 39.7293L38.0796 39.6737C36.1225 39.2607 34.1332 40.1084 33.1234 41.7856L32.9873 42.0116C30.7382 45.7471 24.8971 44.3889 24.4469 40.0343C24.2439 38.0702 22.7629 36.4421 20.7969 36.0273C16.4374 35.1075 15.8869 29.1912 19.9424 27.4631C21.758 26.6895 22.8753 24.8317 22.6738 22.8819Z" fill="white"/>
<path d="M25.4293 25.2554C25.1257 22.3181 28.8101 20.7481 30.8363 22.9513C31.733 23.9263 33.1777 24.2319 34.3881 23.7161C37.0918 22.564 39.8401 25.4935 38.3406 27.984C37.6643 29.1073 37.8213 30.5465 38.7246 31.5287C40.7272 33.7063 38.7817 37.1001 35.8757 36.487L35.6999 36.4498C34.3951 36.1746 33.0689 36.7397 32.3957 37.8578L32.305 38.0085C30.8056 40.4988 26.9115 39.5933 26.6114 36.6903C26.4761 35.3809 25.4888 34.2954 24.1781 34.0189C21.2718 33.4057 20.9048 29.4616 23.6084 28.3095C24.8188 27.7937 25.5637 26.5552 25.4293 25.2554Z" fill="#F87171"/>
</svg>
